<svg width="24" height="25" viewBox="0 0 24 25" fill="none" xmlns="http://www.w3.org/2000/svg">
<path d="M21.97 19.1574C21.97 19.5174 21.89 19.8874 21.72 20.2474C21.55 20.6074 21.33 20.9474 21.04 21.2674C20.55 21.8074 20.01 22.1974 19.4 22.4474C18.8 22.6974 18.15 22.8274 17.45 22.8274C16.43 22.8274 15.34 22.5874 14.19 22.0974C13.04 21.6074 11.89 20.9474 10.75 20.1174C9.6 19.2774 8.51 18.3474 7.47 17.3174C6.44 16.2774 5.51 15.1874 4.68 14.0474C3.86 12.9074 3.2 11.7674 2.72 10.6374C2.24 9.49739 2 8.40739 2 7.36739C2 6.68739 2.12 6.03739 2.36 5.43739C2.6 4.82739 2.98 4.26739 3.51 3.76739C4.15 3.13739 4.85 2.82739 5.59 2.82739C5.87 2.82739 6.15 2.88739 6.4 3.00739C6.66 3.12739 6.89 3.30739 7.07 3.56739L9.39 6.83739C9.57 7.08739 9.7 7.31739 9.79 7.53739C9.88 7.74739 9.93 7.95739 9.93 8.14739C9.93 8.38739 9.86 8.62739 9.72 8.85739C9.59 9.08739 9.4 9.32739 9.16 9.56739L8.4 10.3574C8.29 10.4674 8.24 10.5974 8.24 10.7574C8.24 10.8374 8.25 10.9074 8.27 10.9874C8.3 11.0674 8.33 11.1274 8.35 11.1874C8.53 11.5174 8.84 11.9474 9.28 12.4674C9.73 12.9874 10.21 13.5174 10.73 14.0474C11.27 14.5774 11.79 15.0674 12.32 15.5174C12.84 15.9574 13.27 16.2574 13.61 16.4374C13.66 16.4574 13.72 16.4874 13.79 16.5174C13.87 16.5474 13.95 16.5574 14.04 16.5574C14.21 16.5574 14.34 16.4974 14.45 16.3874L15.21 15.6374C15.46 15.3874 15.7 15.1974 15.93 15.0774C16.16 14.9374 16.39 14.8674 16.64 14.8674C16.83 14.8674 17.03 14.9074 17.25 14.9974C17.47 15.0874 17.7 15.2174 17.95 15.3874L21.26 17.7374C21.52 17.9174 21.7 18.1274 21.81 18.3774C21.91 18.6274 21.97 18.8774 21.97 19.1574Z" stroke="url(#paint0_linear_4237_4043)" stroke-width="1.5" stroke-miterlimit="10"/>
<defs>
<linearGradient id="paint0_linear_4237_4043" x1="21.1439" y1="20.9524" x2="1.85523" y2="20.3992" gradientUnits="userSpaceOnUse">
<stop stop-color="#AA905C"/>
<stop offset="1" stop-color="#FFDF9F"/>
</linearGradient>
</defs>
</svg>
