<svg width="224" height="213" viewBox="0 0 224 213" fill="none" xmlns="http://www.w3.org/2000/svg">
<path d="M52.6753 143.515C52.7577 143.466 52.8162 143.389 52.8401 143.296C52.8641 143.203 52.8507 143.107 52.8023 143.024C52.7026 142.854 52.4833 142.797 52.313 142.897C51.6477 143.288 51.0126 143.74 50.4247 144.239C50.3518 144.301 50.3078 144.388 50.3 144.483C50.2922 144.578 50.3223 144.671 50.3841 144.744C50.4576 144.831 50.5695 144.878 50.683 144.87C50.7587 144.864 50.83 144.835 50.8879 144.785C51.444 144.313 52.0452 143.885 52.6753 143.515Z" fill="url(#paint0_linear_2233_8011)"/>
<path d="M48.9148 161.848C48.858 161.772 48.7751 161.721 48.6804 161.707C48.5858 161.692 48.4917 161.716 48.4149 161.773C48.2563 161.89 48.2223 162.114 48.3386 162.273C48.7962 162.896 49.3111 163.483 49.8684 164.015C49.9413 164.085 50.0409 164.121 50.1411 164.113C50.2296 164.107 50.312 164.068 50.3733 164.004C50.5096 163.861 50.5041 163.634 50.3616 163.497C49.835 162.993 49.3484 162.438 48.9148 161.848Z" fill="url(#paint1_linear_2233_8011)"/>
<path d="M54.8143 166.242C54.1251 165.997 53.4543 165.69 52.8208 165.329C52.6494 165.232 52.4306 165.292 52.3338 165.464C52.2363 165.636 52.2965 165.854 52.4679 165.952C53.1376 166.333 53.8468 166.658 54.5749 166.916C54.6222 166.933 54.6712 166.94 54.7208 166.936C54.8621 166.925 54.9841 166.832 55.0314 166.698C55.0976 166.513 55.0002 166.308 54.8143 166.242Z" fill="url(#paint2_linear_2233_8011)"/>
<path d="M57.8732 141.726C57.9328 141.651 57.9595 141.557 57.9489 141.462C57.9383 141.367 57.891 141.282 57.8164 141.222C57.7418 141.162 57.6483 141.136 57.5537 141.146C56.7882 141.233 56.0245 141.387 55.2836 141.606C55.1917 141.634 55.1166 141.694 55.0709 141.779C55.0253 141.863 55.0153 141.959 55.042 142.051C55.0893 142.212 55.244 142.319 55.4105 142.307C55.4361 142.306 55.4611 142.301 55.4862 142.293C56.187 142.086 56.909 141.94 57.6333 141.858C57.729 141.848 57.8136 141.8 57.8732 141.726Z" fill="url(#paint3_linear_2233_8011)"/>
<path d="M46.7553 157.08C46.7347 156.987 46.679 156.907 46.5989 156.856C46.5181 156.804 46.4224 156.787 46.3294 156.808C46.1368 156.85 46.0149 157.042 46.0572 157.234C46.2231 157.988 46.4563 158.733 46.7508 159.448C46.8098 159.591 46.9529 159.68 47.1071 159.668C47.1449 159.666 47.1822 159.657 47.2173 159.642C47.3058 159.606 47.3743 159.537 47.411 159.449C47.4478 159.361 47.4478 159.263 47.4116 159.175C47.1327 158.498 46.9123 157.793 46.7553 157.08Z" fill="url(#paint4_linear_2233_8011)"/>
<path d="M46.0989 154.372C46.1112 154.372 46.1234 154.372 46.1357 154.371C46.3188 154.358 46.4613 154.209 46.4663 154.024C46.4875 153.296 46.5732 152.562 46.7213 151.844C46.7407 151.75 46.7224 151.655 46.6695 151.574C46.6172 151.495 46.5365 151.44 46.4429 151.42C46.2498 151.381 46.0605 151.506 46.021 151.699C45.8646 152.458 45.7744 153.233 45.7521 154.003C45.7493 154.099 45.7838 154.19 45.8495 154.259C45.9147 154.329 46.0037 154.369 46.0989 154.372Z" fill="url(#paint5_linear_2233_8011)"/>
<path d="M47.6973 148.934C48.0123 148.274 48.387 147.638 48.8123 147.044C48.8679 146.966 48.8897 146.871 48.8746 146.777C48.859 146.682 48.8078 146.6 48.7304 146.544C48.6531 146.488 48.5584 146.467 48.4638 146.482C48.3697 146.497 48.2873 146.549 48.2317 146.627C47.7824 147.255 47.3855 147.927 47.0526 148.625C47.0115 148.711 47.0064 148.808 47.0382 148.898C47.0699 148.989 47.135 149.061 47.2208 149.102C47.277 149.129 47.3388 149.14 47.4006 149.136C47.5286 149.127 47.6422 149.049 47.6973 148.934Z" fill="url(#paint6_linear_2233_8011)"/>
<path d="M70.8384 149.379C70.8802 149.376 70.9214 149.366 70.9604 149.348C71.1396 149.266 71.2192 149.054 71.1379 148.874C70.8184 148.171 70.436 147.491 70.0001 146.854C69.9461 146.775 69.8648 146.722 69.7708 146.704C69.6767 146.687 69.582 146.707 69.503 146.761C69.3404 146.872 69.2987 147.095 69.41 147.258C69.8225 147.862 70.1849 148.505 70.4872 149.17C70.5484 149.306 70.6898 149.39 70.8384 149.379Z" fill="url(#paint7_linear_2233_8011)"/>
<path d="M59.9963 166.94L59.959 166.942C59.2442 166.995 58.52 166.985 57.8052 166.913C57.6087 166.893 57.4339 167.038 57.4139 167.234C57.3944 167.43 57.538 167.606 57.734 167.626C58.4894 167.701 59.2559 167.712 60.0118 167.656L60.0508 167.653C60.146 167.646 60.2328 167.602 60.2946 167.53C60.357 167.457 60.387 167.365 60.3798 167.269C60.3648 167.074 60.1933 166.926 59.9963 166.94Z" fill="url(#paint8_linear_2233_8011)"/>
<path d="M69.498 162.007C69.4223 161.949 69.3288 161.923 69.2342 161.935C69.1395 161.947 69.0549 161.996 68.997 162.071C68.5517 162.649 68.0518 163.192 67.5113 163.685C67.4406 163.749 67.3994 163.837 67.3949 163.933C67.3905 164.028 67.4233 164.12 67.4879 164.191C67.5625 164.273 67.6683 164.315 67.7785 164.307C67.8586 164.301 67.9332 164.269 67.9928 164.214C68.5639 163.693 69.0922 163.119 69.5632 162.508C69.6828 162.353 69.6539 162.128 69.498 162.007Z" fill="url(#paint9_linear_2233_8011)"/>
<path d="M72.1114 151.969C72.0941 151.874 72.0407 151.792 71.9622 151.738C71.8837 151.684 71.7885 151.664 71.695 151.681C71.6009 151.699 71.5196 151.752 71.4656 151.83C71.4116 151.909 71.391 152.004 71.4083 152.098C71.4907 152.546 71.5491 153.003 71.5825 153.456C71.6026 153.731 71.6137 154.009 71.6154 154.283C71.6165 154.481 71.7779 154.64 71.9755 154.639C71.9833 154.639 71.9917 154.638 71.9995 154.638C72.1865 154.624 72.3318 154.466 72.3307 154.278C72.3285 153.987 72.3168 153.693 72.2956 153.403C72.2606 152.924 72.1988 152.441 72.1114 151.969Z" fill="url(#paint10_linear_2233_8011)"/>
<path d="M71.6912 157.069C71.5982 157.047 71.5025 157.062 71.4207 157.112C71.3394 157.162 71.2821 157.241 71.2598 157.333L71.2559 157.351C71.0828 158.064 70.8479 158.764 70.5573 159.432C70.4782 159.612 70.5612 159.824 70.7421 159.903C70.795 159.926 70.8534 159.936 70.9108 159.932C71.0438 159.922 71.159 159.84 71.2125 159.718C71.5198 159.013 71.768 158.273 71.9512 157.519L71.9556 157.501C72.0013 157.309 71.8833 157.115 71.6912 157.069Z" fill="url(#paint11_linear_2233_8011)"/>
<path d="M62.8379 142.371C62.8813 142.385 62.9264 142.39 62.9715 142.387C63.1184 142.376 63.242 142.278 63.2865 142.138C63.3461 141.949 63.2414 141.748 63.0533 141.688C62.7644 141.597 62.4688 141.514 62.1738 141.442C61.719 141.332 61.2547 141.244 60.7938 141.182C60.6991 141.169 60.6056 141.194 60.5294 141.252C60.4537 141.31 60.4047 141.394 60.3919 141.489C60.3657 141.685 60.5032 141.866 60.6986 141.892C61.135 141.95 61.5748 142.033 62.0056 142.138C62.284 142.206 62.5645 142.285 62.8379 142.371Z" fill="url(#paint12_linear_2233_8011)"/>
<path d="M67.3847 144.954C67.4576 145.019 67.5511 145.051 67.648 145.044C67.7415 145.037 67.8267 144.994 67.889 144.924C67.9525 144.853 67.9842 144.761 67.9787 144.665C67.9731 144.57 67.9308 144.483 67.8595 144.419C67.2823 143.905 66.6566 143.439 65.9997 143.035C65.8316 142.931 65.6111 142.984 65.5082 143.153C65.4581 143.234 65.443 143.33 65.4647 143.423C65.4865 143.516 65.5438 143.595 65.6251 143.645C66.2474 144.028 66.8392 144.468 67.3847 144.954Z" fill="url(#paint13_linear_2233_8011)"/>
<path d="M65.2837 165.434C65.1924 165.406 65.0956 165.416 65.0115 165.461C64.3691 165.809 63.6922 166.103 63.0003 166.334C62.8132 166.396 62.7119 166.599 62.7743 166.786C62.826 166.942 62.9758 167.042 63.1394 167.031C63.1689 167.028 63.1984 167.023 63.2263 167.013C63.9572 166.77 64.6725 166.46 65.3511 166.092C65.4351 166.047 65.4964 165.971 65.5236 165.88C65.5509 165.788 65.5409 165.691 65.4958 165.607C65.4507 165.522 65.3756 165.461 65.2837 165.434Z" fill="url(#paint14_linear_2233_8011)"/>
<path d="M63.2641 131.667L63.219 131.675C63.0241 131.707 62.841 131.574 62.8093 131.379C62.7781 131.184 62.9095 131.001 63.1038 130.968C63.1043 130.968 63.1049 130.968 63.1054 130.968L63.1477 130.961C64.0751 130.807 65.0037 130.596 65.9077 130.334C66.0975 130.279 66.2951 130.388 66.3502 130.578C66.4053 130.767 66.2963 130.966 66.1064 131.021C65.1751 131.292 64.2193 131.509 63.2641 131.667ZM59.152 131.995C59.1325 131.998 59.1119 132 59.0913 132C58.111 131.995 57.1173 131.93 56.1387 131.809C55.9428 131.784 55.8042 131.606 55.8281 131.409C55.8526 131.213 56.0307 131.074 56.2267 131.098C57.1775 131.216 58.1427 131.279 59.0952 131.284C59.2922 131.286 59.4515 131.447 59.4503 131.644C59.4498 131.821 59.3206 131.967 59.152 131.995ZM69.8751 129.571C69.7225 129.596 69.5656 129.52 69.4949 129.373C69.4091 129.195 69.4837 128.981 69.6619 128.895C70.5219 128.48 71.3664 128.009 72.1724 127.494C72.3389 127.388 72.5599 127.437 72.6656 127.604C72.772 127.77 72.723 127.992 72.5565 128.098C71.7266 128.627 70.857 129.113 69.9719 129.539C69.9402 129.555 69.9074 129.565 69.8751 129.571ZM52.2465 130.972C52.1947 130.98 52.1402 130.977 52.0867 130.962C51.1432 130.681 50.2074 130.341 49.3056 129.951C49.1247 129.872 49.0412 129.662 49.1191 129.48C49.1971 129.298 49.4075 129.215 49.589 129.294C50.4646 129.673 51.3736 130.003 52.2899 130.276C52.4792 130.332 52.5872 130.531 52.5309 130.721C52.4909 130.856 52.3773 130.95 52.2465 130.972ZM75.6711 125.675C75.5548 125.695 75.4317 125.656 75.3471 125.562C75.2152 125.415 75.2269 125.189 75.3738 125.056C76.0842 124.416 76.7633 123.726 77.3923 123.007C77.5226 122.858 77.748 122.843 77.8967 122.973C78.0453 123.104 78.0603 123.329 77.9301 123.478C77.2827 124.219 76.5835 124.929 75.852 125.588C75.7986 125.636 75.7357 125.664 75.6711 125.675ZM45.9088 128.044C45.8242 128.058 45.734 128.042 45.6561 127.991C44.8317 127.455 44.0306 126.863 43.2741 126.231C43.1227 126.105 43.1021 125.879 43.2285 125.727C43.3548 125.576 43.5803 125.555 43.7317 125.681C44.4659 126.295 45.2447 126.87 46.0452 127.391C46.2105 127.498 46.2578 127.72 46.1504 127.886C46.0931 127.974 46.004 128.028 45.9088 128.044ZM80.1423 120.307C80.0604 120.32 79.973 120.306 79.8968 120.258C79.7287 120.154 79.6763 119.934 79.7799 119.766C80.2814 118.951 80.7385 118.097 81.1387 117.228C81.2211 117.049 81.4337 116.97 81.613 117.053C81.7922 117.136 81.8702 117.349 81.7878 117.528C81.3758 118.422 80.9049 119.302 80.3883 120.142C80.3321 120.233 80.2408 120.29 80.1423 120.307ZM40.655 123.44C40.5359 123.459 40.4095 123.419 40.3254 123.32C39.6847 122.573 39.0818 121.779 38.5341 120.961C38.4239 120.797 38.4678 120.575 38.6315 120.464C38.7952 120.354 39.0173 120.398 39.1275 120.562C39.6602 121.356 40.2458 122.127 40.8682 122.853C40.9968 123.003 40.9795 123.229 40.8298 123.358C40.778 123.403 40.7173 123.43 40.655 123.44ZM82.915 113.889C82.866 113.897 82.8143 113.895 82.7636 113.881C82.5732 113.829 82.4608 113.633 82.5126 113.442C82.7619 112.522 82.9596 111.574 83.0998 110.624L83.1049 110.592C83.1332 110.396 83.3147 110.261 83.5101 110.29C83.7055 110.318 83.8402 110.5 83.8118 110.696L83.8068 110.729C83.6621 111.707 83.4583 112.682 83.2017 113.63C83.1639 113.769 83.0486 113.867 82.915 113.889ZM36.9019 117.545C36.7461 117.571 36.5868 117.491 36.5184 117.34C36.1126 116.442 35.7563 115.511 35.4602 114.573C35.4006 114.385 35.5047 114.184 35.6928 114.124C35.8815 114.065 36.0819 114.169 36.141 114.358C36.4288 115.269 36.7744 116.173 37.1686 117.045C37.2498 117.225 37.1702 117.437 36.9904 117.518C36.9626 117.531 36.9325 117.54 36.9019 117.545ZM83.7756 106.917C83.7589 106.919 83.7417 106.921 83.7239 106.922C83.5268 106.926 83.3637 106.768 83.3598 106.571C83.3409 105.614 83.2646 104.648 83.1321 103.702C83.1048 103.506 83.2401 103.325 83.4361 103.297C83.6315 103.27 83.8118 103.406 83.8397 103.602C83.976 104.577 84.0551 105.571 84.0746 106.556C84.0774 106.737 83.9476 106.888 83.7756 106.917ZM34.9592 110.832C34.9564 110.832 34.953 110.833 34.9502 110.833C34.7549 110.861 34.5745 110.724 34.5472 110.528C34.4114 109.553 34.3329 108.559 34.3145 107.573C34.3106 107.376 34.4676 107.212 34.6652 107.208C34.8623 107.204 35.0254 107.362 35.0293 107.56C35.0471 108.517 35.1234 109.483 35.2553 110.429C35.2815 110.622 35.1495 110.8 34.9592 110.832ZM82.64 100.018C82.4675 100.047 82.296 99.9454 82.2415 99.7731C81.9531 98.8625 81.6069 97.9587 81.2116 97.0871C81.1298 96.907 81.2094 96.6951 81.3892 96.6131C81.5685 96.5317 81.7805 96.6109 81.8624 96.791C82.2693 97.6882 82.6256 98.6189 82.9228 99.5568C82.9824 99.7452 82.8783 99.9465 82.6901 100.006C82.6734 100.011 82.6567 100.016 82.64 100.018ZM34.9914 103.84C34.9558 103.846 34.9185 103.846 34.8807 103.841C34.6853 103.812 34.5506 103.63 34.5795 103.434L34.5823 103.416C34.7259 102.446 34.928 101.476 35.1824 100.534C35.2341 100.343 35.4301 100.23 35.6205 100.282C35.8109 100.334 35.9239 100.53 35.8721 100.721C35.6249 101.636 35.429 102.578 35.2893 103.523L35.287 103.539C35.2631 103.696 35.1406 103.815 34.9914 103.84ZM79.6067 93.7236C79.4731 93.7459 79.3323 93.6901 79.2516 93.5702C78.7183 92.7762 78.1327 92.0056 77.5098 91.2801C77.3812 91.1301 77.3979 90.9043 77.5476 90.7755C77.6974 90.6467 77.9228 90.6634 78.0514 90.8134C78.6927 91.56 79.2961 92.353 79.8444 93.1704C79.9547 93.3344 79.9112 93.5569 79.7476 93.6673C79.7036 93.6968 79.6557 93.7152 79.6067 93.7236ZM36.976 97.1373C36.908 97.1484 36.8357 97.1401 36.7683 97.1094C36.5891 97.0269 36.5106 96.8144 36.5935 96.6349C37.0049 95.7399 37.4753 94.8606 37.9908 94.0202C38.0943 93.8518 38.3142 93.7994 38.4823 93.9031C38.6504 94.0069 38.7027 94.2271 38.5992 94.3955C38.0982 95.2113 37.6417 96.065 37.242 96.9343C37.1908 97.0458 37.089 97.1183 36.976 97.1373ZM74.9313 88.5322C74.8322 88.5484 74.727 88.5233 74.6441 88.4541C73.9092 87.8413 73.1305 87.2664 72.3294 86.7467C72.1641 86.6391 72.1168 86.4177 72.2242 86.2516C72.3316 86.086 72.5526 86.0386 72.7185 86.1456C73.5435 86.6809 74.3451 87.2726 75.1016 87.9038C75.253 88.0304 75.2736 88.2562 75.1473 88.4079C75.0899 88.4764 75.0126 88.5183 74.9313 88.5322ZM40.7747 91.2701C40.6728 91.2868 40.5648 91.2601 40.4807 91.1864C40.3321 91.0565 40.3171 90.8301 40.4468 90.6812C41.0936 89.9402 41.7923 89.2298 42.5237 88.5696C42.6701 88.4374 42.8961 88.4491 43.0281 88.5958C43.16 88.7424 43.1483 88.9688 43.0019 89.101C42.2916 89.7422 41.613 90.4325 40.9845 91.1524C40.9289 91.2171 40.8537 91.2567 40.7747 91.2701ZM68.9833 84.8709C68.9182 84.8815 68.8491 84.8743 68.7834 84.8464C67.9072 84.4678 66.9988 84.1382 66.0819 83.8667C65.8927 83.8103 65.7847 83.6113 65.8409 83.4217C65.8971 83.2321 66.0958 83.1239 66.2851 83.1802C67.2292 83.4602 68.165 83.7997 69.0673 84.1895C69.2483 84.2676 69.3318 84.4784 69.2538 84.6601C69.2032 84.7756 69.0991 84.852 68.9833 84.8709ZM46.0686 86.7122C45.9316 86.735 45.788 86.6759 45.709 86.5516C45.6027 86.3848 45.6516 86.1635 45.8181 86.0575C46.647 85.5272 47.5165 85.0416 48.4016 84.6139C48.5792 84.5274 48.7929 84.6027 48.8786 84.7806C48.9644 84.9585 48.8898 85.1726 48.7122 85.2585C47.8521 85.6739 47.0082 86.1456 46.2027 86.6609C46.1599 86.6876 46.1148 86.7049 46.0686 86.7122ZM62.247 83.0447C62.2142 83.0503 62.1797 83.0509 62.1446 83.047C61.1938 82.9293 60.2286 82.8674 59.2761 82.863C59.079 82.8618 58.9198 82.7012 58.9204 82.5033C58.9215 82.3059 59.0824 82.1464 59.2794 82.147C60.2597 82.1514 61.2534 82.2156 62.2326 82.3366C62.4285 82.3611 62.5677 82.5395 62.5432 82.7358C62.5232 82.8964 62.3996 83.0191 62.247 83.0447ZM52.4235 83.826C52.2476 83.8549 52.0734 83.7484 52.0227 83.5728C51.9676 83.3832 52.0767 83.1841 52.266 83.1295C53.2017 82.8574 54.1625 82.6382 55.1228 82.4793C55.1234 82.4793 55.1239 82.4793 55.1245 82.4793L55.1517 82.4749C55.3466 82.4425 55.5303 82.5747 55.5626 82.7693C55.5949 82.9644 55.4629 83.1484 55.2686 83.1808L55.2414 83.1853C55.2408 83.1853 55.2403 83.1853 55.2403 83.1853C54.3078 83.3397 53.3749 83.5522 52.4658 83.8165C52.4513 83.8204 52.4374 83.8237 52.4235 83.826Z" fill="url(#paint15_linear_2233_8011)"/>
<path d="M154.9 164.511C154.665 164.418 154.547 164.154 154.637 163.917C154.727 163.677 154.994 163.557 155.233 163.648C156.13 163.988 157.047 164.307 157.957 164.595C158.201 164.672 158.336 164.932 158.259 165.176C158.182 165.419 157.922 165.555 157.679 165.477C156.752 165.184 155.818 164.86 154.905 164.513C154.904 164.513 154.902 164.512 154.9 164.511ZM151.151 162.918C151.142 162.914 151.132 162.91 151.122 162.906C150.239 162.489 149.358 162.042 148.503 161.577C148.279 161.455 148.196 161.174 148.317 160.95C148.439 160.725 148.718 160.642 148.943 160.763C149.783 161.22 150.649 161.659 151.516 162.068C151.747 162.177 151.845 162.453 151.737 162.684C151.633 162.906 151.375 163.006 151.151 162.918ZM161.579 166.541C161.369 166.458 161.246 166.232 161.297 166.006C161.355 165.757 161.602 165.602 161.851 165.659C162.785 165.874 163.736 166.066 164.679 166.227C164.93 166.271 165.099 166.51 165.056 166.762C165.013 167.014 164.774 167.183 164.523 167.14C163.563 166.975 162.594 166.781 161.644 166.561C161.621 166.556 161.599 166.549 161.579 166.541ZM145.055 159.514C145.026 159.503 144.998 159.489 144.971 159.471C144.154 158.938 143.342 158.375 142.557 157.796C142.352 157.645 142.308 157.355 142.459 157.149C142.609 156.944 142.899 156.899 143.104 157.051C143.875 157.618 144.672 158.172 145.475 158.695C145.689 158.835 145.75 159.121 145.61 159.335C145.489 159.523 145.255 159.593 145.055 159.514ZM168.471 167.64C168.285 167.567 168.161 167.378 168.18 167.168C168.202 166.913 168.427 166.725 168.681 166.748C169.635 166.833 170.603 166.892 171.56 166.923C171.815 166.931 172.015 167.145 172.007 167.4C171.998 167.655 171.785 167.856 171.53 167.848C170.556 167.817 169.57 167.757 168.599 167.67C168.554 167.666 168.511 167.656 168.471 167.64ZM139.48 155.307C139.433 155.288 139.387 155.261 139.346 155.225C138.608 154.584 137.879 153.913 137.18 153.231C136.998 153.053 136.994 152.76 137.171 152.576C137.35 152.394 137.642 152.39 137.825 152.568C138.511 153.237 139.227 153.896 139.952 154.526C140.145 154.693 140.165 154.985 139.998 155.179C139.866 155.331 139.657 155.376 139.48 155.307ZM175.446 167.783C175.282 167.718 175.162 167.562 175.153 167.374C175.141 167.119 175.338 166.902 175.593 166.89C176.547 166.844 177.513 166.769 178.463 166.668C178.717 166.642 178.944 166.826 178.972 167.08C178.998 167.334 178.815 167.562 178.561 167.589C177.593 167.692 176.609 167.767 175.637 167.814C175.57 167.818 175.505 167.806 175.446 167.783ZM134.529 150.367C134.462 150.341 134.401 150.299 134.35 150.241C133.708 149.506 133.078 148.742 132.479 147.971C132.322 147.769 132.358 147.478 132.559 147.321C132.76 147.164 133.051 147.2 133.208 147.402C133.797 148.159 134.415 148.91 135.046 149.632C135.214 149.824 135.195 150.116 135.003 150.285C134.868 150.403 134.685 150.429 134.529 150.367ZM182.372 166.969C182.229 166.913 182.117 166.786 182.086 166.623C182.039 166.372 182.205 166.13 182.455 166.083C183.394 165.907 184.342 165.702 185.271 165.472C185.519 165.41 185.77 165.562 185.83 165.81C185.892 166.058 185.74 166.309 185.492 166.37C184.546 166.604 183.581 166.813 182.625 166.993C182.538 167.01 182.45 167 182.372 166.969ZM130.3 144.799C130.214 144.765 130.137 144.705 130.083 144.623C129.547 143.807 129.027 142.965 128.538 142.12C128.41 141.898 128.485 141.615 128.706 141.487C128.927 141.359 129.209 141.434 129.337 141.656C129.818 142.486 130.328 143.313 130.855 144.114C130.995 144.328 130.936 144.615 130.723 144.755C130.593 144.841 130.435 144.852 130.3 144.799ZM189.127 165.218C189.004 165.17 188.902 165.069 188.857 164.933C188.776 164.691 188.907 164.429 189.149 164.348C190.058 164.045 190.969 163.712 191.859 163.358C192.096 163.264 192.364 163.38 192.458 163.618C192.552 163.855 192.436 164.124 192.199 164.219C191.294 164.579 190.366 164.918 189.441 165.226C189.335 165.262 189.224 165.257 189.127 165.218ZM126.867 138.709C126.762 138.667 126.672 138.588 126.619 138.477C126.199 137.597 125.798 136.692 125.428 135.789C125.331 135.553 125.444 135.282 125.68 135.185C125.916 135.088 126.186 135.201 126.283 135.438C126.646 136.325 127.041 137.214 127.453 138.078C127.563 138.309 127.466 138.585 127.235 138.695C127.115 138.753 126.982 138.754 126.867 138.709ZM195.585 162.566C195.481 162.525 195.392 162.447 195.339 162.34C195.226 162.111 195.32 161.833 195.55 161.72C196.409 161.297 197.268 160.844 198.102 160.372C198.324 160.247 198.605 160.326 198.731 160.548C198.856 160.771 198.778 161.053 198.556 161.179C197.706 161.658 196.832 162.12 195.958 162.551C195.836 162.61 195.702 162.612 195.585 162.566ZM124.29 132.211C124.165 132.162 124.062 132.059 124.018 131.921C123.721 130.992 123.446 130.042 123.202 129.098C123.138 128.85 123.286 128.597 123.533 128.533C123.78 128.469 124.032 128.617 124.096 128.865C124.337 129.793 124.606 130.726 124.899 131.639C124.976 131.882 124.843 132.143 124.6 132.221C124.494 132.254 124.386 132.249 124.29 132.211ZM201.627 159.061C201.543 159.028 201.467 158.969 201.413 158.889C201.27 158.677 201.326 158.389 201.538 158.246C202.333 157.71 203.122 157.144 203.885 156.563C204.088 156.409 204.378 156.449 204.532 156.652C204.686 156.856 204.647 157.146 204.444 157.301C203.667 157.892 202.863 158.468 202.054 159.014C201.923 159.103 201.763 159.115 201.627 159.061ZM122.616 125.426C122.471 125.369 122.358 125.24 122.33 125.075C122.161 124.114 122.017 123.136 121.904 122.168C121.874 121.914 122.055 121.684 122.308 121.655C122.562 121.624 122.792 121.806 122.821 122.06C122.933 123.011 123.074 123.971 123.24 124.915C123.284 125.166 123.116 125.407 122.864 125.451C122.778 125.466 122.692 125.456 122.616 125.426ZM207.139 154.765C207.074 154.739 207.014 154.699 206.964 154.643C206.793 154.452 206.81 154.16 207 153.989C207.715 153.349 208.42 152.68 209.096 152C209.277 151.819 209.569 151.819 209.75 151.999C209.931 152.179 209.931 152.472 209.751 152.653C209.062 153.345 208.344 154.027 207.616 154.679C207.481 154.8 207.296 154.827 207.139 154.765ZM212.015 149.752C211.969 149.734 211.925 149.708 211.885 149.674C211.69 149.508 211.666 149.217 211.832 149.022C212.451 148.29 213.058 147.532 213.634 146.767C213.787 146.563 214.077 146.522 214.281 146.676C214.484 146.83 214.525 147.12 214.371 147.324C213.785 148.103 213.167 148.876 212.537 149.621C212.405 149.776 212.194 149.822 212.015 149.752ZM216.155 144.123C216.128 144.112 216.101 144.099 216.075 144.082C215.86 143.945 215.796 143.659 215.933 143.443C216.446 142.635 216.943 141.8 217.41 140.962C217.534 140.739 217.815 140.659 218.038 140.783C218.261 140.908 218.341 141.19 218.216 141.413C217.741 142.266 217.235 143.116 216.713 143.94C216.592 144.13 216.356 144.202 216.155 144.123ZM219.487 137.98C219.478 137.977 219.47 137.974 219.463 137.97C219.23 137.864 219.129 137.589 219.235 137.357C219.633 136.487 220.012 135.593 220.362 134.698L220.398 134.605C220.491 134.367 220.759 134.249 220.997 134.342C220.997 134.342 220.997 134.342 220.997 134.342C221.234 134.436 221.352 134.704 221.259 134.941L221.222 135.036C220.866 135.946 220.48 136.857 220.074 137.743C219.972 137.966 219.713 138.069 219.487 137.98ZM125.369 97.937C125.132 97.8439 125.014 97.5757 125.107 97.3382L125.126 97.2902C125.476 96.3953 125.855 95.5003 126.252 94.6304C126.359 94.3979 126.633 94.2947 126.865 94.4018C127.097 94.5077 127.199 94.7826 127.093 95.0152C126.703 95.87 126.33 96.7493 125.986 97.6281L125.968 97.6744C125.875 97.9125 125.607 98.0302 125.369 97.937C125.369 97.937 125.369 97.937 125.369 97.937ZM221.99 131.346C221.768 131.259 221.646 131.014 221.717 130.782C221.994 129.862 222.248 128.924 222.471 127.994C222.531 127.745 222.781 127.593 223.029 127.653C223.277 127.713 223.429 127.963 223.369 128.211C223.142 129.158 222.883 130.114 222.601 131.049C222.528 131.294 222.269 131.432 222.025 131.359C222.013 131.355 222.001 131.351 221.99 131.346ZM128.343 91.6132C128.324 91.6054 128.305 91.597 128.286 91.5864C128.063 91.462 127.983 91.1805 128.107 90.9569C128.581 90.1031 129.086 89.2528 129.608 88.4292C129.744 88.2134 130.029 88.1493 130.245 88.2859C130.461 88.4225 130.525 88.7086 130.388 88.9243C129.876 89.7334 129.38 90.5688 128.914 91.4068C128.801 91.6115 128.555 91.6962 128.343 91.6132ZM223.546 124.532C223.349 124.454 223.225 124.247 223.259 124.029C223.408 123.081 223.532 122.117 223.626 121.164C223.652 120.91 223.878 120.724 224.132 120.749C224.386 120.775 224.571 121.001 224.546 121.255C224.45 122.226 224.323 123.208 224.171 124.173C224.132 124.425 223.895 124.598 223.643 124.557C223.61 124.553 223.577 124.544 223.546 124.532ZM132.147 85.7515C132.108 85.7365 132.072 85.7164 132.038 85.6902C131.834 85.5363 131.793 85.2463 131.947 85.0422C132.533 84.2621 133.149 83.4887 133.779 82.7438C133.944 82.5486 134.236 82.5246 134.43 82.6897C134.625 82.8547 134.649 83.1469 134.484 83.3421C133.866 84.0737 133.26 84.8331 132.685 85.5993C132.557 85.7688 132.335 85.8257 132.147 85.7515ZM224.158 117.567C223.983 117.499 223.861 117.326 223.865 117.127C223.883 116.171 223.874 115.201 223.837 114.244C223.827 113.989 224.026 113.774 224.281 113.764C224.536 113.754 224.75 113.954 224.76 114.209C224.798 115.183 224.807 116.171 224.789 117.145C224.784 117.401 224.573 117.604 224.318 117.599C224.262 117.598 224.208 117.587 224.158 117.567ZM136.72 80.4659C136.663 80.4436 136.609 80.409 136.563 80.3633C136.382 80.1832 136.381 79.8899 136.561 79.7087C137.249 79.0161 137.967 78.3336 138.694 77.6806C138.884 77.51 139.177 77.5262 139.347 77.7163C139.517 77.9065 139.501 78.1992 139.311 78.3698C138.597 79.0111 137.892 79.6808 137.216 80.3611C137.082 80.496 136.886 80.5312 136.72 80.4659ZM223.812 110.593C223.658 110.533 223.542 110.392 223.521 110.217C223.408 109.266 223.267 108.305 223.1 107.362C223.055 107.111 223.223 106.871 223.474 106.826C223.726 106.781 223.965 106.949 224.01 107.201C224.18 108.162 224.324 109.14 224.439 110.108C224.469 110.362 224.288 110.592 224.035 110.622C223.957 110.631 223.88 110.62 223.812 110.593ZM141.975 75.855C141.899 75.8249 141.83 75.7747 141.776 75.7045C141.621 75.5009 141.661 75.211 141.864 75.056C142.64 74.4643 143.443 73.8866 144.252 73.3396C144.463 73.1963 144.75 73.2526 144.893 73.464C145.035 73.6759 144.98 73.9636 144.769 74.1063C143.974 74.6433 143.186 75.2104 142.424 75.792C142.291 75.894 142.12 75.9119 141.975 75.855ZM222.518 103.727C222.385 103.674 222.278 103.562 222.239 103.412C221.998 102.485 221.728 101.552 221.434 100.64C221.356 100.397 221.49 100.136 221.733 100.058C221.976 99.9796 222.236 100.113 222.314 100.357C222.612 101.286 222.888 102.236 223.133 103.18C223.197 103.427 223.049 103.68 222.803 103.744C222.705 103.769 222.606 103.761 222.518 103.727ZM147.807 72.0058C147.711 71.9684 147.628 71.8993 147.573 71.8028C147.448 71.5804 147.526 71.2982 147.748 71.1722C148.596 70.6915 149.47 70.2293 150.345 69.7971C150.574 69.6839 150.851 69.7781 150.963 70.0079C151.076 70.2371 150.982 70.5148 150.753 70.6274C149.894 71.0517 149.036 71.5056 148.202 71.9779C148.077 72.0493 147.932 72.0549 147.807 72.0058ZM220.305 97.0967C220.192 97.0521 220.097 96.9635 220.047 96.8419C219.682 95.9547 219.287 95.0665 218.874 94.2027C218.763 93.9724 218.86 93.6958 219.091 93.5854C219.321 93.475 219.597 93.5721 219.707 93.8029C220.128 94.6828 220.53 95.5867 220.901 96.49C220.998 96.7265 220.885 96.9969 220.65 97.0939C220.535 97.1408 220.412 97.1385 220.305 97.0967ZM154.104 68.9858C153.989 68.9406 153.892 68.8497 153.843 68.7259C153.748 68.4884 153.864 68.2196 154.101 68.1248C155.007 67.764 155.934 67.4245 156.859 67.115C157.101 67.0341 157.362 67.1652 157.443 67.4072C157.524 67.6497 157.393 67.9118 157.151 67.9927C156.243 68.296 155.332 68.63 154.443 68.9841C154.33 69.0298 154.209 69.027 154.104 68.9858ZM217.216 90.8252C217.122 90.7884 217.04 90.721 216.985 90.6267C216.504 89.797 215.993 88.9701 215.466 88.1699C215.325 87.9563 215.384 87.6697 215.597 87.5286C215.81 87.3881 216.096 87.4467 216.237 87.6602C216.774 88.4755 217.294 89.3175 217.785 90.1623C217.913 90.3831 217.838 90.6663 217.617 90.7946C217.49 90.8687 217.343 90.8754 217.216 90.8252ZM160.748 66.8479C160.613 66.7949 160.505 66.6795 160.468 66.5284C160.407 66.2802 160.558 66.0293 160.805 65.968C161.751 65.7332 162.716 65.523 163.672 65.3423C163.923 65.2949 164.164 65.4605 164.212 65.7115C164.259 65.9624 164.094 66.2044 163.843 66.2518C162.903 66.4291 161.956 66.636 161.027 66.8663C160.931 66.8897 160.834 66.8813 160.748 66.8479ZM213.305 85.0305C213.23 85.0015 213.162 84.9525 213.109 84.8844C212.52 84.1278 211.901 83.3778 211.269 82.6562C211.101 82.4638 211.12 82.1717 211.312 82.0033C211.503 81.8349 211.796 81.8538 211.964 82.0462C212.607 82.7811 213.237 83.5445 213.837 84.3151C213.994 84.5164 213.959 84.8075 213.757 84.9647C213.625 85.069 213.452 85.088 213.305 85.0305ZM167.618 65.6334C167.463 65.5726 167.346 65.4293 167.327 65.2514C167.299 64.9972 167.483 64.7691 167.737 64.7423C168.706 64.6386 169.689 64.5617 170.66 64.5143C170.915 64.5015 171.132 64.6983 171.144 64.9537C171.157 65.2091 170.961 65.426 170.706 65.4388C169.752 65.4856 168.786 65.5615 167.835 65.663C167.759 65.6708 167.685 65.6596 167.618 65.6334ZM208.64 79.8213C208.585 79.7996 208.533 79.7667 208.487 79.7226C207.799 79.0529 207.083 78.3949 206.359 77.7665C206.166 77.5992 206.145 77.307 206.312 77.1136C206.479 76.9201 206.771 76.8994 206.964 77.0667C207.702 77.7068 208.431 78.3771 209.132 79.0585C209.315 79.2364 209.319 79.5297 209.141 79.7131C209.007 79.8509 208.809 79.8877 208.64 79.8213ZM174.585 65.3691C174.408 65.3 174.285 65.1249 174.292 64.9241C174.3 64.6687 174.513 64.468 174.768 64.4758C175.742 64.5059 176.728 64.565 177.699 64.6509C177.953 64.6732 178.141 64.8979 178.119 65.1527C178.097 65.4076 177.872 65.5955 177.618 65.5732C176.664 65.489 175.696 65.431 174.739 65.4014C174.685 65.3992 174.632 65.3881 174.585 65.3691ZM203.308 75.303C203.271 75.2885 203.236 75.2695 203.203 75.245C202.431 74.6779 201.633 74.1253 200.83 73.6028C200.617 73.4634 200.555 73.1768 200.695 72.9627C200.834 72.7486 201.119 72.6872 201.334 72.8266C202.151 73.3586 202.964 73.9212 203.75 74.4989C203.955 74.65 203.999 74.94 203.849 75.1457C203.722 75.3186 203.498 75.3777 203.308 75.303ZM181.529 66.0644C181.33 65.9858 181.206 65.7762 181.243 65.5559C181.286 65.3039 181.524 65.1343 181.776 65.1773C182.736 65.3407 183.704 65.5347 184.655 65.7527C184.904 65.8096 185.059 66.0583 185.002 66.307C184.945 66.5563 184.697 66.7118 184.449 66.6544C183.515 66.4397 182.564 66.2496 181.621 66.089C181.589 66.0845 181.558 66.0762 181.529 66.0644ZM197.412 71.5625C197.395 71.5558 197.377 71.5475 197.361 71.5385C196.52 71.083 195.654 70.6447 194.787 70.2359C194.556 70.1272 194.456 69.8518 194.565 69.6203C194.674 69.3889 194.947 69.2897 195.18 69.3984C196.062 69.8144 196.944 70.2605 197.8 70.7244C198.024 70.846 198.108 71.127 197.986 71.3517C197.875 71.5592 197.627 71.6462 197.412 71.5625ZM188.313 67.7049C188.089 67.6168 187.968 67.3687 188.041 67.1351C188.118 66.8914 188.378 66.7559 188.621 66.8328C189.549 67.1256 190.482 67.449 191.396 67.7947C191.636 67.8845 191.755 68.1521 191.665 68.3914C191.575 68.6306 191.308 68.751 191.069 68.6607C190.172 68.3211 189.255 68.0033 188.343 67.7161C188.333 67.7122 188.323 67.7088 188.313 67.7049Z" fill="url(#paint16_linear_2233_8011)"/>
<path d="M22.941 96.8428H24.0404C24.1968 96.8428 24.3232 96.9693 24.3232 97.126C24.3232 97.2827 24.1963 97.4093 24.0404 97.4093H22.941C22.7846 97.4093 22.6582 97.2827 22.6582 97.126C22.6582 97.048 22.6899 96.9772 22.7411 96.9259C22.7924 96.8746 22.8631 96.8428 22.941 96.8428Z" fill="url(#paint17_linear_2233_8011)"/>
<path d="M27.0478 97.121C27.0489 97.2013 27.0172 97.2738 26.9649 97.3262C26.9137 97.3775 26.843 97.4093 26.765 97.4093H25.6656C25.5092 97.4093 25.3828 97.2822 25.3828 97.126C25.3828 96.9693 25.5092 96.8428 25.6656 96.8428H26.7583C26.9136 96.8428 27.0456 96.9654 27.0478 97.121Z" fill="url(#paint18_linear_2233_8011)"/>
<path d="M25.1359 95.2115V96.3128C25.1359 96.4695 25.009 96.596 24.8531 96.596C24.6967 96.596 24.5703 96.4689 24.5703 96.3128V95.2115C24.5703 95.0548 24.6972 94.9282 24.8531 94.9282C24.931 94.9282 25.0023 94.96 25.0529 95.0113C25.1042 95.0626 25.1359 95.1334 25.1359 95.2115Z" fill="url(#paint19_linear_2233_8011)"/>
<path d="M24.8531 97.6567C25.0095 97.6567 25.1359 97.7839 25.1359 97.94V99.0413C25.1359 99.198 25.009 99.3246 24.8531 99.3246C24.7752 99.3246 24.7045 99.2928 24.6533 99.2415C24.602 99.1902 24.5703 99.1194 24.5703 99.0413V97.94C24.5703 97.7833 24.6967 97.6567 24.8531 97.6567Z" fill="url(#paint20_linear_2233_8011)"/>
<path d="M70.2394 66.3101C69.1038 66.3101 68.1836 67.2318 68.1836 68.3693C68.1836 69.5069 69.1038 70.4286 70.2394 70.4286C71.375 70.4286 72.2951 69.5069 72.2951 68.3693C72.2951 67.2318 71.375 66.3101 70.2394 66.3101ZM70.2394 69.5135C69.6087 69.5135 69.0971 69.0011 69.0971 68.3693C69.0971 67.7375 69.6087 67.2251 70.2394 67.2251C70.8701 67.2251 71.3817 67.737 71.3817 68.3693C71.3817 69.0011 70.8701 69.5135 70.2394 69.5135Z" fill="url(#paint21_linear_2233_8011)"/>
<path d="M38.9073 154.396C37.7717 154.396 36.8516 155.318 36.8516 156.455C36.8516 157.593 37.7717 158.515 38.9073 158.515C40.0429 158.515 40.9631 157.593 40.9631 156.455C40.9631 155.318 40.0429 154.396 38.9073 154.396ZM38.9073 157.599C38.2766 157.599 37.7651 157.086 37.7651 156.455C37.7651 155.823 38.2766 155.31 38.9073 155.31C39.538 155.31 40.0496 155.822 40.0496 156.455C40.0496 157.087 39.538 157.599 38.9073 157.599Z" fill="url(#paint22_linear_2233_8011)"/>
<path d="M101.506 175.827H102.663C102.827 175.827 102.961 175.96 102.961 176.124C102.961 176.289 102.828 176.422 102.663 176.422H101.506C101.342 176.422 101.209 176.289 101.209 176.124C101.209 176.042 101.242 175.968 101.296 175.914C101.35 175.86 101.424 175.827 101.506 175.827Z" fill="url(#paint23_linear_2233_8011)"/>
<path d="M105.826 176.119C105.827 176.204 105.794 176.28 105.739 176.335C105.685 176.389 105.611 176.422 105.528 176.422H104.371C104.207 176.422 104.074 176.289 104.074 176.124C104.074 175.96 104.207 175.827 104.371 175.827H105.521C105.685 175.827 105.823 175.956 105.826 176.119Z" fill="url(#paint24_linear_2233_8011)"/>
<path d="M103.814 174.11V175.268C103.814 175.433 103.681 175.567 103.517 175.567C103.352 175.567 103.219 175.433 103.219 175.268V174.11C103.219 173.946 103.352 173.812 103.516 173.812C103.598 173.812 103.672 173.846 103.726 173.899C103.781 173.954 103.814 174.028 103.814 174.11Z" fill="url(#paint25_linear_2233_8011)"/>
<path d="M103.517 176.682C103.681 176.682 103.814 176.815 103.814 176.98V178.139C103.814 178.303 103.681 178.436 103.517 178.436C103.434 178.436 103.36 178.403 103.306 178.349C103.252 178.295 103.219 178.221 103.219 178.138V176.98C103.219 176.816 103.352 176.682 103.517 176.682Z" fill="url(#paint26_linear_2233_8011)"/>
<path d="M192.904 85.9927C192.055 85.9927 191.367 86.6819 191.367 87.5322C191.367 88.3826 192.055 89.0718 192.904 89.0718C193.753 89.0718 194.441 88.3826 194.441 87.5322C194.441 86.6824 193.753 85.9927 192.904 85.9927ZM192.904 88.3876C192.433 88.3876 192.05 88.0045 192.05 87.5322C192.05 87.0599 192.433 86.6769 192.904 86.6769C193.376 86.6769 193.758 87.0599 193.758 87.5322C193.758 88.0051 193.376 88.3876 192.904 88.3876Z" fill="url(#paint27_linear_2233_8011)"/>
<path d="M198.148 126.109H199.576C199.779 126.109 199.943 126.273 199.943 126.477C199.943 126.68 199.779 126.845 199.576 126.845H198.149C197.946 126.845 197.781 126.68 197.781 126.477C197.781 126.375 197.822 126.283 197.889 126.217C197.955 126.15 198.047 126.109 198.148 126.109Z" fill="url(#paint28_linear_2233_8011)"/>
<path d="M203.48 126.471C203.482 126.575 203.44 126.669 203.372 126.737C203.306 126.804 203.214 126.845 203.113 126.845H201.686C201.483 126.845 201.318 126.68 201.318 126.477C201.318 126.274 201.483 126.109 201.686 126.109H203.104C203.306 126.109 203.477 126.268 203.48 126.471Z" fill="url(#paint29_linear_2233_8011)"/>
<path d="M200.997 123.99V125.42C200.997 125.623 200.832 125.788 200.629 125.788C200.426 125.788 200.262 125.623 200.262 125.42V123.99C200.262 123.787 200.426 123.622 200.629 123.622C200.73 123.622 200.822 123.663 200.889 123.73C200.956 123.796 200.997 123.889 200.997 123.99Z" fill="url(#paint30_linear_2233_8011)"/>
<path d="M200.631 127.165C200.833 127.165 200.998 127.329 200.998 127.533V128.962C200.998 129.165 200.834 129.33 200.631 129.33C200.529 129.33 200.437 129.289 200.371 129.223C200.304 129.156 200.264 129.064 200.264 128.963V127.533C200.263 127.33 200.427 127.165 200.631 127.165Z" fill="url(#paint31_linear_2233_8011)"/>
<path d="M202.221 167.925H203.648C203.851 167.925 204.016 168.09 204.016 168.293C204.016 168.496 203.851 168.661 203.648 168.661H202.221C202.018 168.661 201.854 168.497 201.854 168.293C201.854 168.192 201.895 168.1 201.961 168.033C202.028 167.967 202.12 167.925 202.221 167.925Z" fill="url(#paint32_linear_2233_8011)"/>
<path d="M207.552 168.287C207.554 168.391 207.513 168.486 207.445 168.554C207.378 168.62 207.287 168.661 207.185 168.661H205.758C205.555 168.661 205.391 168.497 205.391 168.293C205.391 168.09 205.555 167.925 205.758 167.925H207.176C207.378 167.926 207.549 168.085 207.552 168.287Z" fill="url(#paint33_linear_2233_8011)"/>
<path d="M205.069 165.807V167.237C205.069 167.44 204.905 167.605 204.701 167.605C204.499 167.605 204.334 167.441 204.334 167.237V165.807C204.334 165.605 204.498 165.439 204.701 165.439C204.803 165.439 204.895 165.481 204.961 165.547C205.028 165.613 205.069 165.705 205.069 165.807Z" fill="url(#paint34_linear_2233_8011)"/>
<path d="M204.703 168.981C204.905 168.981 205.07 169.146 205.07 169.349V170.779C205.07 170.982 204.906 171.147 204.703 171.147C204.601 171.147 204.51 171.106 204.443 171.04C204.377 170.973 204.336 170.881 204.336 170.78V169.35C204.335 169.147 204.5 168.981 204.703 168.981Z" fill="url(#paint35_linear_2233_8011)"/>
<path d="M220.281 64.6904C219.329 64.6904 218.557 65.4638 218.557 66.4174C218.557 67.3709 219.329 68.1443 220.281 68.1443C221.233 68.1443 222.005 67.3709 222.005 66.4174C222.004 65.4633 221.233 64.6904 220.281 64.6904ZM220.281 67.3765C219.752 67.3765 219.323 66.9471 219.323 66.4174C219.323 65.8876 219.751 65.4583 220.281 65.4583C220.809 65.4583 221.238 65.8876 221.238 66.4174C221.238 66.9471 220.809 67.3765 220.281 67.3765Z" fill="url(#paint36_linear_2233_8011)"/>
<path d="M197.188 41.519H198.615C198.818 41.519 198.982 41.6835 198.982 41.8871C198.982 42.09 198.818 42.2551 198.615 42.2551H197.188C196.985 42.2551 196.82 42.0906 196.82 41.8871C196.82 41.7856 196.861 41.6936 196.928 41.6272C196.995 41.5603 197.086 41.519 197.188 41.519Z" fill="url(#paint37_linear_2233_8011)"/>
<path d="M202.519 41.8809C202.521 41.9852 202.479 42.0794 202.412 42.1475C202.345 42.2138 202.253 42.2551 202.152 42.2551H200.725C200.522 42.2551 200.357 42.0906 200.357 41.8871C200.357 41.6841 200.522 41.519 200.725 41.519H202.143C202.345 41.519 202.516 41.6785 202.519 41.8809Z" fill="url(#paint38_linear_2233_8011)"/>
<path d="M200.036 39.4012V40.8309C200.036 41.0339 199.871 41.199 199.668 41.199C199.466 41.199 199.301 41.0345 199.301 40.8309V39.4012C199.301 39.1977 199.466 39.0332 199.668 39.0332C199.77 39.0332 199.861 39.0745 199.928 39.1408C199.994 39.2072 200.036 39.2992 200.036 39.4012Z" fill="url(#paint39_linear_2233_8011)"/>
<path d="M199.67 42.5752C199.872 42.5752 200.037 42.7397 200.037 42.9432V44.3729C200.037 44.5759 199.872 44.741 199.67 44.741C199.568 44.741 199.476 44.6997 199.41 44.6333C199.343 44.567 199.303 44.475 199.303 44.3735V42.9438C199.302 42.7402 199.467 42.5752 199.67 42.5752Z" fill="url(#paint40_linear_2233_8011)"/>
<path d="M212.812 87.2062C211.848 87.2062 210.878 87.122 209.927 86.9563C209.739 86.9234 209.613 86.7439 209.646 86.5549C209.679 86.3658 209.858 86.2398 210.047 86.2727C210.958 86.4316 211.888 86.5125 212.811 86.5125H212.859C212.86 86.5125 212.86 86.5125 212.861 86.5125C213.051 86.5125 213.206 86.667 213.207 86.8582C213.207 87.05 213.053 87.2056 212.862 87.2067L212.812 87.2062ZM216.861 86.6987C216.707 86.6987 216.566 86.5939 216.526 86.4372C216.478 86.2515 216.591 86.0625 216.776 86.0157C217.687 85.7842 218.584 85.4709 219.442 85.0844C219.616 85.0058 219.822 85.0839 219.9 85.259C219.979 85.4341 219.901 85.6393 219.726 85.7179C218.831 86.1205 217.896 86.4473 216.946 86.6887C216.918 86.6954 216.889 86.6987 216.861 86.6987ZM206.126 85.7921C206.08 85.7921 206.032 85.7826 205.987 85.7625C205.088 85.366 204.219 84.8887 203.405 84.3434C203.246 84.2369 203.204 84.0211 203.31 83.8622C203.417 83.7027 203.632 83.6603 203.791 83.7668C204.571 84.2898 205.404 84.7476 206.266 85.1274C206.442 85.2043 206.521 85.4095 206.444 85.5846C206.387 85.7145 206.26 85.7921 206.126 85.7921ZM223.035 83.6581C222.932 83.6581 222.831 83.6123 222.763 83.5254C222.645 83.3748 222.671 83.1562 222.821 83.038C223.562 82.4559 224.255 81.8051 224.882 81.1042C225.009 80.9615 225.229 80.9492 225.371 81.0774C225.514 81.2051 225.526 81.4248 225.398 81.5676C224.744 82.2981 224.021 82.9767 223.249 83.5839C223.186 83.6341 223.11 83.6581 223.035 83.6581ZM200.547 81.7611C200.452 81.7611 200.358 81.7226 200.29 81.6468C199.632 80.9191 199.035 80.1284 198.512 79.2959C198.41 79.1336 198.459 78.9195 198.621 78.8174C198.783 78.7154 198.997 78.7645 199.099 78.9267C199.6 79.7252 200.173 80.4836 200.804 81.1817C200.932 81.3239 200.921 81.543 200.779 81.6719C200.713 81.7315 200.63 81.7611 200.547 81.7611ZM227.442 78.3663C227.387 78.3663 227.332 78.3535 227.281 78.3262C227.112 78.237 227.047 78.0273 227.136 77.8572C227.572 77.0269 227.94 76.1498 228.229 75.2493L228.236 75.2275C228.294 75.0452 228.489 74.9443 228.671 75.0022C228.854 75.0608 228.954 75.256 228.896 75.4383L228.889 75.4606C228.587 76.3996 228.203 77.3147 227.749 78.1801C227.687 78.2994 227.566 78.3663 227.442 78.3663ZM197.088 75.8035C196.943 75.8035 196.807 75.711 196.759 75.5649C196.452 74.6309 196.224 73.6656 196.084 72.6948C196.057 72.5053 196.188 72.329 196.378 72.3017C196.567 72.2744 196.743 72.4054 196.77 72.5956C196.905 73.5262 197.122 74.4524 197.417 75.348C197.477 75.5303 197.378 75.726 197.196 75.7862C197.16 75.798 197.123 75.8035 197.088 75.8035ZM229.322 71.7129C229.315 71.7129 229.307 71.7129 229.299 71.7123C229.108 71.6995 228.963 71.5344 228.976 71.3432C228.999 70.9902 229.011 70.6317 229.011 70.277C229.011 69.691 228.979 69.0988 228.915 68.5161C228.894 68.3254 229.031 68.1542 229.222 68.133C229.411 68.1118 229.583 68.2495 229.604 68.4403C229.671 69.048 229.705 69.6659 229.705 70.277C229.705 70.6467 229.692 71.0209 229.668 71.3889C229.655 71.5724 229.503 71.7129 229.322 71.7129ZM196.343 68.9538C196.331 68.9538 196.319 68.9533 196.307 68.9521C196.117 68.9326 195.978 68.762 195.998 68.5713C196.098 67.5971 196.284 66.6224 196.552 65.6745C196.605 65.4899 196.796 65.3829 196.98 65.4353C197.165 65.4877 197.272 65.6795 197.219 65.8641C196.962 66.7735 196.783 67.7081 196.687 68.6421C196.669 68.8205 196.518 68.9538 196.343 68.9538ZM228.333 64.8938C228.192 64.8938 228.059 64.8068 228.007 64.6669C227.682 63.7836 227.277 62.9227 226.803 62.1086C226.707 61.9429 226.763 61.7305 226.928 61.634C227.093 61.5376 227.306 61.5939 227.402 61.7595C227.896 62.6082 228.318 63.5059 228.658 64.4266C228.724 64.6061 228.632 64.8057 228.453 64.8726C228.413 64.8871 228.373 64.8938 228.333 64.8938ZM198.444 62.3913C198.386 62.3913 198.327 62.3768 198.273 62.3455C198.107 62.2502 198.049 62.0383 198.144 61.8721C198.63 61.019 199.195 60.2032 199.823 59.4487C199.946 59.3015 200.165 59.2815 200.312 59.4041C200.458 59.5268 200.479 59.7459 200.356 59.8932C199.754 60.6169 199.212 61.3982 198.746 62.2167C198.682 62.3288 198.565 62.3913 198.444 62.3913ZM224.665 59.0634C224.574 59.0634 224.484 59.0283 224.416 58.958C223.761 58.2822 223.041 57.6605 222.279 57.1101C222.123 56.998 222.088 56.7811 222.2 56.6255C222.312 56.47 222.529 56.4348 222.684 56.5469C223.48 57.1207 224.229 57.7692 224.914 58.474C225.048 58.6112 225.044 58.8315 224.907 58.9647C224.839 59.0305 224.752 59.0634 224.665 59.0634ZM203.031 57.2545C202.925 57.2545 202.819 57.2055 202.751 57.1123C202.638 56.9573 202.672 56.7404 202.827 56.6272C203.618 56.0479 204.465 55.5343 205.345 55.0999C205.517 55.0152 205.724 55.086 205.809 55.2577C205.893 55.4295 205.823 55.638 205.651 55.7222C204.807 56.1387 203.994 56.6317 203.236 57.1871C203.174 57.2328 203.102 57.2545 203.031 57.2545ZM218.945 55.2354C218.902 55.2354 218.859 55.2276 218.817 55.2109C218.474 55.0743 218.122 54.9471 217.769 54.8334C217.225 54.6583 216.668 54.5105 216.113 54.3934C215.926 54.3538 215.805 54.1698 215.845 53.9825C215.884 53.7951 216.068 53.6747 216.255 53.7142C216.834 53.8358 217.415 53.9903 217.981 54.1726C218.348 54.2908 218.716 54.4235 219.073 54.5657C219.251 54.6365 219.337 54.8384 219.267 55.0168C219.213 55.1523 219.082 55.2354 218.945 55.2354ZM209.305 54.4263C209.145 54.4263 209.002 54.3154 208.966 54.1531C208.925 53.9657 209.044 53.7812 209.231 53.7405C210.19 53.5313 211.173 53.4059 212.151 53.368C212.342 53.3602 212.504 53.5096 212.511 53.7014C212.518 53.8927 212.37 54.0544 212.178 54.0616C211.239 54.0984 210.298 54.2183 209.378 54.4185C209.354 54.4235 209.329 54.4263 209.305 54.4263Z" fill="url(#paint41_linear_2233_8011)"/>
<path d="M34.6445 107.395C34.1279 107.428 33.6035 107.444 33.0852 107.444C32.8754 107.444 32.7056 107.274 32.7056 107.064C32.7056 106.854 32.8754 106.684 33.0852 106.684C33.5879 106.684 34.0967 106.668 34.5971 106.636C35.1059 106.604 35.6203 106.555 36.1257 106.491C36.3339 106.466 36.5238 106.612 36.5499 106.82C36.5761 107.029 36.4291 107.219 36.2209 107.245C35.6993 107.312 35.1694 107.362 34.6445 107.395ZM28.7955 107.066C28.766 107.067 28.736 107.066 28.7054 107.061C28.0875 106.951 27.4645 106.818 26.8539 106.662C26.4514 106.559 26.0467 106.446 25.6515 106.325C25.4511 106.263 25.3381 106.05 25.3999 105.85C25.4611 105.649 25.6737 105.536 25.8741 105.597C26.2577 105.715 26.6501 105.826 27.0409 105.925C27.6332 106.075 28.2378 106.206 28.8373 106.311C29.0438 106.347 29.1819 106.545 29.1451 106.752C29.1145 106.929 28.9664 107.055 28.7955 107.066ZM40.4266 106.329C40.2557 106.34 40.0937 106.233 40.0402 106.062C39.9779 105.861 40.0898 105.648 40.2902 105.586C41.2566 105.285 42.2146 104.921 43.1381 104.501C43.329 104.414 43.5539 104.5 43.6408 104.691C43.7271 104.882 43.6424 105.107 43.4515 105.194C42.4996 105.626 41.5121 106.002 40.5156 106.312C40.4861 106.322 40.4561 106.327 40.4266 106.329ZM21.7726 104.715C21.7069 104.719 21.6396 104.706 21.5767 104.675C20.6454 104.199 19.7352 103.659 18.8713 103.07C18.6981 102.952 18.653 102.716 18.7711 102.542C18.8891 102.368 19.1251 102.323 19.2982 102.441C20.136 103.012 21.0183 103.535 21.9212 103.997C22.1083 104.092 22.1823 104.322 22.0871 104.508C22.0242 104.633 21.9023 104.707 21.7726 104.715ZM47.0927 103.103C46.9635 103.111 46.8333 103.053 46.7548 102.938C46.6368 102.764 46.6813 102.527 46.8544 102.409C47.6917 101.837 48.501 101.206 49.2603 100.535C49.4173 100.397 49.6572 100.412 49.7964 100.569C49.935 100.726 49.92 100.966 49.763 101.106C48.9803 101.798 48.1459 102.448 47.2825 103.037C47.2246 103.078 47.1589 103.099 47.0927 103.103ZM15.7561 100.39C15.6526 100.397 15.5474 100.361 15.4672 100.283C14.7202 99.5541 14.0104 98.7689 13.3586 97.9504C13.2277 97.7864 13.2545 97.5467 13.4187 97.4156C13.5823 97.2846 13.8212 97.3113 13.952 97.4758C14.5849 98.2699 15.2729 99.031 15.9977 99.7392C16.148 99.8858 16.1508 100.127 16.0044 100.277C15.9359 100.347 15.8469 100.385 15.7561 100.39ZM52.5202 98.058C52.4295 98.0636 52.3365 98.0368 52.2597 97.976C52.0955 97.845 52.0687 97.6058 52.1996 97.4418C52.8314 96.6478 53.4192 95.8058 53.9464 94.9398C54.0555 94.7608 54.2893 94.7039 54.468 94.8132C54.6472 94.9225 54.7034 95.1567 54.5943 95.3357C54.0505 96.229 53.4448 97.0972 52.793 97.9164C52.7239 98.0028 52.6237 98.0513 52.5202 98.058ZM11.2816 94.4809C11.1391 94.4898 10.9972 94.4173 10.9243 94.2835C10.4232 93.3651 9.97513 92.4066 9.59159 91.4341C9.51477 91.2389 9.61051 91.0176 9.80535 90.9406C10.0002 90.8637 10.2206 90.959 10.298 91.1547C10.6699 92.0982 11.1046 93.0278 11.5906 93.9183C11.6913 94.1028 11.6234 94.3337 11.4397 94.4346C11.3896 94.4625 11.3356 94.4776 11.2816 94.4809ZM56.2148 91.6293C56.1614 91.6326 56.1063 91.6248 56.0534 91.6036C55.858 91.5272 55.7617 91.307 55.8374 91.1112C56.2042 90.1694 56.5171 89.1914 56.767 88.2044L56.7748 88.1732C56.826 87.9697 57.0325 87.8464 57.2357 87.8977C57.4389 87.949 57.5619 88.1559 57.5107 88.3594L57.5024 88.3918C57.2446 89.4089 56.9223 90.4165 56.5444 91.3878C56.4892 91.53 56.3579 91.6203 56.2148 91.6293ZM8.73543 87.5185C8.5495 87.5303 8.37861 87.4031 8.3402 87.2152C8.13089 86.1897 7.98504 85.1414 7.90544 84.0987C7.8893 83.889 8.04628 83.7067 8.25503 83.6905C8.46434 83.6727 8.64636 83.8316 8.66251 84.0407C8.73933 85.0517 8.88128 86.0682 9.0839 87.0624C9.12565 87.2682 8.99317 87.4689 8.78776 87.5113C8.7705 87.5146 8.75324 87.5174 8.73543 87.5185ZM57.8614 84.3647C57.8442 84.3658 57.8269 84.3658 57.8091 84.3641C57.5998 84.3485 57.4428 84.1662 57.4584 83.9565C57.5336 82.9439 57.5447 81.9173 57.4924 80.9047C57.4818 80.6961 57.6404 80.5188 57.8475 80.5054C57.8492 80.5054 57.8503 80.5054 57.852 80.5054C58.0613 80.4948 58.24 80.656 58.2505 80.8657C58.3045 81.9101 58.2923 82.969 58.2155 84.0128C58.2015 84.2052 58.0479 84.353 57.8614 84.3647ZM8.36024 80.1123C8.33964 80.1134 8.31904 80.1134 8.29845 80.1112C8.0897 80.0906 7.93773 79.9038 7.95832 79.6952C8.06186 78.6575 8.2322 77.6125 8.46433 76.5893C8.51054 76.3847 8.71428 76.2564 8.91858 76.3027C9.12287 76.349 9.25091 76.5531 9.2047 76.7577C8.97981 77.7503 8.81448 78.764 8.71428 79.7705C8.6948 79.9584 8.54227 80.1012 8.36024 80.1123ZM57.2936 76.9707C57.1116 76.9824 56.9429 76.8603 56.9006 76.6769C56.6729 75.6893 56.3801 74.7057 56.0311 73.7527C55.9587 73.5554 56.0601 73.3373 56.2566 73.2648C56.4536 73.1923 56.6713 73.2938 56.7436 73.4907C57.1038 74.4732 57.4055 75.4875 57.6404 76.5057C57.6877 76.7103 57.5603 76.9144 57.356 76.9618C57.3348 76.9663 57.3142 76.9696 57.2936 76.9707ZM10.1761 72.923C10.1199 72.9264 10.062 72.9174 10.0063 72.894C9.81258 72.8132 9.72185 72.5901 9.80257 72.3966C10.2062 71.4297 10.6749 70.4796 11.1953 69.5729C11.3 69.3905 11.5321 69.3281 11.7136 69.4329C11.8956 69.5377 11.958 69.7703 11.8533 69.9521C11.349 70.8314 10.8942 71.7526 10.5029 72.6905C10.445 72.8277 10.3158 72.9141 10.1761 72.923ZM54.5721 70.0753C54.4329 70.0842 54.2943 70.0156 54.2197 69.8863C53.7115 69.008 53.1431 68.1532 52.5308 67.3452C52.4038 67.1779 52.4367 66.9393 52.6037 66.8121C52.7707 66.685 53.0089 66.7179 53.1359 66.8852C53.7671 67.7183 54.3533 68.5993 54.8771 69.5043C54.9823 69.6861 54.9205 69.9186 54.7391 70.024C54.6862 70.0552 54.6289 70.0719 54.5721 70.0753ZM14.0271 66.5857C13.9336 66.5919 13.8373 66.5629 13.7594 66.4976C13.5985 66.3627 13.5773 66.1229 13.712 65.9618C14.3823 65.1605 15.1104 64.3927 15.8769 63.68C16.0306 63.5373 16.2711 63.5462 16.4136 63.7001C16.5561 63.854 16.5472 64.0943 16.3935 64.2376C15.6504 64.9291 14.944 65.6735 14.2938 66.4508C14.2247 66.5333 14.1273 66.5791 14.0271 66.5857ZM49.9484 64.2822C49.8482 64.2884 49.7458 64.2555 49.6667 64.1819C48.923 63.4915 48.1281 62.8419 47.3053 62.2514C47.135 62.1293 47.0955 61.8918 47.2179 61.7206C47.3398 61.5499 47.577 61.5104 47.7479 61.633C48.5962 62.2419 49.4157 62.9122 50.1827 63.6237C50.3364 63.7665 50.3458 64.0073 50.2033 64.1612C50.1343 64.2354 50.0425 64.2761 49.9484 64.2822ZM19.576 61.6737C19.4435 61.6821 19.3105 61.6202 19.2331 61.5009C19.119 61.3247 19.1696 61.0893 19.3455 60.975C20.2223 60.4063 21.143 59.8871 22.0827 59.4316C22.2714 59.3401 22.4985 59.4193 22.5898 59.6083C22.6811 59.7974 22.602 60.0249 22.4133 60.1163C21.5015 60.5585 20.6086 61.062 19.758 61.6135C19.7018 61.6503 19.6389 61.6698 19.576 61.6737ZM43.8223 60.1146C43.7599 60.1185 43.6953 60.1068 43.6352 60.0778C42.7234 59.6412 41.7732 59.257 40.8096 58.9359C40.6108 58.8695 40.5028 58.6543 40.5691 58.4546C40.6353 58.2556 40.8502 58.1474 41.0495 58.2137C42.0426 58.545 43.0229 58.9409 43.9625 59.3914C44.1518 59.4817 44.232 59.7093 44.1412 59.8983C44.08 60.0277 43.9553 60.1063 43.8223 60.1146ZM26.3173 58.6102C26.143 58.6214 25.9782 58.5098 25.9287 58.3342C25.8714 58.1323 25.9883 57.9215 26.1903 57.8647C27.1957 57.5786 28.2277 57.3539 29.2587 57.1961C29.4658 57.1638 29.6595 57.3071 29.6912 57.5145C29.7229 57.7219 29.5804 57.916 29.3734 57.9478C28.3736 58.1011 27.3721 58.3191 26.3974 58.5963C26.3707 58.6041 26.344 58.6085 26.3173 58.6102ZM36.7437 57.9433C36.7175 57.945 36.6902 57.9439 36.6629 57.94C35.6598 57.7888 34.6383 57.7002 33.6274 57.6756C33.4176 57.6706 33.2522 57.4961 33.2572 57.2864C33.2622 57.0762 33.4365 56.9112 33.6458 56.9156C34.6884 56.9407 35.7411 57.0327 36.7759 57.1883C36.983 57.2195 37.1261 57.413 37.0949 57.621C37.0676 57.8011 36.9184 57.9327 36.7437 57.9433Z" fill="url(#paint42_linear_2233_8011)"/>
<path d="M54.0209 71.2261V143.473L34.2158 151.472L30.623 152.923V80.6737L46.5154 74.2567L54.0209 71.2261Z" fill="url(#paint43_linear_2233_8011)"/>
<path d="M113.439 79.2226V151.471L136.837 142.022V69.7744L113.439 79.2226Z" fill="#739CD2"/>
<path d="M113.439 79.2246V88.0466V142.65V151.472L133.245 143.472V134.651V80.0471V71.2251L113.439 79.2246Z" fill="url(#paint44_linear_2233_8011)"/>
<path d="M93.6309 71.2251V80.0471V134.651V143.472L113.436 151.472V142.65V88.0466V79.2246L93.6309 71.2251Z" fill="url(#paint45_linear_2233_8011)"/>
<path d="M73.8281 79.2251V88.0471V142.651V151.472L93.6333 143.473V134.651V80.0476V71.2256L73.8281 79.2251Z" fill="url(#paint46_linear_2233_8011)"/>
<path d="M54.0195 71.2251V80.0471V134.651V143.472L73.8247 151.472V142.65V88.0466V79.2246L54.0195 71.2251Z" fill="url(#paint47_linear_2233_8011)"/>
<path d="M34.2168 79.2251V88.0471V142.651V151.472L54.022 143.473V134.651V80.0476V71.2256L34.2168 79.2251Z" fill="url(#paint48_linear_2233_8011)"/>
<path d="M34.2168 83.6362L54.022 75.6367V139.062L34.2168 147.061V83.6362Z" fill="#0B4644"/>
<path d="M73.8247 83.6367L54.0195 75.6372V139.062L73.8247 147.062V83.6367Z" fill="#FFDF9F"/>
<path d="M93.6333 75.6362L73.8281 83.6358V147.061L93.6333 139.061V75.6362Z" fill="#0B4644"/>
<path d="M113.436 83.6367L93.6309 75.6372V139.062L113.436 147.062V83.6367Z" fill="#FFDF9F"/>
<path d="M133.244 75.6367L113.439 83.6362V147.061L133.244 139.062V75.6367Z" fill="#0B4644"/>
<g opacity="0.2">
<path d="M113.436 83.6367L93.6309 75.6372V139.062L113.436 147.062V83.6367Z" fill="#FFDF9F"/>
</g>
<g opacity="0.2">
<path d="M73.8247 83.6367L54.0195 75.6372V139.062L73.8247 147.062V83.6367Z" fill="#FFDF9F"/>
</g>
<path d="M82.0848 119.658C80.0652 119.658 78.4219 118.012 78.4219 115.989C78.4219 113.966 80.0652 112.32 82.0848 112.32C84.1043 112.32 85.7476 113.966 85.7476 115.989C85.7482 118.012 84.1049 119.658 82.0848 119.658ZM82.0848 113.722C80.8367 113.722 79.8219 114.739 79.8219 115.989C79.8219 117.239 80.8373 118.256 82.0848 118.256C83.3328 118.256 84.3476 117.239 84.3476 115.989C84.3482 114.739 83.3328 113.722 82.0848 113.722Z" fill="url(#paint49_linear_2233_8011)"/>
<path d="M82.0837 117.687C81.1491 117.687 80.3887 116.925 80.3887 115.989C80.3887 115.053 81.1491 114.291 82.0837 114.291C83.0184 114.291 83.7788 115.053 83.7788 115.989C83.7788 116.925 83.0184 117.687 82.0837 117.687ZM82.0837 115.226C81.664 115.226 81.3222 115.569 81.3222 115.989C81.3222 116.409 81.664 116.752 82.0837 116.752C82.5035 116.752 82.8453 116.409 82.8453 115.989C82.8453 115.569 82.504 115.226 82.0837 115.226Z" fill="url(#paint50_linear_2233_8011)"/>
<path d="M124.332 139.955L130.451 137.483V135.127L124.332 137.541V139.955Z" fill="url(#paint51_linear_2233_8011)"/>
<path d="M124.332 136.337L130.451 133.866V131.51L124.332 133.923V136.337Z" fill="url(#paint52_linear_2233_8011)"/>
<path d="M124.332 132.722L130.451 130.251V127.895L124.332 130.308V132.722Z" fill="url(#paint53_linear_2233_8011)"/>
<g opacity="0.2">
<path d="M49.061 81.7635C49.061 88.5686 43.5528 94.0862 36.7586 94.0862C35.8869 94.0862 35.0363 93.9953 34.2163 93.8224C32.9338 93.5531 31.7247 93.0825 30.623 92.4462V80.6739L46.5154 74.2563C46.5159 74.2569 46.5159 74.2569 46.5159 74.2575C48.1119 76.3357 49.061 78.9386 49.061 81.7635Z" fill="#FFDF9F"/>
</g>
<path d="M47.4487 81.0551C47.4487 87.4024 42.3112 92.5486 35.9741 92.5486C29.6369 92.5486 24.5 87.4024 24.5 81.0551C24.5 75.5877 28.3104 71.0119 33.4167 69.8482C34.2395 69.6603 35.0951 69.561 35.9746 69.561C36.8541 69.561 37.7103 69.6603 38.5325 69.8482C43.6377 71.0119 47.4487 75.5883 47.4487 81.0551Z" fill="url(#paint54_linear_2233_8011)"/>
<path d="M41.7475 86.8417C44.9382 83.6456 44.9382 78.4638 41.7475 75.2677C38.5569 72.0717 33.3838 72.0717 30.1932 75.2677C27.0025 78.4638 27.0025 83.6456 30.1932 86.8417C33.3838 90.0377 38.5569 90.0377 41.7475 86.8417Z" fill="#013C3A"/>
<path d="M38.9938 74.7393L34.2031 80.1782L37.5866 81.8544L38.9938 74.7393Z" fill="url(#paint55_linear_2233_8011)"/>
<path d="M37.5856 81.8544L32.7949 87.2934L34.2022 80.1782" fill="#BA9B68"/>
<path d="M35.6902 70.4656L36.4 71.5412V70.4555C36.4 70.3853 36.415 70.3323 36.4456 70.2966C36.4757 70.2615 36.5169 70.2437 36.5681 70.2437C36.621 70.2437 36.6627 70.2615 36.6934 70.2966C36.724 70.3318 36.7396 70.3847 36.7396 70.4555V71.8908C36.7396 72.0509 36.6733 72.1312 36.5408 72.1312C36.5074 72.1312 36.4779 72.1262 36.4512 72.1167C36.4245 72.1072 36.4 72.0921 36.3766 72.0715C36.3532 72.0509 36.3321 72.0263 36.312 71.9985C36.292 71.9706 36.2725 71.9421 36.2525 71.9131L35.56 70.8498V71.9193C35.56 71.989 35.5438 72.042 35.5115 72.0776C35.4793 72.1133 35.4381 72.1312 35.3874 72.1312C35.3351 72.1312 35.2933 72.1133 35.2622 72.0771C35.2304 72.0408 35.2148 71.9884 35.2148 71.9198V70.5119C35.2148 70.4522 35.2215 70.4054 35.2349 70.3713C35.2505 70.334 35.2766 70.3033 35.3134 70.2799C35.3496 70.2565 35.3891 70.2442 35.4314 70.2442C35.4648 70.2442 35.4932 70.2498 35.5166 70.2604C35.5399 70.271 35.5611 70.2855 35.5789 70.3039C35.5967 70.3223 35.6151 70.3457 35.6335 70.3747C35.6513 70.4037 35.6702 70.4338 35.6902 70.4656Z" fill="white"/>
<path d="M35.2383 90.5564C35.2383 90.446 35.2667 90.3468 35.3235 90.2586C35.3802 90.1705 35.4632 90.102 35.5728 90.0518C35.6819 90.0021 35.8116 89.9771 35.962 89.9771C36.1418 89.9771 36.2898 90.0111 36.4067 90.0791C36.4897 90.1282 36.557 90.1934 36.6088 90.2754C36.6606 90.3573 36.6867 90.4365 36.6867 90.514C36.6867 90.5586 36.6711 90.5971 36.64 90.6295C36.6088 90.6612 36.5693 90.6774 36.5214 90.6774C36.4824 90.6774 36.4496 90.6651 36.4229 90.6401C36.3962 90.615 36.3728 90.5782 36.3538 90.5291C36.3305 90.4711 36.3054 90.4226 36.2787 90.3836C36.252 90.3445 36.2141 90.3122 36.1651 90.2871C36.1161 90.262 36.0521 90.2492 35.9725 90.2492C35.8634 90.2492 35.7744 90.2748 35.7059 90.3256C35.6374 90.3769 35.6035 90.4404 35.6035 90.5168C35.6035 90.5776 35.6218 90.6267 35.6586 90.6646C35.6953 90.7025 35.7432 90.7309 35.8016 90.751C35.8601 90.7711 35.938 90.7923 36.036 90.8146C36.1668 90.8453 36.2765 90.8809 36.365 90.9222C36.4535 90.9635 36.5231 91.0192 36.5748 91.0901C36.6266 91.1609 36.6528 91.249 36.6528 91.3544C36.6528 91.4547 36.6255 91.5439 36.5709 91.622C36.5164 91.7001 36.4373 91.7597 36.3338 91.8021C36.2303 91.8439 36.1084 91.8651 35.9686 91.8651C35.8567 91.8651 35.7599 91.8512 35.6786 91.8233C35.5968 91.7954 35.5294 91.7586 35.4754 91.7123C35.4214 91.6661 35.3825 91.6181 35.3574 91.5674C35.3324 91.5166 35.3201 91.4676 35.3201 91.419C35.3201 91.375 35.3357 91.3354 35.3669 91.3003C35.398 91.2651 35.4365 91.2473 35.4832 91.2473C35.5255 91.2473 35.5578 91.2579 35.5795 91.2791C35.6012 91.3003 35.6252 91.3348 35.6508 91.3828C35.6842 91.4519 35.7237 91.5055 35.7699 91.5439C35.8161 91.5824 35.8907 91.6019 35.9937 91.6019C36.0889 91.6019 36.1657 91.5807 36.2241 91.5389C36.2826 91.4971 36.3115 91.4464 36.3115 91.3878C36.3115 91.351 36.3015 91.3198 36.2815 91.293C36.2614 91.2663 36.2342 91.2434 36.1996 91.2244C36.1651 91.2055 36.1295 91.1904 36.0939 91.1798C36.0583 91.1692 35.9992 91.1531 35.9174 91.1324C35.8144 91.1084 35.7215 91.0817 35.6385 91.0527C35.555 91.0237 35.4843 90.9886 35.4259 90.9467C35.3674 90.9055 35.3218 90.8525 35.2889 90.7895C35.255 90.7265 35.2383 90.6484 35.2383 90.5564Z" fill="white"/>
<path d="M26.877 80.7111L25.7848 81.0061L26.877 81.305C26.96 81.3284 27.0195 81.3468 27.0551 81.3602C27.0913 81.3741 27.1236 81.3975 27.152 81.4316C27.1804 81.4656 27.1949 81.5107 27.1949 81.5671C27.1949 81.6128 27.1865 81.6501 27.1693 81.6797C27.1526 81.7093 27.1281 81.7332 27.0975 81.7511C27.0663 81.7695 27.0295 81.7845 26.9867 81.7957C26.9438 81.8074 26.9043 81.8174 26.8681 81.8269L25.6412 82.1308C25.57 82.1492 25.5154 82.1581 25.4787 82.1581C25.4313 82.1581 25.3918 82.1414 25.3595 82.1085C25.3272 82.075 25.3111 82.0343 25.3111 81.9853C25.3111 81.9178 25.3328 81.8726 25.3757 81.8498C25.4185 81.8264 25.4814 81.8063 25.5633 81.789L26.6271 81.5498L25.6317 81.2821C25.5555 81.262 25.4976 81.2442 25.4575 81.2286C25.418 81.213 25.3835 81.1873 25.3545 81.1516C25.3256 81.116 25.3111 81.0674 25.3111 81.0061C25.3111 80.9437 25.3261 80.8957 25.3562 80.8611C25.3863 80.8266 25.4197 80.8026 25.4547 80.7897C25.4903 80.7764 25.5494 80.7585 25.6312 80.7362L26.6265 80.4663L25.5627 80.2271C25.5071 80.2154 25.4636 80.2043 25.4325 80.1942C25.4007 80.1836 25.3729 80.1658 25.3478 80.1407C25.3228 80.1156 25.3105 80.0788 25.3105 80.0303C25.3105 79.9823 25.3267 79.9411 25.3584 79.9076C25.3901 79.8742 25.4302 79.8574 25.4781 79.8574C25.5121 79.8574 25.5666 79.8663 25.6406 79.8847L26.8675 80.1886C26.9505 80.2093 27.0112 80.2266 27.0496 80.2405C27.088 80.2544 27.1219 80.2773 27.1509 80.3102C27.1798 80.3431 27.1943 80.3894 27.1943 80.449C27.1943 80.5054 27.1804 80.5505 27.152 80.5845C27.1236 80.6186 27.0919 80.642 27.0568 80.6554C27.0217 80.6687 26.9627 80.6871 26.877 80.7111Z" fill="white"/>
<path d="M46.3486 81.5597V80.7266H45.9011V81.4933C45.9011 81.5497 45.8883 81.592 45.8632 81.6199C45.8382 81.6478 45.8048 81.6617 45.763 81.6617C45.7218 81.6617 45.6879 81.6478 45.6617 81.6205C45.6355 81.5932 45.6227 81.5508 45.6227 81.4933V80.7266H45.1045V81.5881C45.1045 81.6461 45.0911 81.6902 45.0638 81.7197C45.0371 81.7493 45.0009 81.7638 44.9564 81.7638C44.9135 81.7638 44.8785 81.7493 44.8512 81.7197C44.8245 81.6902 44.8105 81.6467 44.8105 81.5881V80.5833C44.8105 80.503 44.8284 80.445 44.864 80.4099C44.8996 80.3748 44.9569 80.3569 45.0366 80.3569H46.406C46.4588 80.3569 46.5023 80.3647 46.5357 80.3804C46.5691 80.396 46.5936 80.4211 46.6091 80.4545C46.6247 80.488 46.632 80.5309 46.632 80.5833V81.5592C46.632 81.6183 46.6192 81.6618 46.593 81.6907C46.5668 81.7192 46.5329 81.7337 46.4906 81.7337C46.4477 81.7337 46.4126 81.7192 46.387 81.6907C46.362 81.6623 46.3486 81.6188 46.3486 81.5597Z" fill="white"/>
<path d="M188.47 55.0976V164.639C188.47 167.286 186.553 169.484 184.035 169.918V169.937H183.932C183.667 169.978 183.395 169.998 183.12 169.998H125.288C125.012 169.998 124.741 169.977 124.476 169.937H124.373V169.918C121.854 169.484 119.938 167.286 119.938 164.639L119.938 55.0976C119.938 52.1372 122.333 49.7378 125.288 49.7378H183.12C186.075 49.7384 188.47 52.1378 188.47 55.0976Z" fill="url(#paint56_linear_2233_8011)"/>
<g opacity="0.3">
<path d="M188.467 82.4526V164.639C188.467 167.286 186.55 169.483 184.032 169.918V169.937H183.929C183.664 169.977 183.392 169.998 183.116 169.998H142.145C175.4 160.772 185.438 111.521 188.467 82.4526Z" fill="url(#paint57_linear_2233_8011)"/>
</g>
<path d="M184.553 56.2879V153.122C184.553 154.447 183.48 155.521 182.158 155.521H126.24C124.918 155.521 123.846 154.447 123.846 153.122V56.2879C123.846 54.9636 124.918 53.8896 126.24 53.8896H182.158C183.48 53.8902 184.553 54.9642 184.553 56.2879Z" fill="#013C3A"/>
<path d="M174.744 53.8896L123.846 104.874V86.994L156.893 53.8896H174.744Z" fill="#0B4644"/>
<path d="M184.552 79.4297V119.361L148.454 155.52H126.24C124.918 155.52 123.846 154.446 123.846 153.121V140.228L184.552 79.4297Z" fill="#0B4644"/>
<path d="M184.553 125.027V135.932L164.998 155.521H154.111L184.553 125.027Z" fill="#0B4644"/>
<path d="M163.155 57.954C163.155 58.2724 163.026 58.5607 162.818 58.7692C162.61 58.9778 162.322 59.1071 162.004 59.1071H146.397C145.761 59.1071 145.246 58.5908 145.246 57.954C145.246 57.6356 145.375 57.3473 145.583 57.1382C145.792 56.9297 146.079 56.8003 146.398 56.8003H162.005C162.64 56.8003 163.155 57.3166 163.155 57.954Z" fill="#FFDF9F"/>
<path d="M163.154 57.9549C163.154 58.2733 163.025 58.5616 162.817 58.7701C162.609 58.9787 162.321 59.108 162.003 59.108H149.26C156.908 58.9246 158.326 56.8018 158.326 56.8018H162.003C162.639 56.8012 163.154 57.3175 163.154 57.9549Z" fill="#AA905C"/>
<path d="M154.198 85.4419C145.346 85.4419 138.17 92.6301 138.17 101.497C138.17 104.006 138.744 106.38 139.769 108.495C143.787 118.254 154.198 130.931 154.198 130.931C154.198 130.931 164.609 118.254 168.627 108.495C169.652 106.38 170.226 104.006 170.226 101.497C170.227 92.6301 163.051 85.4419 154.198 85.4419ZM154.198 109.836C149.601 109.836 145.874 106.103 145.874 101.497C145.874 96.8919 149.601 93.1587 154.198 93.1587C158.796 93.1587 162.522 96.8919 162.522 101.497C162.522 106.103 158.796 109.836 154.198 109.836Z" fill="url(#paint58_linear_2233_8011)"/>
<defs>
<linearGradient id="paint0_linear_2233_8011" x1="52.7461" y1="144.681" x2="50.2815" y2="144.592" gradientUnits="userSpaceOnUse">
<stop stop-color="#AA905C"/>
<stop offset="1" stop-color="#FFDF9F"/>
</linearGradient>
<linearGradient id="paint1_linear_2233_8011" x1="50.381" y1="163.888" x2="48.2533" y2="163.832" gradientUnits="userSpaceOnUse">
<stop stop-color="#AA905C"/>
<stop offset="1" stop-color="#FFDF9F"/>
</linearGradient>
<linearGradient id="paint2_linear_2233_8011" x1="54.9378" y1="166.782" x2="52.271" y2="166.654" gradientUnits="userSpaceOnUse">
<stop stop-color="#AA905C"/>
<stop offset="1" stop-color="#FFDF9F"/>
</linearGradient>
<linearGradient id="paint3_linear_2233_8011" x1="57.8302" y1="142.199" x2="55.0185" y2="141.996" gradientUnits="userSpaceOnUse">
<stop stop-color="#AA905C"/>
<stop offset="1" stop-color="#FFDF9F"/>
</linearGradient>
<linearGradient id="paint4_linear_2233_8011" x1="47.3812" y1="159.4" x2="46.0379" y2="159.382" gradientUnits="userSpaceOnUse">
<stop stop-color="#AA905C"/>
<stop offset="1" stop-color="#FFDF9F"/>
</linearGradient>
<linearGradient id="paint5_linear_2233_8011" x1="46.6884" y1="154.095" x2="45.7442" y2="154.086" gradientUnits="userSpaceOnUse">
<stop stop-color="#AA905C"/>
<stop offset="1" stop-color="#FFDF9F"/>
</linearGradient>
<linearGradient id="paint6_linear_2233_8011" x1="48.8022" y1="148.888" x2="47.0033" y2="148.851" gradientUnits="userSpaceOnUse">
<stop stop-color="#AA905C"/>
<stop offset="1" stop-color="#FFDF9F"/>
</linearGradient>
<linearGradient id="paint7_linear_2233_8011" x1="71.0944" y1="149.129" x2="69.3337" y2="149.094" gradientUnits="userSpaceOnUse">
<stop stop-color="#AA905C"/>
<stop offset="1" stop-color="#FFDF9F"/>
</linearGradient>
<linearGradient id="paint8_linear_2233_8011" x1="60.2581" y1="167.618" x2="57.4221" y2="167.308" gradientUnits="userSpaceOnUse">
<stop stop-color="#AA905C"/>
<stop offset="1" stop-color="#FFDF9F"/>
</linearGradient>
<linearGradient id="paint9_linear_2233_8011" x1="69.5442" y1="164.085" x2="67.3781" y2="164.026" gradientUnits="userSpaceOnUse">
<stop stop-color="#AA905C"/>
<stop offset="1" stop-color="#FFDF9F"/>
</linearGradient>
<linearGradient id="paint10_linear_2233_8011" x1="72.2923" y1="154.361" x2="71.3949" y2="154.353" gradientUnits="userSpaceOnUse">
<stop stop-color="#AA905C"/>
<stop offset="1" stop-color="#FFDF9F"/>
</linearGradient>
<linearGradient id="paint11_linear_2233_8011" x1="71.9059" y1="159.664" x2="70.5161" y2="159.644" gradientUnits="userSpaceOnUse">
<stop stop-color="#AA905C"/>
<stop offset="1" stop-color="#FFDF9F"/>
</linearGradient>
<linearGradient id="paint12_linear_2233_8011" x1="63.1827" y1="142.275" x2="60.3787" y2="142.081" gradientUnits="userSpaceOnUse">
<stop stop-color="#AA905C"/>
<stop offset="1" stop-color="#FFDF9F"/>
</linearGradient>
<linearGradient id="paint13_linear_2233_8011" x1="67.8749" y1="144.851" x2="65.4378" y2="144.766" gradientUnits="userSpaceOnUse">
<stop stop-color="#AA905C"/>
<stop offset="1" stop-color="#FFDF9F"/>
</linearGradient>
<linearGradient id="paint14_linear_2233_8011" x1="65.4236" y1="166.88" x2="62.7401" y2="166.747" gradientUnits="userSpaceOnUse">
<stop stop-color="#AA905C"/>
<stop offset="1" stop-color="#FFDF9F"/>
</linearGradient>
<linearGradient id="paint15_linear_2233_8011" x1="82.0162" y1="127.326" x2="33.9537" y2="125.948" gradientUnits="userSpaceOnUse">
<stop stop-color="#AA905C"/>
<stop offset="1" stop-color="#FFDF9F"/>
</linearGradient>
<linearGradient id="paint16_linear_2233_8011" x1="220.541" y1="158.157" x2="121.154" y2="155.315" gradientUnits="userSpaceOnUse">
<stop stop-color="#AA905C"/>
<stop offset="1" stop-color="#FFDF9F"/>
</linearGradient>
<linearGradient id="paint17_linear_2233_8011" x1="24.2543" y1="97.3562" x2="22.6562" y2="97.2213" gradientUnits="userSpaceOnUse">
<stop stop-color="#AA905C"/>
<stop offset="1" stop-color="#FFDF9F"/>
</linearGradient>
<linearGradient id="paint18_linear_2233_8011" x1="26.979" y1="97.3562" x2="25.3808" y2="97.2213" gradientUnits="userSpaceOnUse">
<stop stop-color="#AA905C"/>
<stop offset="1" stop-color="#FFDF9F"/>
</linearGradient>
<linearGradient id="paint19_linear_2233_8011" x1="25.1125" y1="96.4397" x2="24.5658" y2="96.4344" gradientUnits="userSpaceOnUse">
<stop stop-color="#AA905C"/>
<stop offset="1" stop-color="#FFDF9F"/>
</linearGradient>
<linearGradient id="paint20_linear_2233_8011" x1="25.1125" y1="99.1682" x2="24.5658" y2="99.1629" gradientUnits="userSpaceOnUse">
<stop stop-color="#AA905C"/>
<stop offset="1" stop-color="#FFDF9F"/>
</linearGradient>
<linearGradient id="paint21_linear_2233_8011" x1="72.1251" y1="70.0425" x2="68.1538" y2="69.9286" gradientUnits="userSpaceOnUse">
<stop stop-color="#AA905C"/>
<stop offset="1" stop-color="#FFDF9F"/>
</linearGradient>
<linearGradient id="paint22_linear_2233_8011" x1="40.793" y1="158.128" x2="36.8218" y2="158.015" gradientUnits="userSpaceOnUse">
<stop stop-color="#AA905C"/>
<stop offset="1" stop-color="#FFDF9F"/>
</linearGradient>
<linearGradient id="paint23_linear_2233_8011" x1="102.888" y1="176.366" x2="101.207" y2="176.224" gradientUnits="userSpaceOnUse">
<stop stop-color="#AA905C"/>
<stop offset="1" stop-color="#FFDF9F"/>
</linearGradient>
<linearGradient id="paint24_linear_2233_8011" x1="105.754" y1="176.366" x2="104.072" y2="176.224" gradientUnits="userSpaceOnUse">
<stop stop-color="#AA905C"/>
<stop offset="1" stop-color="#FFDF9F"/>
</linearGradient>
<linearGradient id="paint25_linear_2233_8011" x1="103.79" y1="175.402" x2="103.214" y2="175.397" gradientUnits="userSpaceOnUse">
<stop stop-color="#AA905C"/>
<stop offset="1" stop-color="#FFDF9F"/>
</linearGradient>
<linearGradient id="paint26_linear_2233_8011" x1="103.79" y1="178.272" x2="103.214" y2="178.266" gradientUnits="userSpaceOnUse">
<stop stop-color="#AA905C"/>
<stop offset="1" stop-color="#FFDF9F"/>
</linearGradient>
<linearGradient id="paint27_linear_2233_8011" x1="194.314" y1="88.7831" x2="191.345" y2="88.698" gradientUnits="userSpaceOnUse">
<stop stop-color="#AA905C"/>
<stop offset="1" stop-color="#FFDF9F"/>
</linearGradient>
<linearGradient id="paint28_linear_2233_8011" x1="199.854" y1="126.776" x2="197.779" y2="126.601" gradientUnits="userSpaceOnUse">
<stop stop-color="#AA905C"/>
<stop offset="1" stop-color="#FFDF9F"/>
</linearGradient>
<linearGradient id="paint29_linear_2233_8011" x1="203.391" y1="126.776" x2="201.316" y2="126.601" gradientUnits="userSpaceOnUse">
<stop stop-color="#AA905C"/>
<stop offset="1" stop-color="#FFDF9F"/>
</linearGradient>
<linearGradient id="paint30_linear_2233_8011" x1="200.966" y1="125.585" x2="200.256" y2="125.578" gradientUnits="userSpaceOnUse">
<stop stop-color="#AA905C"/>
<stop offset="1" stop-color="#FFDF9F"/>
</linearGradient>
<linearGradient id="paint31_linear_2233_8011" x1="200.968" y1="129.127" x2="200.258" y2="129.12" gradientUnits="userSpaceOnUse">
<stop stop-color="#AA905C"/>
<stop offset="1" stop-color="#FFDF9F"/>
</linearGradient>
<linearGradient id="paint32_linear_2233_8011" x1="203.926" y1="168.592" x2="201.851" y2="168.417" gradientUnits="userSpaceOnUse">
<stop stop-color="#AA905C"/>
<stop offset="1" stop-color="#FFDF9F"/>
</linearGradient>
<linearGradient id="paint33_linear_2233_8011" x1="207.463" y1="168.592" x2="205.388" y2="168.417" gradientUnits="userSpaceOnUse">
<stop stop-color="#AA905C"/>
<stop offset="1" stop-color="#FFDF9F"/>
</linearGradient>
<linearGradient id="paint34_linear_2233_8011" x1="205.038" y1="167.402" x2="204.328" y2="167.395" gradientUnits="userSpaceOnUse">
<stop stop-color="#AA905C"/>
<stop offset="1" stop-color="#FFDF9F"/>
</linearGradient>
<linearGradient id="paint35_linear_2233_8011" x1="205.04" y1="170.944" x2="204.33" y2="170.937" gradientUnits="userSpaceOnUse">
<stop stop-color="#AA905C"/>
<stop offset="1" stop-color="#FFDF9F"/>
</linearGradient>
<linearGradient id="paint36_linear_2233_8011" x1="221.862" y1="67.8205" x2="218.532" y2="67.725" gradientUnits="userSpaceOnUse">
<stop stop-color="#AA905C"/>
<stop offset="1" stop-color="#FFDF9F"/>
</linearGradient>
<linearGradient id="paint37_linear_2233_8011" x1="198.893" y1="42.1861" x2="196.818" y2="42.011" gradientUnits="userSpaceOnUse">
<stop stop-color="#AA905C"/>
<stop offset="1" stop-color="#FFDF9F"/>
</linearGradient>
<linearGradient id="paint38_linear_2233_8011" x1="202.43" y1="42.1861" x2="200.355" y2="42.0111" gradientUnits="userSpaceOnUse">
<stop stop-color="#AA905C"/>
<stop offset="1" stop-color="#FFDF9F"/>
</linearGradient>
<linearGradient id="paint39_linear_2233_8011" x1="200.005" y1="40.9959" x2="199.295" y2="40.989" gradientUnits="userSpaceOnUse">
<stop stop-color="#AA905C"/>
<stop offset="1" stop-color="#FFDF9F"/>
</linearGradient>
<linearGradient id="paint40_linear_2233_8011" x1="200.007" y1="44.5379" x2="199.297" y2="44.531" gradientUnits="userSpaceOnUse">
<stop stop-color="#AA905C"/>
<stop offset="1" stop-color="#FFDF9F"/>
</linearGradient>
<linearGradient id="paint41_linear_2233_8011" x1="228.31" y1="84.0343" x2="195.752" y2="83.1028" gradientUnits="userSpaceOnUse">
<stop stop-color="#AA905C"/>
<stop offset="1" stop-color="#FFDF9F"/>
</linearGradient>
<linearGradient id="paint42_linear_2233_8011" x1="56.1996" y1="102.707" x2="7.53897" y2="101.314" gradientUnits="userSpaceOnUse">
<stop stop-color="#AA905C"/>
<stop offset="1" stop-color="#FFDF9F"/>
</linearGradient>
<linearGradient id="paint43_linear_2233_8011" x1="53.053" y1="145.264" x2="30.4364" y2="145.078" gradientUnits="userSpaceOnUse">
<stop stop-color="#AA905C"/>
<stop offset="1" stop-color="#FFDF9F"/>
</linearGradient>
<linearGradient id="paint44_linear_2233_8011" x1="132.425" y1="143.949" x2="113.281" y2="143.813" gradientUnits="userSpaceOnUse">
<stop stop-color="#AA905C"/>
<stop offset="1" stop-color="#FFDF9F"/>
</linearGradient>
<linearGradient id="paint45_linear_2233_8011" x1="112.617" y1="143.949" x2="93.4725" y2="143.813" gradientUnits="userSpaceOnUse">
<stop stop-color="#AA905C"/>
<stop offset="1" stop-color="#FFDF9F"/>
</linearGradient>
<linearGradient id="paint46_linear_2233_8011" x1="92.814" y1="143.949" x2="73.6698" y2="143.813" gradientUnits="userSpaceOnUse">
<stop stop-color="#AA905C"/>
<stop offset="1" stop-color="#FFDF9F"/>
</linearGradient>
<linearGradient id="paint47_linear_2233_8011" x1="73.0054" y1="143.949" x2="53.8612" y2="143.813" gradientUnits="userSpaceOnUse">
<stop stop-color="#AA905C"/>
<stop offset="1" stop-color="#FFDF9F"/>
</linearGradient>
<linearGradient id="paint48_linear_2233_8011" x1="53.2027" y1="143.949" x2="34.0585" y2="143.813" gradientUnits="userSpaceOnUse">
<stop stop-color="#AA905C"/>
<stop offset="1" stop-color="#FFDF9F"/>
</linearGradient>
<linearGradient id="paint49_linear_2233_8011" x1="85.4446" y1="118.97" x2="78.3688" y2="118.767" gradientUnits="userSpaceOnUse">
<stop stop-color="#AA905C"/>
<stop offset="1" stop-color="#FFDF9F"/>
</linearGradient>
<linearGradient id="paint50_linear_2233_8011" x1="83.6385" y1="117.369" x2="80.3641" y2="117.275" gradientUnits="userSpaceOnUse">
<stop stop-color="#AA905C"/>
<stop offset="1" stop-color="#FFDF9F"/>
</linearGradient>
<linearGradient id="paint51_linear_2233_8011" x1="130.198" y1="139.503" x2="124.291" y2="139.288" gradientUnits="userSpaceOnUse">
<stop stop-color="#AA905C"/>
<stop offset="1" stop-color="#FFDF9F"/>
</linearGradient>
<linearGradient id="paint52_linear_2233_8011" x1="130.198" y1="135.884" x2="124.291" y2="135.669" gradientUnits="userSpaceOnUse">
<stop stop-color="#AA905C"/>
<stop offset="1" stop-color="#FFDF9F"/>
</linearGradient>
<linearGradient id="paint53_linear_2233_8011" x1="130.198" y1="132.27" x2="124.291" y2="132.055" gradientUnits="userSpaceOnUse">
<stop stop-color="#AA905C"/>
<stop offset="1" stop-color="#FFDF9F"/>
</linearGradient>
<linearGradient id="paint54_linear_2233_8011" x1="46.4993" y1="90.3936" x2="24.3336" y2="89.758" gradientUnits="userSpaceOnUse">
<stop stop-color="#AA905C"/>
<stop offset="1" stop-color="#FFDF9F"/>
</linearGradient>
<linearGradient id="paint55_linear_2233_8011" x1="38.7956" y1="81.1874" x2="34.1663" y2="81.0978" gradientUnits="userSpaceOnUse">
<stop stop-color="#AA905C"/>
<stop offset="1" stop-color="#FFDF9F"/>
</linearGradient>
<linearGradient id="paint56_linear_2233_8011" x1="185.635" y1="158.724" x2="119.404" y2="157.64" gradientUnits="userSpaceOnUse">
<stop stop-color="#AA905C"/>
<stop offset="1" stop-color="#FFDF9F"/>
</linearGradient>
<linearGradient id="paint57_linear_2233_8011" x1="186.55" y1="161.791" x2="141.782" y2="161.11" gradientUnits="userSpaceOnUse">
<stop stop-color="#AA905C"/>
<stop offset="1" stop-color="#FFDF9F"/>
</linearGradient>
<linearGradient id="paint58_linear_2233_8011" x1="168.9" y1="126.667" x2="137.925" y2="126.04" gradientUnits="userSpaceOnUse">
<stop stop-color="#AA905C"/>
<stop offset="1" stop-color="#FFDF9F"/>
</linearGradient>
</defs>
</svg>
