<?xml version="1.0" encoding="utf-8"?>
<!-- Generator: Adobe Illustrator 28.0.0, SVG Export Plug-In . SVG Version: 6.00 Build 0)  -->
<svg version="1.1" id="Слой_1" xmlns="http://www.w3.org/2000/svg" xmlns:xlink="http://www.w3.org/1999/xlink" x="0px" y="0px"
	 viewBox="0 0 1920 1080" style="enable-background:new 0 0 1920 1080;" xml:space="preserve">
<style type="text/css">
	.st0{fill:#004846;}
	.st1{fill:#9A9C73;}
	.st2{fill:#5F7053;}
	.st3{fill:#7C8664;}
	.st4{fill:#7A8563;}
	.st5{fill:#A3A57B;}
	.st6{fill:#586C50;}
	.st7{fill:#013C3A;}
	.st8{fill:#B69E69;}
	.st9{fill:#DEC48A;}
	.st10{fill:#516850;}
	.st11{fill:#998F63;}
	.st12{fill:#C6B784;}
	.st13{fill:#C2B17E;}
	.st14{fill:#8E865B;}
	.st15{fill:#043E3B;}
	.st16{fill:#063E3B;}
	.st17{fill:#BFAB77;}
</style>
<g>
	<path class="st0" d="M959.79,564.69c-23.98,0-47.96-0.04-71.94,0.06c-2.39,0.01-2.87-0.59-2.85-2.89c0.12-14.46,0.12-28.93,0-43.39
		c-0.02-2.12,0.48-2.47,2.52-2.47c48.33,0.07,96.67,0.07,145-0.01c2.12,0,2.49,0.47,2.47,2.51c-0.11,14.59-0.11,29.18,0.01,43.76
		c0.02,2.12-0.48,2.48-2.52,2.47C1008.25,564.65,984.02,564.69,959.79,564.69z"/>
	<path class="st1" d="M965.82,550.32c-8.59,1.73-15.04-1.56-17.17-8.76c-2.87-9.68,5.53-18.84,15.36-16.75
		c0.61,0.13,1.22,0.25,1.82,0.37c0.31,0.58,0.13,1.07-0.25,1.53c-1.2,1.21-2.78,0.81-4.22,0.94c-5.82,0.55-9.89,4.68-9.9,10.08
		c-0.01,5.4,4.06,9.55,9.87,10.11c1.44,0.14,3.02-0.26,4.24,0.94C965.95,549.24,966.14,549.74,965.82,550.32z"/>
	<path class="st1" d="M1001.04,550.32c-8.59,1.73-15.04-1.56-17.18-8.76c-2.87-9.68,5.53-18.84,15.36-16.75
		c0.61,0.13,1.22,0.25,1.82,0.37c0.31,0.59,0.12,1.08-0.27,1.54c-1.09,1.13-2.55,0.81-3.88,0.92c-8.93,0.76-13.33,9.7-8.16,16.9
		c1.67,2.32,4.6,2.85,7.37,3.27c1.56,0.24,3.28-0.29,4.63,0.97C1001.16,549.23,1001.36,549.73,1001.04,550.32z"/>
	<path class="st2" d="M965.17,525.87c0.22-0.23,0.44-0.46,0.66-0.69c5.8,2.46,9.3,7.18,8.96,12.76c-0.35,5.91-3.13,10.31-8.97,12.38
		c-0.21-0.22-0.42-0.44-0.64-0.66c-0.9-1.8,0.61-2.39,1.62-3.24c6.48-5.42,6.48-11.92,0.01-17.31
		C965.79,528.25,964.29,527.67,965.17,525.87z"/>
	<path class="st2" d="M1001.04,550.32c-0.21-0.22-0.43-0.44-0.64-0.66c-0.9-1.8,0.6-2.39,1.62-3.24c6.48-5.42,6.48-11.92,0.01-17.31
		c-1.02-0.85-2.52-1.44-1.64-3.24c0.22-0.23,0.44-0.46,0.66-0.69c5.8,2.46,9.3,7.18,8.96,12.76
		C1009.66,543.85,1006.88,548.25,1001.04,550.32z"/>
	<path class="st3" d="M916.61,528.8c4.4-5.81,14.82-5.48,18.62-0.03c-0.1,0.17-0.2,0.33-0.3,0.5c-0.77,0.64-1.59,0.62-2.44,0.2
		c-4.71-2.4-9.37-2.4-14,0.22c-0.32,0.18-0.73,0.05-1.08-0.09C917.08,529.4,916.82,529.13,916.61,528.8z"/>
	<path class="st4" d="M935.23,546.74c-3.73,5.45-14.31,5.71-18.63-0.03c0.2-0.33,0.46-0.61,0.78-0.84c0.96-0.52,1.86-0.41,2.81,0.11
		c4.27,2.35,8.6,2.57,12.97,0.24c0.59-0.32,1.16-0.22,1.72,0.07C935,546.44,935.12,546.59,935.23,546.74z"/>
	<path class="st5" d="M917.71,546.63c-0.37,0.03-0.74,0.05-1.11,0.08c-5.05-6.17-5.05-11.82,0.01-17.91
		c0.37,0.03,0.74,0.05,1.11,0.08c0.32,0.56,0.47,1.15,0.15,1.74c-2.33,4.3-2.19,8.62-0.03,12.92
		C918.4,544.65,918.45,545.63,917.71,546.63z"/>
	<path class="st6" d="M935.23,528.77c5.44,3.27,5.48,14.64,0,17.97c0,0,0.05,0.04,0.05,0.04c-0.91-0.8-0.68-1.79-0.27-2.67
		c1.84-3.94,1.72-7.85-0.07-11.74c-0.61-1.32-0.95-2.54,0.34-3.64L935.23,528.77z"/>
	<path class="st7" d="M965.17,525.87c5.09,2.77,8.73,6.37,8.32,12.82c-0.35,5.62-4.01,8.48-8.31,10.97
		c-3.23,0.2-6.43,0.52-9.46-1.21c-4.93-2.82-7.45-8.6-5.98-14.04c1.36-5.01,6.28-8.7,11.7-8.73
		C962.68,525.67,963.92,525.8,965.17,525.87z"/>
	<path class="st7" d="M1000.39,525.87c5.09,2.77,8.73,6.37,8.32,12.82c-0.35,5.62-4.01,8.48-8.31,10.97
		c-3.23,0.2-6.43,0.52-9.46-1.21c-4.93-2.82-7.45-8.6-5.98-14.04c1.36-5.01,6.28-8.71,11.7-8.73
		C997.9,525.67,999.14,525.8,1000.39,525.87z"/>
	<path class="st7" d="M935.28,528.73c0.89,2.91,2.99,5.26,3.09,8.64c0.11,3.69-1.99,6.31-3.09,9.4c-2.74,1.03-4.99,3.03-8.26,3.04
		c-3.6,0.01-6.52-1.2-9.31-3.19c-4.85-6.62-4.85-11.1,0.01-17.75C923.53,524.33,929.4,524.98,935.28,528.73z"/>
	<path class="st8" d="M961.46,534.84c1.71-0.88,3.66-2.59,5.32-1.46c1.44,0.98-0.14,3.21-0.09,4.91c0.02,0.61-0.06,1.28-0.31,1.81
		c-0.54,1.15,0.28,3.29-1.48,3.4c-1.85,0.11-3.59-1.3-4.59-2.76c-1.07-1.57,1.08-2.1,1.83-3.08c0.7-1.24-1.01-0.83-1.07-1.55
		C960.95,535.6,961.09,535.19,961.46,534.84z"/>
	<path class="st9" d="M961.46,534.84c0.07,0.54,0.14,1.08,0.22,1.62c0.25,0.22,0.3,0.37,0.17,0.46c-0.09,0.06-0.2,0.09-0.35,0.09
		c-4.65,2.49-4.65,2.49-7.51,1.28C956.36,536.56,958.8,535.48,961.46,534.84z"/>
	<path class="st10" d="M961.49,537.01c0.02-0.2,0.08-0.38,0.18-0.55c0.69,0.1,1.41-1.17,1.86-0.32c0.28,0.53-0.71,1.18-1.4,1.51
		C961.92,537.44,961.71,537.22,961.49,537.01z"/>
	<path class="st11" d="M997.41,531.11c4.49,1.11,6.84,4.39,5.84,8.16c-1.06,3.98-4.69,5.84-8.84,4.53
		c-0.07-0.55,0.03-1.05,0.39-1.48c0.68-0.53,1.47-0.38,2.26-0.46c1.84-0.18,2.58-1.79,3.24-3.17c0.65-1.37-0.69-2.2-1.42-3.15
		c-0.9-1.17-2.81-1.15-3.31-2.81C995.44,531.36,996.69,531.54,997.41,531.11z"/>
	<path class="st12" d="M997.41,531.11c-0.5,0.43-0.99,0.86-1.49,1.29c-0.01,0.8-0.43,1.32-1,1.88c-3.08,3.05-3.05,3.07-0.26,6.76
		c0.45,0.6,0.68,1.27,0.53,2.04c-0.26,0.24-0.53,0.49-0.79,0.73c-1.32,0.14-2.64,0.27-4.04,0.42c-0.59-1.39,0.45-2.69,0.03-4.23
		C988.94,534.69,991.82,531.24,997.41,531.11z"/>
	<path class="st13" d="M928.49,545.24c-5.07-1.64-8.24-5.18-10.12-10.04c-0.72-1.86-0.2-3.42,1.19-4.68
		c0.71-0.65,1.64-1.34,2.67-0.63c1.58,1.08,3.47,2.99,2.86,4.38c-1.22,2.79,0.49,3.76,1.91,5.17c0.75,0.29,1.95,0.05,1.76,1.47
		c-0.76,1.16-1.81,1.33-2.78,0.47c-1.51-1.33-3.22-2.54-3.95-4.36c1.29,2.03,2.77,4,5.31,5c1.14,0.45,2.64,0.83,2.42,2.64
		C929.5,545.24,929.15,545.58,928.49,545.24z"/>
	<path class="st14" d="M928.49,545.24c0.24-0.21,0.47-0.43,0.71-0.64c0.3-1.41-0.85-2.54-0.72-3.92c-0.5-0.41-0.99-0.82-1.49-1.24
		c1.49-0.09,2.95-1.54,4.47-0.04c1.2,1.18,3.81,1.69,2.49,4.14C932.81,545.69,930.98,546.85,928.49,545.24z"/>
	<path class="st15" d="M995.19,543.08c-3.22-0.07-3.61-2.42-3.77-4.82c-0.21-3.21,1.43-5.1,4.5-5.86c4.52,0.52,6.33,2.21,6.14,5.72
		C1001.87,541.46,999.96,542.84,995.19,543.08z"/>
	<path class="st16" d="M928.48,540.68c2.2-1.13,3.93,0.15,4.2,1.88c0.36,2.28-2.06,1.72-3.49,2.04c-4.2-1.7-7.21-4.68-9.2-8.68
		c-0.68-1.36-0.86-2.85,0.23-4.17c0.53-0.64,1.31-0.98,1.9-0.28c0.95,1.13,2.28,1.97,1.24,4.09
		C922.38,537.57,925.29,540.24,928.48,540.68z"/>
	<path class="st17" d="M999.86,539.66c0.04,1.17-0.7,1.39-1.47,1.3c-2.62-0.32-4.31-1.78-4.82-4.39c-0.13-0.67-0.07-1.55,0.98-1.63
		c0.19-0.02,0.57,0.2,0.58,0.33c0.24,2.51,0.77,4.63,4.13,3.68C999.4,538.91,999.7,539.46,999.86,539.66z"/>
</g>
</svg>
