<?xml version="1.0" encoding="utf-8"?>
<!-- Generator: Adobe Illustrator 28.0.0, SVG Export Plug-In . SVG Version: 6.00 Build 0)  -->
<svg version="1.1" id="Слой_1" xmlns="http://www.w3.org/2000/svg" xmlns:xlink="http://www.w3.org/1999/xlink" x="0px" y="0px"
	 viewBox="0 0 1920 1080" style="enable-background:new 0 0 1920 1080;" xml:space="preserve">
<style type="text/css">
	.st0{fill:#B3CC12;}
	.st1{fill:#8CBE24;}
	.st2{fill:#E2A124;}
	.st3{fill:#E1A224;}
	.st4{fill:#5BB253;}
	.st5{fill:#E0A224;}
	.st6{fill:#8EB224;}
	.st7{fill:#E1A227;}
	.st8{fill:#90B522;}
	.st9{fill:#76B629;}
	.st10{fill:#8EB124;}
	.st11{fill:#BD8717;}
	.st12{fill:#5EB12F;}
	.st13{fill:#67B337;}
	.st14{fill:#60B246;}
	.st15{fill:#B27E16;}
	.st16{fill:#B27F18;}
	.st17{fill:#60B12E;}
	.st18{fill:#46AB33;}
	.st19{fill:#4DAC32;}
	.st20{fill:#B6831A;}
	.st21{fill:#AE7F16;}
	.st22{fill:#49AC32;}
	.st23{fill:#70B52B;}
	.st24{fill:#6BB32C;}
	.st25{fill:#8EB324;}
	.st26{fill:#92B722;}
	.st27{fill:#7CB827;}
	.st28{fill:#71B52B;}
	.st29{fill:#4BAD32;}
	.st30{fill:#40A235;}
	.st31{fill:#74B02B;}
	.st32{fill:#86BC24;}
	.st33{fill:#B58218;}
	.st34{fill:#41AB3E;}
	.st35{fill:#60B23F;}
	.st36{fill:#77B729;}
	.st37{fill:#80BA26;}
	.st38{fill:#51AE31;}
	.st39{fill:#B77F13;}
	.st40{fill:#B57F13;}
	.st41{fill:#B88014;}
	.st42{fill:#179038;}
	.st43{fill:#5E7E2B;}
	.st44{fill:#B48018;}
	.st45{fill:#BC861C;}
	.st46{fill:#E19E17;}
</style>
<g>
	<path class="st0" d="M1159.63,537.09c-2.85,6.57-9.17,9.87-14.18,14.16c-11.3,9.68-23.71,17.99-36.01,26.37
		c-28.46,19.38-59.19,34.1-92.15,43.93c-18.8,5.61-37.99,9.57-57.59,11.5c-10.36,1.02-20.75,1.26-31.09,2.09
		c-13.75,1.1-27.37-0.21-40.89-1.44c-30.55-2.77-60.21-9.97-88.82-21.2c-18.47-7.25-36.19-16-53.06-26.5
		c-21.9-13.64-41.95-29.58-59.67-48.3c-25.41-26.85-44.82-57.59-58.31-92.06c-6.27-16.02-10.49-32.64-13.66-49.46
		c-1.33-7.03-1.92-14.31-2.49-21.54c-0.66-8.45-0.58-16.87-0.89-25.31c-0.29-7.82,0.99-15.52,1.22-23.29
		c2.42-1.08,3.03-3.42,3.84-5.58c4.99-13.42,8-27.44,12.88-40.92c17.41-48.06,45.76-88.53,84.67-121.4
		c23.09-19.5,48.33-35.91,76.6-47.18c13.45-5.36,27.01-10.44,41.09-13.94c1.28-0.32,3.25-1.97,3.71,1.06
		c-12.4,6.2-25.4,11.14-37.59,17.8c-17.58,9.6-34.11,20.68-49.46,33.59c-10.77,9.06-21.09,18.54-30.15,29.31
		c-11.3,13.42-21.92,27.32-30.59,42.65c-10.27,18.16-18.7,37.08-24.4,57.17c-3.62,12.74-6.29,25.64-7.93,38.84
		c-1.65,13.2-2.24,26.4-1.71,39.61c0.43,10.66,1.93,21.27,2.96,31.91c-3.57,7.02-1.69,14.4-0.56,21.37
		c5.02,30.98,17.61,59.08,33.84,85.71c12.56,20.61,28.49,38.37,46.03,54.77c3.4,3.18,7.12,5.98,11.73,7.34
		c6.79,2.01,12.92-0.42,16.85-6.27c4.51-6.72,2.86-13.27,0.14-19.93c0-11.32,0-22.65,0-33.97c1.86-2.22,1.84-4.89,1.84-7.57
		c0-3.49-0.22-6.99,1.15-10.33c10.81-26.39,22.4-52.12,45.14-71.12c15.82-13.21,33.37-22.92,52.77-29.33
		c8.75-2.89,12.67,0.6,12.93,9.71c0.21,7.58-1.39,15.32,1.78,22.67c0.05,12.64,0.15,25.28,0.16,37.92
		c0.02,47.58,0.02,95.16-0.02,142.74c0,2.5,0.15,4.92,1.13,7.25c-2.24,1.32-2.98,3.34-3.07,5.87c-0.31,8.79,6.09,15.78,14.59,15.77
		c7.98-0.01,15.56-8.27,14.07-16.7c-1.21-6.85-0.63-13.56-0.64-20.31c-0.1-68.95-0.01-137.9-0.16-206.84
		c-0.01-5.21,1.75-8.03,6.35-10.52c8.57-4.64,17.84-7.27,26.8-10.78c23.43-9.18,46.12-19.88,67.82-32.65
		c6.43-3.78,11.5-0.97,12,6.58c0.13,1.99,0.06,4,0.06,5.99c0,78.77-0.01,157.55,0.04,236.32c0,2.52-0.97,5.44,1.8,7.35
		c0.33,1.65,0.67,3.3,1,4.94c-1.19,0.94-2.17,2.01-2.59,3.56c-1.5,5.5,0.46,12.28,4.55,15.53c5.12,4.08,11.22,5.02,15.82,2.44
		c5.28-2.96,9.38-9.81,8.05-15.45c-1.27-5.35-0.65-10.57-0.65-15.84c-0.04-88.1,0.16-176.19-0.31-264.29
		c-0.05-9.37,3.39-15.43,9.82-20.74c18.07-14.93,35.86-30.09,51.63-47.6c13.83-15.35,27.44-30.77,38.36-48.38
		c1.77-2.85,3.78-5.52,6.55-7.45c3.57-2.49,5.54-1.54,5.81,2.72c0.11,1.66,0.04,3.33,0.04,4.99c0,47.13-0.24,94.26,0.06,141.39
		C1159.05,402.91,1157.2,470.01,1159.63,537.09z"/>
	<path class="st1" d="M1349.45,321.85c-7.32,0.84-14.5-1.3-21.83-0.93c-3.2,0.16-4.58,0.95-4.18,4.26
		c0.98,8.16,1.88,16.33,2.78,24.5c0.16,1.48,0.22,2.98,0.22,4.47c0.02,10.49,0.08,20.98,0,31.47c-0.2,25.84-4.79,50.99-11.69,75.82
		c-5.47,19.7-13.03,38.6-22.1,56.84c-10.18,20.5-22.44,39.77-36.7,57.73c-7.2,9.06-14.57,17.96-22.96,25.98
		c-2.82,2.69-4.3,6.78-8.46,8.08c-0.51-6.13-1.11-6.51-6.51-3.85c-6.02,2.97-12.02,6-18.74,9.37c2.73-8.52,6.59-15.37,11.15-21.95
		c13.94-20.11,26.01-41.32,36.67-63.33c1.43-2.94,3.2-5.87,3.39-9.32c6.96-15.87,13.17-32,17.43-48.84
		c3.81-15.02,7.41-30.15,7.28-45.68c-0.05-5.72,1.89-11.94-1.56-17.46c0.97-14.48,2.69-28.87,1.11-43.5
		c-0.96-8.83-1.16-17.78-2.18-26.64c-0.23-1.99-0.82-3.86-1.07-5.81c-0.84-6.52-2.05-7.35-8.22-4.85
		c-7.45,3.03-15.03,5.63-22.8,7.67c-2.3-0.59-3.03-2.07-3.03-4.41c0-4.38,0.79-8.63,1.68-12.85c5.91-28.19,11.95-56.36,17.83-84.55
		c3.13-15,6-30.05,9.09-45.05c0.55-2.68,0.72-5.94,4.29-6.63c3.29-0.63,4.72,1.99,6.17,4.18c4.52,6.78,8.89,13.67,13.43,20.45
		c5.82,8.7,10.61,18.09,17.49,26.09c11.36,19.69,24.33,38.37,36.2,57.75c4.76,7.78,9.68,15.47,14.29,23.34
		c3.18,5.44,2.46,6.51-3.62,6.89C1352.68,321.15,1351.07,321.58,1349.45,321.85z"/>
	<path class="st2" d="M1385.37,1047.91c-8.97-17.65-17.88-35.34-26.93-52.95c-19.43-37.83-39.26-75.44-62.48-111.14
		c-3.91-6.01-7.58-12.17-11.37-18.27c-1.87,0.51-1.07,1.95-1.07,2.87c0.07,27.77,0.44,55.55,1.26,83.28
		c0.92,30.78,0.03,61.54,0.74,92.3c0.09,3.69-1.1,5.04-4.85,4.92c-6.82-0.23-13.66-0.17-20.48-0.02c-2.7,0.06-3.96-0.57-3.75-3.56
		c0.27-3.81,0.16-7.65,0.22-11.48c2.38-2.05,1.81-4.86,1.81-7.47c0.03-35.79,0.02-71.58,0.02-107.37c0-23.47,0.01-46.94-0.01-70.41
		c0-3.09,0.05-6.17,3.05-7.95c8.94-5.31,21.55-4.96,28.91,4.18c5.76,7.15,10.2,15.17,15.19,22.83
		c16.74,25.63,32.18,52.02,47.28,78.66c8.7,15.35,16.02,31.39,25.02,46.55c2.21,3.72,4.88,6.79,9.64,6.91
		c2.94,0.07,4.05-1.17,2.75-4.03c0.13-21.55-1.93-43.03-2.16-64.58c-0.06-5.72-0.72-11.51-0.59-17.29
		c1.42-3.79,1.86-7.71,1.85-11.74c-0.04-17.99-0.03-35.98-0.01-53.97c0.01-6.75,1.85-9.2,8.32-11.1c3.05-0.9,6.16-1.4,9.36-1.09
		c7.28,0.71,7.3,0.69,7.3,8c0,64.8,0,129.59,0,194.39c0,0.5,0,1,0,1.5c-0.07,6.42-0.52,6.91-6.76,6.96
		c-5.49,0.04-10.99,0-16.48,0.02C1389.18,1046.88,1387.14,1046.66,1385.37,1047.91z"/>
	<path class="st3" d="M922.53,882.93c4.37,29.58,2.4,59.38,1.77,89.01c-0.51,23.79-8.86,45.51-27.29,62.15
		c-10.84,9.79-23.81,14.43-37.93,16.83c-7.93,1.34-15.89,1.23-23.79,0.84c-26.89-1.34-48.71-11.72-62.58-35.99
		c-7.01-12.27-10.84-25.37-11.98-39.43c-2.06-25.24-0.34-50.52-0.96-75.77c-0.04-1.42,0.36-2.58,1.18-3.67
		c3.81-11.05,9.93-20.97,15.5-31.13c4.86-8.88,11.72-16.09,20.41-21.41c21.19-12.97,44.15-14.6,67.74-9.57
		c21.23,4.53,36.32,17.75,47.12,36.19C914.5,875.73,917.23,880.48,922.53,882.93z M892.61,983.77c1.21-4.6,2.11-9.23,2.1-14.02
		c-0.03-22.31-0.11-44.62,0.05-66.93c0.04-6.31-0.7-12.47-2.13-18.56c-3.08-13.13-9.15-24.37-20.36-32.53
		c-12.15-8.84-26-8.54-39.8-7.47c-6.03,0.47-12.05,2.38-17.43,5.79c-17.5,11.07-24.13,28.34-25.01,47.57
		c-1.1,24.09-0.4,48.27-0.17,72.41c0.06,5.98,0.81,12.03,2.99,17.75c-3.84,19.17,5.09,33.21,19.49,43.72
		c11.89,8.68,26.15,9.62,40.64,7.4C879.26,1034.85,897.34,1009.89,892.61,983.77z"/>
	<path class="st3" d="M443.8,874.92c0.62,0.97,1.24,1.88,1.18,3.16c-0.59,11.9,0.71,23.81-0.85,35.75
		c-1.22,9.29-4.16,17.72-9.14,25.48c-8.91,13.87-22.11,21.33-37.92,24.52c-9.23,1.87-18.61,2.16-28.02,2.06
		c-9.48-0.1-18.96,0.16-28.43-0.11c-3.75-0.11-4.71,0.97-4.68,4.69c0.17,24.45,0.09,48.9,0.08,73.35c0,0.99-0.1,1.99-0.15,2.98
		c-7.15,0.01-14.31-0.16-21.46,0.1c-4.75,0.17-6.43-1.65-6.43-6.41c0.1-65.07,0.1-130.14-0.02-195.22c-0.01-4.45,1.77-6.73,5.7-8.1
		c6.26-2.18,12.89-1.92,19.22-2.03c20.24-0.36,40.56-1.32,60.72,1.75c14.14,2.15,26.22,7.94,35.37,19.32
		C433.96,862.42,437.81,869.52,443.8,874.92z M414.9,908.78c0.03-9.64,0.18-19.29,0.04-28.93c-0.13-8.68-3.48-16.22-9.2-22.64
		c-7.53-8.48-18-9.65-28.26-10.15c-12.6-0.61-25.26-0.06-37.89-0.21c-3.48-0.04-4.63,1.15-4.62,4.62
		c0.13,28.43,0.11,56.87,0.13,85.3c-3.12,10.18-0.23,15.51,10.05,17.14c14.57,2.31,29.16,1.01,43.63-1.11
		c5.76-0.85,11.05-3.56,15.43-7.66C414.93,935.12,419.66,923.34,414.9,908.78z"/>
	<path class="st4" d="M597.82,521.08c-5.41-6.76-8.93-14.62-12.49-22.39c-7.84-17.11-14.44-34.7-19.07-52.98
		c-3.45-13.58-6-27.29-7.53-41.26c-1.62-14.71-1.77-29.41-1.91-44.15c-0.04-4.53,1.3-8.84,1.25-13.32
		c3.61-3.65,4.83-8.57,5.41-13.19c2.18-17.57,8.51-33.85,14.4-50.31c7.45-20.81,17.32-40.36,29.96-58.49
		c2.48,0.99,5.05,2.47,0.97,4.33c-6.77,3.08-6.93,8.76-6.54,14.68c0.19,2.82,0.29,5.57,0.12,8.41c-0.58,9.96-4.14,19.12-6.9,28.53
		c-4.09,13.92-6.81,28.1-5.59,42.75c0.12,1.46-0.29,3.41,1.28,4.05c2.22,0.9,2.36-1.76,3.54-2.7c-1.71,14.53-1.47,29.18-0.57,43.67
		c1.49,24.03,6.26,47.58,14.27,70.39c0.21,0.6,0.2,1.28,0.3,1.92c-2.16,1.45-2.48,3.63-2.88,6.04c-2.04,12.32-1.61,25.14-7.22,36.77
		c-0.98,2.04-0.44,4.21-0.23,6.39c0.44,4.6,3.27,9.81,0.77,13.68C595.33,509.8,596.65,515.26,597.82,521.08z"/>
	<path class="st3" d="M717.89,1040.96c-19.79,9.16-40.72,12.36-62.24,10.75c-18.08-1.35-34.7-7.5-47.3-21.09
		c-10.99-11.84-17.48-26.3-20.44-42.22c-0.83-4.47-1.26-9.02-1.87-13.53c1.52-2.52,2-5.29,1.81-8.15
		c-0.24-3.64-0.89-7.27-0.92-10.91c-0.1-15.64-0.21-31.28,0.05-46.92c0.09-5.09-0.1-10.51,2.15-15.17
		c3.18-6.61,5.62-13.5,8.71-20.13c8.32-17.87,21.09-30.8,40.36-36.67c20.56-6.26,41.01-5.2,61.36,0.8
		c6.94,2.05,14.44,2.9,20.09,8.19c-3.59,10.39-3.69,10.65-13.9,6.85c-14.29-5.33-28.8-8.76-44.2-7.91
		c-18.65,1.03-32.59,10.57-39.7,28.53c-4.55,11.49-5.62,23.57-5.89,35.68c-0.37,16.64-0.22,33.3-0.04,49.95
		c0.09,9.01,1.07,17.98,2.78,26.84c-6.68,19.11,7.84,45.2,28.14,51.03c14.3,4.11,28.54,3.82,42.86,0.48
		c6.3-1.47,12.51-3.41,18.87-4.53C714,1031.89,717.73,1035.49,717.89,1040.96z"/>
	<path class="st5" d="M1487.5,934.33c0-36.12,0.07-72.25-0.09-108.37c-0.02-4.45,0.98-6.32,5.8-6.02c6.63,0.41,13.31,0.2,19.96,0.06
		c3.03-0.06,4.14,1.12,4.09,4.12c-0.13,7.16-0.04,14.32-0.04,21.47c0,65.59-0.05,131.18,0.11,196.77c0.01,5-1.21,6.84-6.38,6.47
		c-6.13-0.44-12.32-0.3-18.46-0.03c-3.93,0.17-5.11-1.08-5.09-5.1C1487.56,1007.24,1487.5,970.78,1487.5,934.33z"/>
	<path class="st3" d="M1185.38,837.93c0.05,11.49,0.15,22.98,0.15,34.47c0.02,56.8-0.05,113.59,0.11,170.39
		c0.01,4.83-1.34,6.45-6.18,6.16c-6.3-0.39-12.66-0.29-18.97-0.02c-3.84,0.16-4.97-1.65-4.93-4.98c0.01-0.83,0-1.67,0-2.5
		c0-64.79,0-129.58,0.01-194.37c0-2.11-0.51-4.35,1.15-6.17c5.87-4.2,12.41-5.54,19.45-4.28
		C1179.23,837.18,1182.22,838.13,1185.38,837.93z"/>
	<path class="st6" d="M834.82,98.1c-0.46-3.03-2.43-1.37-3.71-1.06c-14.08,3.5-27.64,8.57-41.09,13.94
		c-28.27,11.27-53.51,27.68-76.6,47.18c-38.91,32.87-67.26,73.34-84.67,121.4c-4.88,13.47-7.9,27.5-12.88,40.92
		c-0.8,2.16-1.42,4.5-3.84,5.58c-0.07-9.62,2.18-18.95,4.09-28.25c4.75-23.14,12.72-45.23,23.57-66.2
		c10.55-20.38,23.29-39.25,38.48-56.59c21.98-25.09,47.35-45.95,76.1-62.62c29.94-17.36,62.01-29.35,95.93-36.42
		c19.07-3.97,38.27-6.06,57.74-7.18c20.27-1.17,40.14,0.83,60.14,3.12c15.72,1.8,30.96,5.69,46.3,9.23c0.77,0.18,1.47,0.7,2.2,1.07
		c0.57,0.74,1.14,1.47,1.73,2.22c-1.62,1.27-3.3-0.78-4.72,0.48c-6.64-0.99-13.28-2-19.92-2.96c-6.82-0.98-13.63-2.47-20.48-2.75
		c-11.58-0.47-23.15-1.85-34.77-1.13c-27.61,1.71-54.92,5.3-81.49,13.37C849.57,93.7,842.19,95.89,834.82,98.1z"/>
	<path class="st7" d="M524.75,839.93c0.05,11.81,0.15,23.62,0.15,35.44c0.02,55.75-0.06,111.5,0.12,167.25
		c0.02,5.17-1.53,6.66-6.51,6.34c-6.29-0.41-12.64-0.08-18.96-0.11c-1.74-0.01-3.81,0.56-4.46-1.97c2.59-2.19,1.8-5.21,1.8-7.94
		c0.04-63.56,0.03-127.12,0.04-190.67c0-7.05,2.91-10.9,9.9-11.96C513.12,835.34,519.41,835.66,524.75,839.93z"/>
	<path class="st8" d="M1159.63,537.09c-2.43-67.08-0.58-134.18-1.01-201.26c-0.3-47.13-0.06-94.26-0.06-141.39
		c0-1.67,0.07-3.34-0.04-4.99c-0.28-4.27-2.24-5.22-5.81-2.72c-2.77,1.93-4.79,4.6-6.55,7.45c-10.92,17.62-24.53,33.03-38.36,48.38
		c-15.77,17.51-33.56,32.67-51.63,47.6c-6.43,5.31-9.87,11.37-9.82,20.74c0.48,88.09,0.27,176.19,0.31,264.29
		c0,5.27-0.61,10.49,0.65,15.84c1.34,5.64-2.77,12.49-8.05,15.45c-4.61,2.58-10.7,1.64-15.82-2.44c-4.09-3.26-6.05-10.04-4.55-15.53
		c0.42-1.54,1.4-2.61,2.59-3.56c3.44,8.94,17.38,9.77,22.3,0.4c1.13-2.15,0.81-4.19,0.81-6.27c0.04-96.59,0.09-193.19-0.1-289.78
		c-0.01-6.15,2.51-9.93,7.02-13.26c9.83-7.25,19.19-15.06,28.04-23.48c7.79-7.41,15.61-14.73,22.95-22.65
		c13.6-14.68,26.35-29.96,37.81-46.33c4.9-7,9.52-14.19,14.17-21.36c1.14-1.76,2.25-3.63,4.56-3.02c2.59,0.68,2.53,3.09,2.53,5.27
		c0,0.83,0,1.67,0,2.5c0,120.74,0,241.49,0,362.23C1161.55,531.98,1162.04,534.89,1159.63,537.09z"/>
	<path class="st9" d="M1250.5,520.97c-0.19,3.44-1.97,6.38-3.39,9.32c-10.66,22.01-22.73,43.22-36.67,63.33
		c-4.56,6.58-8.42,13.43-11.15,21.95c6.73-3.36,12.72-6.4,18.74-9.37c5.4-2.66,6.01-2.28,6.51,3.85
		c-11.37,13.08-25.02,23.55-38.84,33.8c-20.47,15.19-42.4,28.01-65.49,38.71c-29.09,13.47-59.35,23.52-90.92,29.41
		c-3.22,0.6-6.45,1.2-9.67,1.79c-0.97-0.61-1.94-1.22-2.91-1.83c24.35-5.91,46.92-16.2,68.85-28.06c1.59-0.45,3.32-0.63,4.73-1.39
		c8.34-4.47,16.79-8.8,24.88-13.7c30.44-18.43,57.85-40.54,81.45-67.32c13-14.75,25.17-30.08,35.16-47.02
		C1238.3,543.45,1244.29,532.15,1250.5,520.97z"/>
	<path class="st10" d="M1020.47,580.01c-2.77-1.91-1.8-4.83-1.8-7.35c-0.05-78.77-0.04-157.55-0.04-236.32c0-2,0.07-4-0.06-5.99
		c-0.5-7.55-5.57-10.36-12-6.58c-21.7,12.77-44.39,23.47-67.82,32.65c-8.96,3.51-18.24,6.13-26.8,10.78
		c-4.6,2.49-6.36,5.31-6.35,10.52c0.15,68.95,0.06,137.9,0.16,206.84c0.01,6.75-0.58,13.46,0.64,20.31
		c1.49,8.43-6.09,16.69-14.07,16.7c-8.5,0.01-14.9-6.98-14.59-15.77c0.09-2.53,0.83-4.55,3.07-5.87c2.4,1.21,3.51,3.93,6.1,4.99
		c8.35,3.42,16.78-2.2,16.78-11.28c0.01-77.82,0-155.63,0-233.45c0-7.74,0.01-7.77,7.25-10.13c26.53-8.63,52.14-19.47,76.74-32.62
		c9-4.81,17.64-10.28,26.58-15.19c4.66-2.56,6.34-1.41,6.35,3.84c0.01,90.65,0.01,181.29,0,271.94
		C1020.62,578.68,1020.52,579.34,1020.47,580.01z"/>
	<path class="st11" d="M1390.34,995.76c1.3,2.86,0.18,4.1-2.75,4.03c-4.76-0.12-7.43-3.19-9.64-6.91
		c-9-15.16-16.32-31.2-25.02-46.55c-15.1-26.64-30.54-53.03-47.28-78.66c-5-7.65-9.43-15.68-15.19-22.83
		c-7.37-9.14-19.98-9.49-28.91-4.18c-3,1.78-3.06,4.86-3.05,7.95c0.03,23.47,0.01,46.94,0.01,70.41c0,35.79,0.01,71.58-0.02,107.37
		c0,2.6,0.57,5.41-1.81,7.47c-1.5-4.15-1.16-8.48-1.16-12.77c-0.01-49.78-0.41-99.56,0.23-149.33c0.21-16.08,0.6-32.19,0.71-48.28
		c0.02-2.92,1.07-3.67,3.79-3.62c7.65,0.14,15.32,0.27,22.96-0.04c4.39-0.18,6.19,2.91,8,5.61c18.48,27.51,36.7,55.18,53.12,83.99
		c14.98,26.29,29.14,53.01,42.54,80.15C1387.88,991.65,1387.65,994.58,1390.34,995.76z"/>
	<path class="st12" d="M1250.5,520.97c-6.21,11.17-12.2,22.48-18.7,33.49c-10,16.94-22.17,32.26-35.16,47.02
		c-23.6,26.79-51.01,48.89-81.45,67.32c-8.09,4.9-16.54,9.22-24.88,13.7c-1.42,0.76-3.15,0.94-4.73,1.39c1.09-1,2.07-2.17,3.29-2.99
		c12.68-8.55,25.48-16.92,38.06-25.6c7.38-5.09,14.66-10.38,20.77-17.04c1.35-1.47,4.37-2.84,2.79-5.1
		c-1.39-1.99-3.55,0.38-5.3,1.02c-1.54,0.56-2.95,1.67-4.7,0.68c7.71-6.45,15.29-13.06,23.14-19.33
		c11.7-9.34,22.06-20.06,31.89-31.24c11.45-13.01,21.72-26.95,31.12-41.55c20.98-32.6,34.93-68.01,42.65-105.91
		c1.87-9.19,2.92-18.55,4.35-27.84c3.45,5.52,1.52,11.74,1.56,17.46c0.13,15.53-3.48,30.66-7.28,45.68
		C1263.67,488.97,1257.46,505.1,1250.5,520.97z"/>
	<path class="st13" d="M696.78,627.09c-10.16-5.89-19.23-13.28-28.13-20.86c-6.17-5.26-12.62-10.32-18.03-16.29
		c-5.65-6.24-12.25-11.66-16.82-18.86c-0.73-3.97-1.5-8.01,1.4-11.46c2.62-3.11,2.81-6.47,2.09-10.3
		c-1.03-5.5-0.69-10.87,2.28-15.95c1.48-2.53,2.98-2.8,5.22-1.39c3.1,3.65,6.41,7.16,9.28,10.99c8.25,11.05,18.06,20.66,27.6,30.54
		c6.69,6.93,14.97,12.04,21.19,19.42c-6.41-1.34-9.7-0.3-11.29,4.02c-1.14,3.1-2.05,6.39-1.05,9.74
		C692.55,613.51,694.69,620.29,696.78,627.09z"/>
	<path class="st14" d="M644.79,531.97c-2.24-1.41-3.74-1.14-5.22,1.39c-2.97,5.08-3.31,10.45-2.28,15.95
		c0.72,3.83,0.53,7.19-2.09,10.3c-2.9,3.45-2.13,7.49-1.4,11.46c-11.27-10.42-19.21-23.44-27.85-35.91
		c-3.09-4.46-5.91-9.1-8.13-14.08c-1.17-5.83-2.49-11.28,1.32-17.17c2.5-3.87-0.33-9.08-0.77-13.68c-0.21-2.17-0.75-4.35,0.23-6.39
		c5.61-11.63,5.18-24.45,7.22-36.77c0.4-2.4,0.72-4.59,2.88-6.04c0.75,2.63,1.5,5.27,2.25,7.9c-4.49,2.88-2.48,7-1.33,10.28
		c5.12,14.71,10.84,29.19,18.57,42.8C633.82,511.95,639.26,521.99,644.79,531.97z"/>
	<path class="st15" d="M443.8,874.92c-5.98-5.4-9.84-12.5-14.82-18.7c-9.15-11.38-21.23-17.16-35.37-19.32
		c-20.17-3.07-40.48-2.11-60.72-1.75c-6.33,0.11-12.97-0.15-19.22,2.03c-3.93,1.37-5.71,3.66-5.7,8.1
		c0.12,65.07,0.12,130.14,0.02,195.22c-0.01,4.76,1.68,6.58,6.43,6.41c7.14-0.26,14.31-0.09,21.46-0.1
		c-0.47,1.87-1.89,2.04-3.48,2.04c-7.66-0.02-15.31-0.09-22.97,0.04c-2.66,0.05-3.63-0.98-3.38-3.51c0.1-0.99,0.01-2,0.01-3
		c0-71.76,0-143.52,0-215.29c0-7.18,0.01-7.19,7.02-7.19c23.47,0,46.95-0.37,70.4,0.12c16.16,0.34,31.42,4.71,43.28,16.35
		C437.37,846.8,444.38,859.3,443.8,874.92z"/>
	<path class="st16" d="M922.53,882.93c-5.3-2.46-8.03-7.2-10.81-11.95c-10.8-18.45-25.89-31.66-47.12-36.19
		c-23.59-5.03-46.55-3.4-67.74,9.57c-8.69,5.32-15.55,12.53-20.41,21.41c-5.57,10.17-11.69,20.08-15.5,31.13
		c-1.44-28.08,15.8-60.46,42.02-72.54c10.06-4.63,20.75-7.24,31.95-7.48c15.1-0.33,29.94,0.25,44.14,6.59
		c13.57,6.06,23.87,15.49,31.8,27.85C917.07,861.02,920.77,871.61,922.53,882.93z"/>
	<path class="st17" d="M829.72,641.11c10.14,1.26,19.85,4.58,29.9,6.29c11.7,1.99,23.41,3.76,35.27,4.58
		c12.37,0.86,24.74,2.2,37.15,1.88c9.89-0.26,19.77-1.15,29.65-1.76c3.31,3.78,7.42,5.07,12.45,4.9
		c15.34-0.53,30.49-2.89,45.42-5.94c35.29-7.21,68.58-19.77,99.48-38.63c26.55-16.21,50.55-35.52,72.7-57.24
		c4.73-4.64,8.33-10.4,13.9-14.22c-3.41,7.61-9.59,13.25-14.26,19.99c-7.81,11.28-17.32,21.19-27.13,30.77
		c-0.74,0.72-1.53,1.27-2.6,1.26c-2.22-0.03-4.39,0.29-6.12,1.76c-6.29,5.32-13.73,8.73-20.77,12.83
		c-29.42,17.14-59.61,32.47-92.48,42.02c-29.07,8.45-58.6,13.79-88.91,14.32c-29.15,0.52-58.16-1.71-87.06-5.19
		c-13.35-1.61-26.77-3.28-39.59-7.77c6.18-0.56,6.53-1.12,3.45-6.14C829.41,643.57,829.15,642.44,829.72,641.11z"/>
	<path class="st18" d="M1016.73,711.94c0.97,0.61,1.94,1.22,2.91,1.83c-13.09,2.88-26.37,4.17-39.72,5.32
		c-18.6,1.6-37.21,1.08-55.77,0.61c-16.8-0.42-33.55-2.75-50.12-5.89c-22.42-4.24-44.45-9.98-65.96-17.66
		c-1.57-0.56-3.17-0.93-4.41-2.1c-0.53-0.78-1.07-1.57-1.6-2.35c1.24-0.2,2.47-0.39,3.71-0.59c18.11,4.44,36.23,8.88,54.71,11.55
		c9.48,1.37,19.02,2.81,28.56,3.08c8.29,0.24,16.53,1.4,24.83,1.21c31.49-0.7,62.68-3.82,93.32-11.39c1.81-0.45,3.6-0.51,5.4-0.73
		C1015.73,700.1,1021.21,704.81,1016.73,711.94z"/>
	<path class="st19" d="M1205.65,540.98c-5.58,3.82-9.17,9.59-13.9,14.22c-22.15,21.71-46.16,41.03-72.7,57.24
		c-30.9,18.86-64.19,31.42-99.48,38.63c-14.93,3.05-30.08,5.41-45.42,5.94c-5.03,0.17-9.14-1.12-12.45-4.9
		c34.54-4.26,68.33-11.47,100.58-25.02c25.26-10.61,49.42-23.14,71.43-39.58c0.5-0.37,1.23-0.45,1.85-0.67
		c-0.93,3.47-3.69,5.49-6.27,7.54c-2.99,2.38-6.25,4.42-9.33,6.69c-0.99,0.73-2.95,1.32-2.11,2.86c0.82,1.51,2.37,0.39,3.5-0.23
		c18.93-10.39,36.18-23.14,51.8-37.96c19.86-18.84,37.27-39.81,52.11-62.87c1.34-2.09,2.57-4.36,5.36-4.88
		c-6.02,14.74-14.76,27.96-23.11,41.39C1207.1,540.05,1206.28,540.46,1205.65,540.98z"/>
	<path class="st20" d="M719.64,845.92c-5.65-5.29-13.15-6.14-20.09-8.19c-20.35-6-40.8-7.07-61.36-0.8
		c-19.27,5.87-32.03,18.81-40.36,36.67c-3.09,6.63-5.53,13.52-8.71,20.13c-2.24,4.66-2.06,10.08-2.15,15.17
		c-0.26,15.64-0.16,31.28-0.05,46.92c0.02,3.64,0.67,7.27,0.92,10.91c0.19,2.87-0.29,5.64-1.81,8.15
		c-2.52-24.19-1.13-48.46-0.95-72.67c0.12-15.61,3.1-31.1,10.31-45.24c11.34-22.25,28.9-35.94,54.24-39.15
		c24.67-3.12,48.15,0.77,70.86,10.44c3.27,1.39,5.27,3.21,3.34,7.19C722.22,838.82,721.03,842.42,719.64,845.92z"/>
	<path class="st21" d="M1016.67,1020.81c29.47,0.02,58.93,0.03,88.4,0.05c6.5,0,6.5,0.02,6.51,6.71c0.01,4.83,0.04,9.66-0.01,14.49
		c-0.07,7.58,0.83,6.77-6.55,6.78c-37.29,0.03-74.59,0.01-111.88,0.01c-0.83,0-1.67-0.09-2.5,0.01c-3.8,0.45-5.03-1.62-4.99-4.99
		c0.01-1,0-2,0-3c0-70.95,0-141.89,0-212.84c0-8.13,0.01-8.13,8.33-8.14c5.66,0,11.32,0.1,16.98-0.03c3.99-0.09,5.82,1.56,5.7,5.62
		c-0.13,4.66-0.03,9.33-0.03,13.99c0.02,60.45,0.04,120.91,0.06,181.36c-2.12-3.44-2.06-7.27-2.06-11.1
		c0.01-55.62,0-111.23,0-166.85c0-1.83-0.03-3.66-0.08-5.49c-0.06-2.21-1.22-3.42-3.43-3.4c-5.32,0.05-10.69-0.27-15.94,0.39
		c-7.66,0.97-8.51,2.26-8.52,10.03c-0.02,64.94-0.02,129.88,0,194.82c0,7.65,1.01,8.6,8.68,8.61c35.96,0.01,71.91,0.01,107.87,0
		c1.5,0,3-0.03,4.49-0.15c1.48-0.13,2.29-0.98,2.72-2.47c2.02-7.09-0.35-10.34-7.68-10.37c-1.66-0.01-3.33,0-4.99,0
		c-21.47,0-42.95,0.08-64.42-0.05C1021.67,1034.74,1017.54,1031.1,1016.67,1020.81z"/>
	<path class="st22" d="M644.79,531.97c-5.53-9.99-10.97-20.02-16.61-29.95c-7.72-13.61-13.45-28.09-18.57-42.8
		c-1.14-3.29-3.15-7.4,1.33-10.28c3.78,5.13,5.66,11.21,8.22,16.92c10.98,24.49,25.36,46.76,42.4,67.45
		c20.09,24.39,43.67,44.78,69.74,62.43c1.9,1.29,3.7,2.74,5.54,4.12c-1.77,0.57-3.33,1.32-1.27,3.26c1.54,1.45,3.25,2.74,4.97,3.99
		c5.29,3.86,5.64,5.44,2.24,10.87c-2.77-0.18-5.02-1.59-7.35-2.92c-11.45-6.52-21.69-14.8-32.57-22.14
		c-6.23-7.38-14.51-12.5-21.19-19.42c-9.54-9.88-19.35-19.49-27.6-30.54C651.21,539.13,647.9,535.63,644.79,531.97z"/>
	<path class="st23" d="M702.86,592.93c10.89,7.33,21.13,15.62,32.57,22.14c2.33,1.32,4.58,2.74,7.35,2.92
		c2.09,2.97,5.31,4.39,8.32,6.14c6.87,4,14.21,7.16,20.71,11.81c-0.67,0-1.33,0.01-2,0.01c-11.3,0.05-12.39,0.9-14.07,11.94
		c-0.53,3.46-2.39,3.89-5.29,3.29c-3.38-0.7-6.92-1.94-9.63,1.61c-15.8-6.65-30.42-15.32-44.04-25.69c-2.1-6.8-4.24-13.58-6.27-20.4
		c-1-3.35-0.09-6.65,1.05-9.74C693.16,592.62,696.45,591.59,702.86,592.93z"/>
	<path class="st24" d="M826.73,650.97c12.82,4.49,26.25,6.16,39.59,7.77c28.9,3.48,57.91,5.71,87.06,5.19
		c30.31-0.54,59.84-5.88,88.91-14.32c32.88-9.56,63.07-24.88,92.48-42.02c7.04-4.1,14.48-7.51,20.77-12.83
		c1.73-1.46,3.9-1.79,6.12-1.76c-13.76,15.13-30.24,26.93-47.03,38.34c-14.64,9.95-30.29,18.06-46.24,25.64
		c-1.17,0.55-2.5,0.76-3.76,1.13c1.93-2.74,6.44-2.35,7.87-6.14c-2.61-0.85-4.62,0.11-6.57,0.89c-4.69,1.87-9.37,3.17-14.55,2.24
		c-2.21-0.4-4.65,0.02-6.92,0.43c-8.99,1.64-17.94,3.52-26.94,5.14c-19.94,3.58-39.81,7.74-60.24,7.29
		c-15.27-0.33-30.54,0.27-45.83-0.89c-14.4-1.09-28.79-2.13-43.13-3.77c-10.22-1.17-20.39-2.87-30.58-4.34
		c-4.66-1.01-9.32-2.02-13.98-3.04c-4.6-3.21-10.29-4.05-15.04-6.92C814.76,649.34,820.61,651.38,826.73,650.97z"/>
	<path class="st25" d="M879.55,412.02c-3.17-7.35-1.57-15.1-1.78-22.67c-0.26-9.11-4.18-12.6-12.93-9.71
		c-19.4,6.41-36.95,16.11-52.77,29.33c-22.74,18.99-34.34,44.72-45.14,71.12c-1.37,3.34-1.15,6.85-1.15,10.33
		c0,2.68,0.03,5.35-1.84,7.57c-2.47-19.86,2.53-38.45,10.08-56.47c7.16-17.08,17.8-31.94,31.33-44.49
		c19.79-18.34,43.01-30.56,69.27-36.85c3-0.72,5.15,0.04,5.11,3.95C879.6,380.08,879.6,396.05,879.55,412.02z"/>
	<path class="st26" d="M763.94,531.96c2.72,6.66,4.37,13.21-0.14,19.93c-3.93,5.85-10.06,8.28-16.85,6.27
		c-4.61-1.37-8.33-4.17-11.73-7.34c-17.54-16.4-33.47-34.16-46.03-54.77c-16.23-26.63-28.82-54.73-33.84-85.71
		c-1.13-6.97-3.01-14.35,0.56-21.37c4.14,14.27,7.13,28.87,12.3,42.86c8.65,23.45,20.47,45.19,35.32,65.24
		c10.23,13.81,21.2,27.06,34.74,37.89c3.05,2.43,4.89,6.17,9.14,7.35c6.95,1.92,12.66-0.55,15.26-7.16
		C763.1,534.08,763.52,533.02,763.94,531.96z"/>
	<path class="st27" d="M837.75,658.96c10.19,1.47,20.35,3.17,30.58,4.34c14.34,1.64,28.74,2.68,43.13,3.77
		c15.29,1.16,30.56,0.55,45.83,0.89c20.44,0.44,40.31-3.71,60.24-7.29c9-1.62,17.95-3.5,26.94-5.14c2.27-0.41,4.7-0.83,6.92-0.43
		c5.18,0.93,9.86-0.36,14.55-2.24c1.95-0.78,3.96-1.74,6.57-0.89c-1.43,3.79-5.94,3.41-7.87,6.14c-15.4,8.22-31.8,13.9-48.49,18.71
		c-10.06,2.9-20.31,5.15-30.5,7.58c-1.9,0.45-3.92,0.4-5.88,0.58c1.29-2.27,0.07-2.89-1.97-3.04c-3.26-0.24-6.08-1.45-8.48-3.71
		c-1.63-1.53-3.69-2.27-5.92-2.22c-8.3,0.15-16.5-1.22-24.81-1.2c-8.25,0.02-16.51-0.93-24.76-1.55
		c-14.03-1.06-28.05-2.2-42.08-3.31c-4.9-2.56-10.26-3.72-15.54-5.17C849.97,663.07,843.55,661.99,837.75,658.96z"/>
	<path class="st28" d="M1307.45,233.07c-6.88-7.99-11.67-17.38-17.49-26.09c-4.53-6.78-8.9-13.66-13.43-20.45
		c-1.46-2.19-2.89-4.81-6.17-4.18c-3.57,0.69-3.74,3.95-4.29,6.63c-3.09,15-5.96,30.06-9.09,45.05
		c-5.89,28.2-11.93,56.36-17.83,84.55c-0.88,4.22-1.68,8.48-1.68,12.85c0,2.34,0.72,3.83,3.03,4.41c-3.54,1.31-7.04,2.75-10.63,3.9
		c-3.18,1.01-4.64-0.28-4.36-3.72c0.6-7.42,2.69-14.56,4.2-21.8c6.1-29.13,12.26-58.24,18.9-87.25c4.18-18.28,8.16-36.6,12.06-54.94
		c3.28-1.16,6.22-4.33,10.14-1.68c2.23,1.5,4.1,3.37,5.59,5.58c11.5,17.04,20.64,35.44,30.67,53.33
		C1307.73,230.47,1308.14,231.72,1307.45,233.07z"/>
	<path class="st29" d="M1016.73,711.94c4.48-7.12-0.99-11.84-4.14-17.11c18.25-6.17,36.88-11.26,54.63-18.9
		c23.9-10.29,46.64-22.64,67.79-37.86c1.72-1.24,3.3-2.78,5.49-3.23c1.75,0.99,3.16-0.12,4.7-0.68c1.75-0.64,3.92-3.01,5.3-1.02
		c1.58,2.26-1.45,3.64-2.79,5.1c-6.11,6.66-13.39,11.95-20.77,17.04c-12.58,8.68-25.39,17.05-38.06,25.6
		c-1.22,0.82-2.2,1.99-3.29,2.99C1063.65,695.74,1041.08,706.03,1016.73,711.94z"/>
	<path class="st30" d="M1230.63,498c-2.8,0.52-4.02,2.79-5.36,4.88c-14.84,23.05-32.25,44.02-52.11,62.87
		c-15.62,14.82-32.88,27.57-51.8,37.96c-1.13,0.62-2.67,1.75-3.5,0.23c-0.84-1.54,1.12-2.14,2.11-2.86
		c3.08-2.27,6.34-4.31,9.33-6.69c2.58-2.05,5.34-4.06,6.27-7.54c14.32-12.04,29.02-23.64,41.92-37.29
		c27.16-28.73,48.74-61.05,63-98.05c7.1-18.42,12.96-37.19,15.22-56.94c0.26-2.32,0.38-5.03,2.85-7.18
		c2.01,3.84,0.09,7.58-0.27,10.97c-1.55,14.46-3.29,28.92-6.85,43.07c-4.74,18.83-11.05,37.12-19.17,54.77
		C1231.94,496.9,1231.18,497.4,1230.63,498z"/>
	<path class="st31" d="M1307.45,233.07c0.69-1.34,0.28-2.6-0.38-3.78c-10.03-17.89-19.17-36.29-30.67-53.33
		c-1.49-2.21-3.37-4.08-5.59-5.58c-3.92-2.65-6.86,0.52-10.14,1.68c0.96-4.83,1.72-9.71,2.99-14.46c0.53-1.99,0.15-5.02,3.35-5.44
		c2.65-0.35,3.65,1.64,4.83,3.53c13.77,22.28,27.6,44.54,41.41,66.8c12.94,20.86,25.87,41.72,38.81,62.58
		c6.69,10.78,13.42,21.53,20.05,32.34c2.76,4.5,1.58,6.57-3.61,6.6c-6.43,0.04-12.8-0.49-19.03-2.16c1.62-0.28,3.23-0.7,4.86-0.81
		c6.09-0.38,6.81-1.45,3.62-6.89c-4.61-7.87-9.52-15.56-14.29-23.34C1331.79,271.44,1318.81,252.76,1307.45,233.07z"/>
	<path class="st32" d="M871.73,669.95c14.03,1.11,28.05,2.25,42.08,3.31c8.25,0.62,16.51,1.58,24.76,1.55
		c8.31-0.02,16.52,1.35,24.81,1.2c2.23-0.04,4.29,0.69,5.92,2.22c2.41,2.26,5.23,3.47,8.48,3.71c2.03,0.15,3.25,0.77,1.97,3.04
		c-8.82,2.54-17.95,3.48-26.96,4.78c-20.91,3.01-42.03,2.5-63.07,2.05c-15.3-0.33-30.54-2.12-45.53-5.35
		c-2.15-0.46-4.74,0.5-6.55-1.48c2.17-3.24,5.33-1.67,8.19-1.76c9.23-0.26,18.63,0.76,27.43-3.15c2.08-0.92,4.7-1.71,4.84-4.47
		c0.14-2.72-2.66-3.03-4.36-4.21C873.06,670.93,872.4,670.43,871.73,669.95z"/>
	<path class="st33" d="M717.89,1040.96c-0.16-5.47-3.89-9.08-9.32-8.12c-6.36,1.12-12.57,3.06-18.87,4.53
		c-14.32,3.34-28.56,3.63-42.86-0.48c-20.3-5.83-34.82-31.92-28.14-51.03c3.37,9.98,6.49,20.02,14.9,27.32
		c7.36,6.39,15.91,9.45,25.41,10.71c18.79,2.51,35.96-3.29,52.9-10.16c3.14-1.27,4.73-0.45,5.82,2.25
		c2.27,5.62,4.23,11.37,6.68,16.9c1.89,4.27,0.81,6.42-3.74,7.08C719.71,1040.11,718.81,1040.62,717.89,1040.96z"/>
	<path class="st18" d="M649.81,153.94c14.93-15.9,32.1-29.1,50.06-41.31c27.99-19.02,58.42-33.1,90.29-44.19
		c4.52-1.57,9.21-2.66,13.82-3.95c1.41-0.4,2.84-0.82,4.65,0.88c-7.91,3.18-15.48,6.21-23.04,9.27
		c-25.48,10.32-48.77,24.39-70.74,40.82c-12.53,9.36-24.06,19.78-34.96,30.96c-2.41,2.47-5.31,4.47-7.98,6.68
		c-2.68,0.65-4.61,2.5-6.76,4.06c-3.57,2.6-6.5,6.3-11.32,6.84c-7.27-2.26-7.27-2.26-4.16-9.59
		C649.74,154.26,649.77,154.1,649.81,153.94z"/>
	<path class="st34" d="M649.81,153.94c-0.04,0.16-0.07,0.32-0.13,0.47c-3.11,7.33-3.11,7.33,4.16,9.59
		c-2.72,2.9-5.34,5.89-8.16,8.69c-14.23,14.14-25.66,30.43-36.42,47.25c-1,1.56-2.05,3.07-1.42,5.07
		c-12.64,18.14-22.51,37.68-29.96,58.49c-5.9,16.46-12.22,32.74-14.4,50.31c-0.57,4.62-1.8,9.54-5.41,13.19
		c0.05-12.83,2.81-25.29,5.29-37.76c5.67-28.5,16.04-55.35,29.88-80.81c11.34-20.86,24.77-40.3,40.64-58.06
		C638.98,164.67,644.14,159.07,649.81,153.94z"/>
	<path class="st35" d="M607.84,225.01c-0.64-2,0.42-3.51,1.42-5.07c10.76-16.81,22.19-33.11,36.42-47.25
		c2.82-2.8,5.45-5.79,8.16-8.69c4.82-0.54,7.75-4.24,11.32-6.84c2.15-1.56,4.08-3.41,6.76-4.06
		c-10.56,13.68-22.02,26.64-31.29,41.33c-12.82,20.3-23.75,41.49-31.53,64.24c-0.65,1.9-1.41,3.69-2.39,5.41
		c-2.22,2.56-3.46,5.46-3,8.92c-1.41,6.6-2.75,13.21-4.25,19.78c-2.44,10.64-4.4,21.34-4.74,32.28c-1.18,0.94-1.32,3.6-3.54,2.7
		c-1.57-0.64-1.16-2.59-1.28-4.05c-1.22-14.65,1.5-28.83,5.59-42.75c2.76-9.41,6.32-18.57,6.9-28.53c0.17-2.84,0.07-5.59-0.12-8.41
		c-0.39-5.91-0.23-11.6,6.54-14.68C612.89,227.48,610.31,226,607.84,225.01z"/>
	<path class="st36" d="M808.73,649c4.75,2.87,10.44,3.71,15.04,6.92c-9.17,1.05-14.07,4.37-14.5,10.79c-0.24,3.63-2.13,4.7-4.91,4.9
		c-3.7,0.27-7.42,0.07-11.87,0.07c3.35,3.2,7.72,2.25,10.27,5.09c-15.01-3.46-29.49-8.51-43.41-15.07
		c-6.19-2.92-13.12-4.33-18.5-8.92c2.7-3.54,6.25-2.3,9.63-1.61c2.9,0.6,4.76,0.17,5.29-3.29c1.68-11.05,2.77-11.89,14.07-11.94
		c0.67,0,1.33-0.01,1.99-0.01C783.83,641.09,796.12,645.49,808.73,649z"/>
	<path class="st37" d="M802.74,676.77c-2.55-2.83-6.92-1.89-10.27-5.09c4.45,0,8.18,0.2,11.87-0.07c2.78-0.2,4.67-1.27,4.91-4.9
		c0.43-6.42,5.34-9.74,14.5-10.79c4.66,1.01,9.32,2.02,13.98,3.04c5.8,3.02,12.23,4.11,18.44,5.82c5.28,1.45,10.63,2.61,15.54,5.17
		c0.67,0.49,1.34,0.98,2.02,1.46c1.69,1.18,4.5,1.5,4.36,4.21c-0.14,2.76-2.76,3.54-4.84,4.47c-8.8,3.91-18.2,2.88-27.43,3.15
		c-2.86,0.08-6.02-1.49-8.19,1.76C825.54,684.22,814.19,680.3,802.74,676.77z"/>
	<path class="st38" d="M808.73,649c-12.6-3.51-24.9-7.91-36.91-13.08c-6.5-4.65-13.84-7.81-20.71-11.81c-3-1.75-6.23-3.17-8.32-6.14
		c3.4-5.42,3.06-7.01-2.24-10.87c-1.72-1.25-3.43-2.54-4.97-3.99c-2.06-1.94-0.5-2.69,1.27-3.26
		c26.17,16.01,54.01,28.31,83.17,37.74c3.27,1.06,6.85,1.29,9.7,3.51c-0.57,1.33-0.31,2.46,0.46,3.72c3.08,5.02,2.73,5.58-3.45,6.14
		C820.61,651.38,814.76,649.34,808.73,649z"/>
	<path class="st39" d="M1385.37,1047.91c1.77-1.25,3.81-1.04,5.79-1.05c5.49-0.03,10.99,0.02,16.48-0.02
		c6.24-0.05,6.69-0.54,6.76-6.96c0.01-0.5,0-1,0-1.5c0-64.8,0-129.59,0-194.39c0-7.31-0.02-7.29-7.3-8
		c-3.21-0.31-6.31,0.19-9.36,1.09c-6.47,1.9-8.31,4.35-8.32,11.1c-0.02,17.99-0.03,35.98,0.01,53.97c0.01,4.03-0.43,7.96-1.85,11.74
		c-0.05-29.96-0.08-59.93-0.19-89.89c-0.01-3,1.15-4.17,4.14-4.12c6.99,0.11,13.98,0.09,20.97,0.01c2.72-0.03,4.06,1.03,3.91,3.82
		c-0.06,1,0,2,0,3c0,72.08-0.05,144.17,0.12,216.25c0.01,4.85-1.21,6.32-6.05,6.01c-6.8-0.43-13.64-0.06-20.46-0.15
		C1388.46,1048.8,1386.66,1049.53,1385.37,1047.91z"/>
	<path class="st40" d="M524.75,839.93c-5.35-4.27-11.63-4.59-17.92-3.64c-6.99,1.06-9.9,4.91-9.9,11.96
		c-0.01,63.56,0,127.12-0.04,190.67c0,2.74,0.78,5.75-1.8,7.94c-0.05-1.66-0.16-3.32-0.16-4.98c-0.01-71.72-0.01-143.44-0.01-215.16
		c0-6.81,0.01-6.82,6.87-6.82c6.32,0,12.64,0.08,18.96-0.03c2.95-0.05,4.26,1.05,4.17,4.09
		C524.78,829.29,524.81,834.61,524.75,839.93z"/>
	<path class="st41" d="M1185.38,837.93c-3.16,0.19-6.15-0.76-9.21-1.3c-7.05-1.26-13.58,0.08-19.45,4.28
		c-2.18-5.96-0.84-12.14-1.09-18.23c-0.07-1.79,1.08-2.73,2.85-2.74c7.98-0.02,15.96-0.01,23.93-0.01c2.78,0,3.17,1.82,3.13,4.04
		C1185.46,828.63,1185.43,833.28,1185.38,837.93z"/>
	<path class="st42" d="M805.76,691.1c-1.24,0.2-2.47,0.39-3.71,0.59c0.53,0.78,1.07,1.57,1.6,2.35
		c-10.38-2.84-20.31-6.69-29.2-12.94C785.34,683.17,795.64,686.86,805.76,691.1z"/>
	<path class="st43" d="M1013.59,84.92c1.42-1.26,3.1,0.79,4.72-0.48c-0.58-0.75-1.15-1.49-1.73-2.22c10.05,2.78,20.26,5.14,29.24,11
		C1034.77,91.6,1024.21,88.13,1013.59,84.92z"/>
	<path class="st4" d="M603.7,272.99c-0.46-3.47,0.78-6.36,3-8.92C606.16,267.2,605.2,270.19,603.7,272.99z"/>
	<path class="st44" d="M792.85,987.77c4.03,3.35,4.25,8.69,6.67,12.93c8.11,14.2,20.15,21.27,36.17,23.37
		c10.93,1.43,20.83-0.72,30.55-5.07c11.8-5.29,17.94-15.4,22.48-26.82c1.14-2.87,1.75-5.99,3.88-8.4
		c4.73,26.12-13.35,51.08-39.64,55.11c-14.49,2.22-28.74,1.28-40.64-7.4C797.94,1020.98,789.01,1006.94,792.85,987.77z"/>
	<path class="st45" d="M335.1,936.77c14.21,2.26,28.53,1.19,42.77,0.9c9.48-0.2,19.02-2.01,26.26-9.41
		c4.38-4.48,7.06-9.89,8.74-15.8c0.42-1.48,0.5-2.91,2.03-3.68c4.76,14.57,0.03,26.35-10.68,36.36c-4.38,4.1-9.67,6.81-15.43,7.66
		c-14.47,2.12-29.06,3.42-43.63,1.11C334.88,952.28,331.98,946.95,335.1,936.77z"/>
	<path class="st46" d="M1016.67,1020.81c0.87,10.29,5,13.93,16.66,14c21.47,0.13,42.95,0.04,64.42,0.05c1.66,0,3.33-0.01,4.99,0
		c7.33,0.03,9.7,3.28,7.68,10.37c-0.42,1.49-1.24,2.34-2.72,2.47c-1.49,0.13-2.99,0.15-4.49,0.15c-35.96,0.01-71.91,0.01-107.87,0
		c-7.67,0-8.68-0.95-8.68-8.61c-0.02-64.94-0.02-129.88,0-194.82c0-7.77,0.86-9.06,8.52-10.03c5.25-0.67,10.62-0.34,15.94-0.39
		c2.21-0.02,3.37,1.19,3.43,3.4c0.05,1.83,0.08,3.66,0.08,5.49c0,55.62,0.01,111.23,0,166.85c0,3.83-0.05,7.67,2.06,11.1
		C1016.7,1020.84,1016.67,1020.81,1016.67,1020.81z"/>
</g>
</svg>
