<?xml version="1.0" encoding="utf-8"?>
<!-- Generator: Adobe Illustrator 28.0.0, SVG Export Plug-In . SVG Version: 6.00 Build 0)  -->
<svg version="1.1" id="Слой_1" xmlns="http://www.w3.org/2000/svg" xmlns:xlink="http://www.w3.org/1999/xlink" x="0px" y="0px"
	 viewBox="0 0 1920 1080" style="enable-background:new 0 0 1920 1080;" xml:space="preserve">
<style type="text/css">
	.st0{clip-path:url(#SVGID_00000170986542549895674480000000010352938052469398_);}
	.st1{fill:#B3CC12;}
	.st2{fill:#8CBE24;}
	.st3{fill:#E2A124;}
	.st4{fill:#E1A224;}
	.st5{fill:#5BB253;}
	.st6{fill:#E0A124;}
	.st7{fill:#E1A227;}
	.st8{fill:#8EB224;}
	.st9{fill:#90B522;}
	.st10{fill:#76B629;}
	.st11{fill:#8EB124;}
	.st12{fill:#BD8717;}
	.st13{fill:#5EB12F;}
	.st14{fill:#B27E16;}
	.st15{fill:#60B246;}
	.st16{fill:#67B337;}
	.st17{fill:#60B12E;}
	.st18{fill:#46AB33;}
	.st19{fill:#4DAC32;}
	.st20{fill:#49AC32;}
	.st21{fill:#6BB32C;}
	.st22{fill:#70B52B;}
	.st23{fill:#92B722;}
	.st24{fill:#8EB324;}
	.st25{fill:#7CB827;}
	.st26{fill:#71B52B;}
	.st27{fill:#4BAD32;}
	.st28{fill:#40A235;}
	.st29{fill:#74B02B;}
	.st30{fill:#86BC24;}
	.st31{fill:#41AB3E;}
	.st32{fill:#60B23F;}
	.st33{fill:#77B729;}
	.st34{fill:#80BA26;}
	.st35{fill:#51AE31;}
	.st36{fill:#B78013;}
	.st37{fill:#B57F13;}
	.st38{fill:#93BA21;}
	.st39{fill:#179038;}
	.st40{fill:#5E7E2B;}
	.st41{fill:#0D3A3D;}
	.st42{fill:#BC861C;}
</style>
<defs>
	<path id="SVGID_1_" d="M1354,494c0,197.17-176.85,357-395,357S564,691.17,564,494s176.85-352,395-352S1354,296.83,1354,494z"/>
</defs>
<clipPath id="SVGID_00000113347465437194405330000002686787056517182365_">
	<use xlink:href="#SVGID_1_"  style="overflow:visible;"/>
</clipPath>
<g style="clip-path:url(#SVGID_00000113347465437194405330000002686787056517182365_);">
	<g>
		<path class="st1" d="M881.85,534.01c0.05,12.64,0.15,25.28,0.16,37.92c0.02,47.58,0.02,95.16-0.02,142.74
			c0,2.5,0.15,4.92,1.14,7.24c-0.99,3.43-0.66,6.85,0.33,10.18c1.48,4.98,5.61,8.1,10.25,8.02c4.69-0.09,8.68-3.29,10-8.32
			c1.11-4.21,1.11-8.58,1.26-12.89c0.69-19.3,0.56-38.62,0.55-57.93c-0.02-51.97-0.01-103.95,0-155.92c0-2.82,0.5-5.72,0.29-8.44
			c-0.44-5.7,2.64-8.47,7.06-10.79c4.29-2.25,8.71-4.15,13.24-5.86c24.71-9.29,48.19-21.1,70.7-34.87c2.99-1.83,6.01-3.51,9.75-3.36
			c3.55,0.15,5.52,2.06,6.1,5.29c0.46,2.54,0.35,5.17,0.35,7.77c-0.01,80.13-0.02,160.25,0.01,240.38c0,2.29-0.56,4.68,0.82,6.82
			c0.08,1.62,0.16,3.23,0.24,4.85c0.04,3.1,0.23,6.21,0.55,9.29c0.65,6.17,5.35,10.85,10.87,11.04c5.17,0.17,9.75-4.23,10.68-10.52
			c0.55-3.72-0.19-7.54,0.8-11.26c0.02-92.79,0.04-185.56-0.08-278.33c-0.01-5.21,1.37-9.14,5.05-12.88
			c10.87-11.04,23.05-20.67,33.81-31.84c19.93-20.69,38.35-42.54,53.43-67.07c1.82-2.97,3.54-6.07,6.32-8.32
			c2.03-1.65,4.35-2.55,6.95-1.54c2.64,1.03,2.09,3.69,2.07,5.54c-0.1,7.29-0.04,14.58-0.04,21.86
			c-0.02,104.88,0.02,209.76-0.06,314.64c0,3.87,1.28,7.8-0.37,11.62c-2.96,5.74-8,9.73-12.67,13.76
			c-15.14,13.06-31.11,25.12-47.87,36.03c-31.42,20.46-65.4,34.75-102.25,42.2c-17.46,3.53-35.01,5.42-52.82,5.96
			c-43.08,1.3-84.38-6.58-123.95-23.36c-26.07-11.06-50.14-25.5-72.02-43.65c-21.6-17.92-40.25-38.38-55.75-61.75
			c-20.86-31.46-34.96-65.64-41.76-102.83c-2.13-11.67-3.51-23.33-4.15-35.19c-0.42-7.78-1.19-15.6-0.55-23.3
			c0.52-6.32-0.04-12.77,1.66-18.99c2.97-9.98,4.76-20.25,7.5-30.31c11.62-42.67,31.77-80.86,60.64-114.23
			c32.22-37.24,71.46-64.63,118.01-81.25c6.28-2.24,12.53-4.58,19.09-5.84c3.52-0.67,4.31,0.51,2.95,3.77
			c-6.28,3.1-12.45,6.42-18.85,9.25c-13.69,6.04-26.26,13.98-38.42,22.54c-15.71,11.05-30.07,23.75-42.98,37.96
			c-14.24,15.68-26.63,32.74-36.93,51.34c-9.23,16.67-16.51,34.09-22.05,52.28c-5.07,16.62-8.26,33.56-9.98,50.89
			c-1.4,14.12-0.75,28.2-0.68,42.28c0.04,8.13,1.72,16.25,2.67,24.37c-1.72,5.64,0.14,11.16,0.97,16.58
			c7.12,46.4,26.39,87.37,56.18,123.47c6.66,8.07,13.18,16.35,21.67,22.7c1.2,0.9,2.42,1.77,3.76,2.46
			c8.01,4.1,15.75,0.63,17.56-8.22c0.94-4.59,0.64-9.34,0.18-14.03c0-11.32,0-22.64,0-33.96c1.21-2.17,0.91-4.56,0.8-6.85
			c-0.32-6.6,0.86-12.98,3.11-19.09c6.63-18.02,14.44-35.42,26.59-50.6c14.26-17.82,31.92-31.01,52.9-39.79
			c5.02-2.1,9.78-5.1,15.53-5.09c6.68,0.01,8.77,1.94,8.87,8.58C881.14,516.1,880.58,525.09,881.85,534.01z"/>
		<path class="st2" d="M1321.96,443.85c-7.15,0.83-14.17-1.25-21.32-0.93c-3.28,0.14-4.08,1.32-3.56,4.21
			c1.83,10.07,2.59,20.23,2.93,30.45c0.24,7.27,1.25,14.5,0.98,21.81c-1.16,31.65-5.01,62.86-14.29,93.29
			c-6.2,20.33-13.99,39.98-23.66,58.86c-11.5,22.45-25.21,43.47-41.73,62.6c-5.28,6.11-9.96,12.76-16.3,17.9
			c-3.85-1.85-7.39-1.06-10.8,1.21c-3.05,2.02-6.36,3.61-9.56,5.38c-1.37,0.76-2.86,0.93-4.18-0.24c-1.3-1.16-1.34-2.57-0.79-4.1
			c1.8-5.01,3.38-10.14,6.45-14.55c10.27-14.73,19.26-30.23,28.07-45.85c0.82-1.45,1.45-3.01,1.9-4.6
			c2.4-8.45,6.66-16.19,9.24-24.58c16.18-36.19,25.07-74.03,25.79-113.73c1.17-15.36,1.18-30.76,0.7-46.12
			c-0.33-10.64-1.81-21.26-3.04-31.85c-0.35-3.04-1.68-4.87-5.7-3.23c-7.55,3.08-15.41,5.42-23.14,8.06
			c-4.22,0.37-5.46-1.93-5.42-5.73c0.1-9.42,2.61-18.45,4.46-27.57c7.16-35.26,14.03-70.57,20.58-105.94
			c0.76-4.09,1.4-8.22,2.87-12.14c1.94-5.17,5.93-6.16,10.15-2.53c4.89,4.21,7.52,10.05,10.47,15.52
			c5.49,10.17,11.37,20.11,16.92,30.23c0.84,1.53,2.11,2.54,3.46,3.52c6.19,9.22,11.7,18.87,17.27,28.47
			c10.42,17.97,21.76,35.4,31.36,53.84c3.48,6.68,2.41,8.51-5.16,8.53C1325.26,444.04,1323.61,443.78,1321.96,443.85z"/>
		<path class="st3" d="M1362.9,980.53c2.14-0.34,4.28-0.72,6.42-1.08c-1.78-0.32-3.57-0.63-5.36-0.94
			c-0.38-0.01-0.76-0.02-1.14-0.02C1362.85,979.17,1362.88,979.85,1362.9,980.53z"/>
		<path class="st3" d="M1346.83,978.79c-2.77,0.73-5.55,1.45-8.32,2.15c1.54,0.32,2.81,1.3,3.56,2.56c1.18-0.12,2.35-0.25,3.53-0.37
			c1.03-0.14,2.05-0.28,3.08-0.43C1348.01,981.42,1347.4,980.11,1346.83,978.79z"/>
		<path class="st3" d="M1259.2,1038.41c-7.39,0.3-14.79,0.57-22.18,0.84c-0.02,1-0.04,2-0.04,2.99c7.97-1.21,15.92-2.53,23.86-3.91
			C1260.3,1038.37,1259.75,1038.39,1259.2,1038.41z"/>
		<path class="st3" d="M1367.27,1010.37c-2.31,1.33-4.73,2.52-7.31,3.53c-0.21,0.08-0.42,0.16-0.64,0.24
			c6.62-0.91,13.22-1.9,19.81-2.97C1375.18,1010.89,1371.22,1010.62,1367.27,1010.37z"/>
		<path class="st3" d="M1386.94,1033.52c-4.7,0.08-9.41,0.15-14.11,0.22c-5.84,2.67-11.81,5.04-17.89,7.11
			c0.98,2.03,1.95,4.05,2.92,6.08c1.82,0.39,3.65,0.64,5.48,0.8c7.27-0.13,14.53-0.31,21.8-0.52c0.96-0.55,1.5-1.65,1.68-2.93
			c0.25-1.82,0.13-3.66,0.13-5.49C1386.94,1037.04,1386.94,1035.28,1386.94,1033.52z"/>
		<path class="st3" d="M1361,879.07c0,1.75-0.01,3.5-0.01,5.25c8.65-0.52,17.3-1.07,25.95-1.63c0-1.18,0-2.37,0-3.55
			c-3.48-0.86-7.09-1.36-10.82-1.44C1371.02,877.58,1365.98,878.1,1361,879.07z"/>
		<path class="st3" d="M1382.36,851.81c1.53-0.11,3.06-0.23,4.59-0.34c0-2.33,0-4.65,0-6.98c0-0.12,0-0.24,0-0.36
			c-1.78-0.06-3.56-0.12-5.34-0.17C1384.27,845.87,1384.54,849.73,1382.36,851.81z"/>
		<path class="st3" d="M1361.04,843.65c-0.13,1.02-0.19,2.15-0.18,3.43c0,0.24,0,0.47,0.01,0.71c1.82-0.46,3.63-0.93,5.45-1.41
			C1364.57,845.44,1362.82,844.52,1361.04,843.65z"/>
		<path class="st4" d="M376.04,982.5c-8.99-0.14-17.97-0.25-26.96-0.33v1.79c8.99,1.35,17.99,2.62,27,3.81
			C376.07,986.02,376.05,984.26,376.04,982.5z"/>
		<path class="st4" d="M351.53,954.44c8.14-3.25,16.39-6.12,24.76-8.58c-0.26-0.44-0.46-0.93-0.58-1.43
			c-7.58,0.2-15.17,0.34-22.79,0.07c-1.28-0.05-2.56-0.11-3.83-0.17c0,3.35,0,6.69,0,10.04
			C349.9,954.39,350.72,954.41,351.53,954.44z"/>
		<path class="st4" d="M410.42,948.16c-1.97,0.32-3.94,0.67-5.9,1.04c1.26,0.54,2.52,1.08,3.78,1.61c1.49-0.12,2.98-0.25,4.46-0.37
			C411.97,949.7,411.19,948.94,410.42,948.16z"/>
		<path class="st4" d="M423.46,946.38c1.4,1.04,2.84,2,4.32,2.88c9.42-0.72,18.84-1.42,28.26-2.07c-8.27-0.51-16.54-1.02-24.8-1.55
			C428.64,945.85,426.05,946.1,423.46,946.38z"/>
		<path class="st4" d="M349.08,1005.51c0,1.46,0,2.91,0,4.37c4.03-1.36,8.14-2.85,12.23-3.86
			C357.23,1005.87,353.16,1005.69,349.08,1005.51z"/>
		<path class="st4" d="M357.17,1047.85c1.83,0,3.67,0.13,5.49-0.02c4.42-0.36,8.98,1.05,13.26-1.02c0.02-0.6,0.04-1.19,0.06-1.79
			c-8.8,0.35-17.6,0.7-26.4,1.05C350.33,1047.83,352.25,1047.84,357.17,1047.85z"/>
		<path class="st4" d="M376.1,1019.94c-9,0.4-18.01,0.79-27.02,1.17c0,4.84,0,9.67,0,14.51c9-0.31,18-0.61,27-0.9
			C376.09,1029.8,376.09,1024.87,376.1,1019.94z"/>
		<path class="st4" d="M438.5,888.38c-24.35,1.96-48.62,4.56-72.76,8.01c17.97-0.71,35.95-1.29,53.94-1.74
			C425.82,892.05,432.11,889.97,438.5,888.38z"/>
		<path class="st4" d="M349.08,912.22c15.37,0.68,30.74,1.29,46.11,1.83c24.18,0.85,48.37,1.57,72.56,2.2
			c3.15-0.69,6.3-1.35,9.45-2.01c0,0,0-0.01,0-0.01c0.03-0.24,0.05-0.47,0.07-0.71c-24.37,0-48.74-0.06-73.11-0.22
			c-4.38-0.03-6.2-5.08-3.87-8.1c-17.08,0.51-34.15,1.15-51.21,1.9C349.08,908.81,349.08,910.51,349.08,912.22z"/>
		<path class="st4" d="M349.08,923.79c3.08-0.01,6.17-0.03,9.25-0.03c3.58-0.25,7.16-0.49,10.74-0.71
			c-6.66-0.27-13.32-0.56-19.99-0.86V923.79z"/>
		<path class="st4" d="M471.97,864.64c-0.03-0.05-0.07-0.1-0.1-0.15c-24.69-2.99-49.29-6.75-73.78-11.5c-4.83-0.94-4.71-8.62,0-9.64
			c12.89-2.79,25.83-5.32,38.81-7.63c-2.02-0.52-4.08-0.95-6.22-1.26c-23.85-3.41-47.81-2.54-71.73-0.78
			c-7.17,0.53-9.86,3.96-9.86,11.03c0,8.65,0,17.29,0,25.94C390.03,868.14,431,866.15,471.97,864.64z"/>
		<path class="st4" d="M349.08,888.92c32.47-5.07,65.21-8.58,97.95-11.03c10.32-0.77,20.64-1.42,30.97-2.02
			c-0.1-0.42-0.33-0.81-0.84-1.08c-0.06-0.17-0.14-0.32-0.2-0.49c-42.65,1.6-85.28,3.71-127.88,6.34
			C349.08,883.4,349.08,886.16,349.08,888.92z"/>
		<path class="st4" d="M464.1,853.48c-3.29-4.09-6.98-7.57-11.06-10.4c-9.05,1.49-18.08,3.08-27.1,4.79
			C438.63,849.98,451.36,851.83,464.1,853.48z"/>
		<path class="st5" d="M617.99,643.08c-7.5-10.82-11.93-23.13-16.78-35.19c-8.57-21.33-14.35-43.49-18.01-66.16
			c-3.58-22.17-3.43-44.56-3.09-66.93c0.03-1.94,0.72-3.87,1.11-5.81c3.18-12.66,3.73-25.87,7.42-38.39
			c7.35-24.96,15.91-49.5,29.06-72.13c1.48-2.55,2.09-6.82,6.85-5.78c1.83,1.33,1.6,3.1,1.09,4.96c-0.7,2.58-1.28,5.23-1.05,7.9
			c1.13,13.28-2.4,25.79-6.23,38.24c-3.61,11.74-4.4,23.95-6.25,35.97c-0.46,2.97-0.32,6.28,2.78,8.31
			c1.01,6.99-0.95,13.84-0.92,20.81c0.12,30.57,4.19,60.51,13.36,89.71c0.44,1.4,0.56,2.9,0.83,4.35
			c-1.03,8.28-1.35,16.63-2.61,24.88c-0.94,6.19-0.73,12.54-3.65,18.46c-1.81,3.67-0.42,7.88,0.14,11.82c0.43,3,0.81,6.01-0.26,8.88
			c-1.53,4.11-2.71,8.17-1.73,12.63C620.37,641.12,619.82,642.6,617.99,643.08z"/>
		<path class="st6" d="M1481.8,931.28c-2.85,0.58-5.7,1.14-8.56,1.68c2.86,0.62,5.71,1.31,8.56,2.02c0-0.11,0-0.23,0-0.34V931.28z"
			/>
		<path class="st6" d="M1481.83,1014.99c-1.98-0.18-3.95-0.37-5.93-0.54c-0.4-0.04-0.8-0.07-1.21-0.1
			c-4.63,1.61-9.44,3.45-14.01,3.19c-2.25-0.13-4.5-0.3-6.75-0.5c0,0.76,0,1.53,0,2.29c9.33-1.07,18.63-2.34,27.9-3.8
			C1481.83,1015.36,1481.83,1015.17,1481.83,1014.99z"/>
		<path class="st6" d="M1453.91,1029.35c-0.01,4.85-0.02,9.71-0.03,14.56c9.34-0.64,18.68-1.36,28.02-2.17
			c-0.02-5.38-0.03-10.77-0.04-16.15C1472.57,1027.04,1463.25,1028.29,1453.91,1029.35z"/>
		<path class="st6" d="M1461.22,1003.22c3.94,0.33,7.88,0.66,11.82,1c2.87-0.81,5.8-1.56,8.75-2.22c-0.01-6.43,0-12.86,0-19.29
			c-0.31,0.04-0.61,0.08-0.92,0.12c-6.25,0.72-13.07,0.1-19.75-0.55c-2.38,0.37-4.76,0.71-7.14,1.07c0,3.16-0.01,6.31-0.01,9.47
			c1.89,0.22,3.78,0.44,5.66,0.68C1464.87,994.15,1466.69,1001.41,1461.22,1003.22z"/>
		<path class="st6" d="M1454.06,899.75c9.25,0.36,18.5,0.74,27.74,1.13c0-2.65,0-5.3,0-7.94c-9.24,0.84-18.49,1.64-27.74,2.39
			C1454.06,896.81,1454.06,898.28,1454.06,899.75z"/>
		<path class="st6" d="M1468.86,876.8c-4.92-0.28-9.85-0.54-14.77-0.79c0,0.82,0,1.65,0,2.47
			C1459.01,877.94,1463.94,877.38,1468.86,876.8z"/>
		<path class="st6" d="M1481.78,839.65c0.02-4.63,0.06-9.25,0.13-13.88c0.07-4.75-1.47-6.12-6-5.83c-5.31,0.35-10.67,0.36-15.97,0
			c-4.56-0.31-6.02,1.13-5.98,5.85c0.03,3.83,0.05,7.67,0.07,11.5C1463.29,837.98,1472.54,838.76,1481.78,839.65z"/>
		<path class="st7" d="M540.77,872.89c-1.22,0.14-2.44,0.28-3.66,0.43c1.37-0.04,2.73-0.07,4.1-0.11
			C541.06,873.1,540.91,873,540.77,872.89z"/>
		<path class="st7" d="M552.97,854.99c0-0.79-0.01-1.58-0.01-2.37c-1.96-0.18-3.93-0.37-5.89-0.55c-7.17,1.7-14.34,3.43-21.5,5.19
			c0,0.42-0.01,0.84-0.01,1.25c0,0.45,0,0.89,0,1.34c2.99,0.24,5.99,0.48,8.98,0.7C540.59,858.4,546.75,856.56,552.97,854.99z"/>
		<path class="st7" d="M537.91,939.72c-1.91-0.04-3.81-0.09-5.72-0.14c1.31,0.11,2.62,0.23,3.93,0.34c0.69-0.05,1.37-0.1,2.06-0.16
			C538.09,939.75,538,939.74,537.91,939.72z"/>
		<path class="st7" d="M553.05,888.62c-2.45,0.34-4.89,0.67-7.34,1.03c2.45,0.13,4.89,0.25,7.34,0.37V888.62z"/>
		<path class="st7" d="M549.24,834.9c-5.38-1.27-10.78-2.32-16.24-0.34c-3.6,1.31-5.4,2.85-6.3,5.55
			c8.13-1.36,16.27-2.66,24.42-3.91C550.72,835.59,550.16,835.11,549.24,834.9z"/>
		<path class="st7" d="M553.07,996.66c0-0.44,0-0.88,0-1.32c-1.29,0.46-2.58,0.93-3.86,1.4
			C550.5,996.71,551.79,996.69,553.07,996.66z"/>
		<path class="st7" d="M526.71,994.74c5.18-2.13,10.39-4.17,15.64-6.12c-5.6-0.33-11.2-0.65-16.8-0.96c0,2.52,0,5.05,0,7.57
			C525.93,995.07,526.32,994.9,526.71,994.74z"/>
		<path class="st7" d="M553.11,1018.91c-2.65-0.3-5.32-0.52-7.99-0.63c-4.3-0.18-8.6-0.07-12.86,0.36c0.13,0.06,0.26,0.12,0.39,0.17
			c6.82,0.49,13.64,0.97,20.46,1.44C553.12,1019.8,553.11,1019.35,553.11,1018.91z"/>
		<path class="st7" d="M553.17,1041.31c0-0.35,0-0.71,0-1.06c-6.74,0.13-13.47,0.27-20.21,0.4
			C539.69,1040.91,546.43,1041.14,553.17,1041.31z"/>
		<path class="st8" d="M840.09,220.1c-0.66-3.49-2.94-1.21-4.19-0.91c-12.65,3.09-24.6,8.19-36.54,13.25
			c-27.24,11.54-51.04,28.4-73.12,47.86c-24.61,21.68-43.7,47.59-59.57,76.18c-12.8,23.06-21.1,47.67-27.77,72.99
			c-1.68,6.38-2.7,13.07-7,18.48c1.12-30.23,9.94-58.51,21.7-86.08c9.23-21.65,21.3-41.65,35.71-60.13
			c11.52-14.77,24.72-28.09,38.88-40.46c20.9-18.26,44.13-32.83,69.31-44.3c20.85-9.5,42.56-16.58,65.1-20.87
			c15.23-2.9,30.6-4.38,46.13-5.25c34.01-1.92,66.93,3.53,99.5,12.39c0.61,0.17,1.15,0.64,1.71,0.97c1.05,0.49,2.05,1.07,2.98,1.76
			c0.26,0.19,0.23,0.59,0.06,1.17c-1.55,1.02-3.28,0.3-4.99-0.05c-9.24-1.47-18.52-2.73-27.7-4.51c-3.74-0.73-7.59-1.03-11.26-1.25
			c-11.07-0.68-22.16-1.95-33.29-1.25c-31.02,1.95-61.26,7.71-90.52,18.35C843.54,219.06,841.8,219.55,840.09,220.1z"/>
		<path class="st9" d="M1144.05,659.09c-1.72-10.93-1.05-21.93-1.05-32.91c-0.04-102.64-0.02-205.27-0.02-307.91
			c0-1.67,0.11-3.34-0.03-5c-0.18-2.03,0.89-4.85-1.86-5.63c-2.76-0.79-4.68,1.26-6.08,3.44c-7.59,11.75-15.04,23.59-23.75,34.57
			c-15.53,19.59-32.15,38.15-50.94,54.73c-7.09,6.26-13.68,13.07-20.53,19.6c-1.78,1.7-1.78,3.85-1.78,6.02
			c-0.02,8.33-0.01,16.66-0.01,24.99c-0.03,85.31-0.05,170.62-0.08,255.92c-1.08,0.62-1.44-0.11-1.75-0.93
			c-0.06-2.33-0.16-4.66-0.16-6.99c-0.01-93.59,0.22-187.19-0.3-280.78c-0.06-11.16,3.74-18.19,12.06-24.59
			c14.49-11.14,26.95-24.47,39.26-37.96c10.8-11.84,20.67-24.37,30.12-37.26c7.59-10.36,14.37-21.24,20.83-32.32
			c0.58-1,0.97-2.11,1.64-3.04c0.89-1.24,2.02-2.11,3.77-1.95c2,0.18,1.64,1.96,2,3c0.52,1.51,0.57,3.24,0.57,4.87
			c0.02,121.07,0.02,242.15,0.03,363.22C1145.99,654.69,1146.12,657.19,1144.05,659.09z"/>
		<path class="st10" d="M1227.96,645.97c-2.98,10.09-7.84,19.44-12.69,28.61c-8.69,16.44-17.66,32.78-28.03,48.29
			c-2.68,4.01-3.94,8.96-4.98,14.17c5.32-2.91,10.6-5.91,15.98-8.7c5.35-2.76,5.95-2.36,6.75,3.7
			c-13.39,14.74-28.15,27.93-44.24,39.68c-19.5,14.25-40.13,26.57-61.99,36.8c-25.29,11.83-51.74,20.28-78.99,26.2
			c-2.19,0.47-4.54,0.5-6.78,1.03c-1.26-0.65-3.23-0.18-3.55-2.29c3.96-3.35,8.78-4.95,13.62-6.38
			c17.86-5.28,34.06-14.03,49.89-23.59c12.29-1.9,21.5-9.89,31.25-16.45c16-10.76,31.37-22.56,45.28-35.92
			c23.49-22.56,44.06-47.56,60.15-76.05c4.75-8.41,8.88-17.14,13.4-25.66C1224.01,647.58,1224.54,644.54,1227.96,645.97z"/>
		<path class="st11" d="M1013.83,702c-2.77-1.91-1.8-4.83-1.8-7.35c-0.05-78.95-0.04-157.89-0.05-236.84c0-2.16,0.09-4.35-0.14-6.49
			c-0.74-6.89-4.61-9.07-10.72-5.78c-5.56,3-10.81,6.58-16.35,9.61c-19.87,10.88-40.31,20.47-61.42,28.82
			c-17.63,6.98-17.29,5.93-17.31,24.3c-0.1,68.12-0.01,136.24-0.1,204.36c-0.01,5.35,1,10.6,0.98,15.92
			c-0.04,8.61-6.07,15.16-13.57,15.01c-7.83-0.16-13.91-7.69-13.28-16.38c0.16-2.28,0.64-4.31,3.04-5.25
			c5.96,7.71,13.3,8.08,19.39,1.03c0.92-1.06,1.62-2.07,1.49-3.52c-0.68-7.65,1.05-15.19,1.04-22.83
			c-0.06-72.46-0.02-144.92-0.07-217.38c0-3.23,0.35-5.14,4.17-6.48c21.79-7.62,43.06-16.53,63.38-27.56
			c11.72-6.36,23.07-13.36,34.34-20.47c1.69-1.06,3.47-2.31,5.53-1.41c2.14,0.93,1.59,3.08,1.59,4.85
			c0.01,90.62,0.01,181.24,0,271.85C1013.97,700.67,1013.88,701.34,1013.83,702z"/>
		<path class="st12" d="M1348.82,978.23c-1.37,0.37-2.74,0.75-4.11,1.11c0.59,1.23,1.16,2.46,1.76,3.68
			c3.26-0.46,6.53-0.94,9.78-1.44c-0.51-1.09-1.03-2.17-1.55-3.25c-0.3-0.01-0.59-0.01-0.89-0.02
			C1352.15,978.28,1350.48,978.26,1348.82,978.23z"/>
		<path class="st13" d="M1227.96,645.97c-5.09,9.54-10.17,19.09-15.28,28.62c-9.97,18.58-22.62,35.26-36.11,51.4
			c-20.77,24.83-45.09,45.61-71.97,63.44c-7.89,5.24-16.32,9.68-24.53,14.43c-1.88,1.09-3.86,1.98-6.11,2.02
			c-1.93-3.2,0.97-4.15,2.7-5.33c12.22-8.36,24.44-16.72,36.05-25.9c5.7-4.51,11.9-8.51,16.55-14.36c-1.28-1.19-4.17-0.56-3.37-3.43
			c8.01-7.9,17.1-14.56,25.21-22.37c20.03-19.28,37.57-40.51,52.18-64.16c19.17-31.04,33.21-64.16,40.84-99.95
			c2.51-11.79,4.29-23.66,5.9-35.58c0.18-1.29,0.72-2.53,1.09-3.8c2.26,12.73,1.4,25.36-0.62,38.07
			C1246.28,595.68,1238.48,621.21,1227.96,645.97z"/>
		<path class="st14" d="M350.09,954.39c0-3.34,0-6.68,0-10.02c-0.67-0.03-1.33-0.06-2-0.09c0,3.35,0,6.7,0,10.05
			C348.75,954.35,349.42,954.37,350.09,954.39z"/>
		<path class="st14" d="M468.37,864.05c0.15,0.24,0.31,0.47,0.46,0.71c1.33-0.05,2.66-0.1,3.99-0.15
			C471.34,864.42,469.86,864.23,468.37,864.05z"/>
		<path class="st14" d="M348.07,912.18c0.67,0.03,1.34,0.06,2.01,0.09c0-1.74,0-3.48,0-5.21c-0.67,0.03-1.34,0.06-2.02,0.09
			C348.07,908.82,348.07,910.5,348.07,912.18z"/>
		<path class="st14" d="M460.46,853c4.23,0.56,8.46,1.1,12.69,1.61c-2.03-4.78-4.77-9.24-8.09-13.43
			c-5.29,0.81-10.57,1.66-15.85,2.55C453.32,846.17,457.08,849.23,460.46,853z"/>
		<path class="st14" d="M350.09,870.59c0-8,0-16,0-24c0-6.88,2.71-10.03,9.6-10.57c7.12-0.56,14.27-1.02,21.4-1.07
			c14.14-0.09,28.28-0.43,42.4,0.95c2.37,0.23,4.69,0.57,6.95,0.99c8.72-1.6,17.47-3.1,26.22-4.5
			c-10.29-8.6-22.97-12.07-36.49-12.37c-21.97-0.48-43.96,0.05-65.94-0.25c-5.1-0.07-6.28,1.31-6.27,6.32
			c0.04,14.87,0.06,29.74,0.08,44.62C348.72,870.67,349.4,870.63,350.09,870.59z"/>
		<path class="st14" d="M348.06,889.08c0.68-0.11,1.35-0.2,2.03-0.31c0-2.73,0-5.46,0-8.19c-0.68,0.04-1.36,0.08-2.03,0.13
			C348.05,883.5,348.05,886.29,348.06,889.08z"/>
		<path class="st14" d="M351.46,1048.88c6.99-0.14,13.99-0.06,20.98-0.04c1.59,0,3.02-0.17,3.48-2.04c-6,0.01-11.99,0.05-17.99,0.04
			c-3.51-0.01-5.44-0.06-6.51-0.85c-1.13,0.04-2.25,0.09-3.38,0.13C348.06,1048.11,349.08,1048.93,351.46,1048.88z"/>
		<path class="st14" d="M350.09,1005.55c-0.67-0.03-1.33-0.06-2-0.09c0,1.58,0,3.17,0,4.75c0.66-0.22,1.33-0.45,2-0.67
			C350.09,1008.21,350.09,1006.88,350.09,1005.55z"/>
		<path class="st14" d="M350.09,1021.07c-0.67,0.03-1.33,0.06-2,0.09c0,4.83,0,9.67,0,14.5c0.67-0.02,1.34-0.05,2-0.07
			C350.09,1030.75,350.09,1025.91,350.09,1021.07z"/>
		<path class="st15" d="M617.99,643.08c-1.28-6.05-1.6-11.8,1.43-17.75c1.98-3.88-0.38-8.48-0.83-12.75
			c-0.25-2.36-0.43-4.6,0.39-6.87c4.36-12.08,5.5-24.71,6.15-37.4c0.12-2.4,1.04-4.13,3-5.38c0.91,2.68,1.82,5.36,2.73,8.04
			c-1.71,4.09,0.08,7.87,1.28,11.57c7.43,22.84,17.88,44.32,29.71,65.16c1.19,2.09,3.13,4.12,1.23,6.81
			c-5.57,3.7-7.13,9.01-5.62,15.2c1.17,4.78,1.13,9.13-1.97,13.23c-1.33,1.76-1.59,3.97-1.51,6.19c0.06,1.68,0.21,3.43-2.03,3.93
			c-8.65-7.65-14.46-17.54-20.74-26.97C626.36,658.74,621.41,651.33,617.99,643.08z"/>
		<path class="st16" d="M651.99,693.07c-1.15-4.9-0.95-9.47,2.54-13.59c2.03-2.39,1.51-5.36,0.59-8.1
			c-1.79-5.26-0.47-10.11,1.56-14.97c1.1-2.64,2.66-3.71,5.4-2.43c2.26-1.39,3.32,0.52,4.59,1.72c4.14,3.94,6.97,8.91,10.35,13.44
			c11.19,15.03,24.07,28.43,38.25,40.62c1.9,1.63,4.19,3.14,2.19,6.17c-0.54,0.36-1.01,0.81-1.69,0.96c-7.41,1.61-8.39,3-8.24,10.61
			c0.11,5.58,3.12,10.38,3.94,15.75c0.31,2.06,1.4,4.29-1.42,5.53c-16.59-11.24-31.2-24.78-44.81-39.37
			C660.48,704.33,655.14,699.53,651.99,693.07z"/>
		<path class="st17" d="M835.06,762.84c13.31,3.05,26.51,6.69,40.05,8.58c10.28,1.44,20.6,2.86,30.95,3.37
			c9.58,0.47,19.18,2.24,28.78,0.94c8.04-1.09,16.14-0.76,24.18-1.63c4.37,2.3,9.09,2.62,13.87,2.25
			c41.94-3.24,81.49-14.86,118.07-35.52c17.51-9.89,33.92-21.65,49.21-34.87c14.24-12.32,28.07-25,39.9-39.74
			c1.47-1.83,3.21-5.44,6.74-2.25c-6.09,8.92-11.79,18.14-18.37,26.68c-6.72,8.72-13.86,17.18-22.36,24.32
			c-2.6,1.09-4.73,2.78-6.7,4.8c-2.25,2.3-4.69,4.43-7.46,6.09c-22.58,13.48-44.77,27.71-69.11,37.94
			c-22.55,9.48-46.01,15.95-70.09,20.34c-22.15,4.05-44.51,4.42-66.84,3.71c-15.2-0.48-30.42-1.83-45.58-3.64
			c-14.44-1.72-28.8-3.85-42.97-7.13c-1.93-0.44-3.96-0.77-5.1-2.72c-0.46-3.02,1.62-5.9,0.27-9.11
			C831.98,764.04,833.57,763.03,835.06,762.84z"/>
		<path class="st18" d="M1010.08,833.93c0.97,0.61,1.94,1.22,2.91,1.83c-29.83,7.34-60.3,7.35-90.57,5.86
			c-37.68-1.86-74.22-10.49-109.43-24.27c-0.75-0.29-1.39-0.87-2.07-1.31c-0.39-0.62-1.15-0.51-1.68-0.83
			c-0.83-0.5-1.82-1.02-1.19-2.23c0.47-0.91,1.42-0.57,2.19-0.5c0.95,0.08,1.74,0.94,2.79,0.62c14.6,3.55,29.03,7.83,43.89,10.29
			c13.38,2.21,26.79,4.15,40.39,4.57c4.63,0.14,9.25,0.96,13.87,0.92c30.56-0.26,60.74-3.72,90.41-11.24
			c1.75-0.44,3.59-0.56,5.38-0.82c5.2,1.81,6.37,6.56,7.84,10.99c0.6,1.82-0.51,3.08-2.29,3.84
			C1011.49,832.07,1009.56,831.78,1010.08,833.93z"/>
		<path class="st19" d="M1186.8,663.98c-2.05,0.54-3.45,1.97-4.73,3.52c-20.16,24.47-44.05,44.69-69.97,62.84
			c-28.11,19.69-59.05,32.85-92.07,41.16c-16.59,4.18-33.6,6.77-50.8,7.47c-4.42,0.18-7.81-1.15-10.22-4.88
			c30.23-4.17,59.99-10.45,88.18-22.43c24.44-10.39,47.8-22.89,68.87-39.29c1.81-1.41,3.55-2.99,5.89-3.54
			c2.71,2.02,1.01,3.67-0.47,5.29c-2.9,3.18-6.97,4.85-9.64,7.42c-0.96,0.76-0.05,0.92-0.51,0.44c-0.03-0.03,0.06-0.14,0.28-0.3
			c15.22-11.12,30.31-22.4,43.56-35.92c17.63-17.99,32.88-37.84,46.17-59.22c1.41-2.26,2.78-4.55,4.52-6.56
			c1.58-1.83,3.29-2.2,4.93,0c-6.18,13.61-13.11,26.83-20.77,39.67C1189.12,661.2,1187.89,662.55,1186.8,663.98z"/>
		<path class="st20" d="M717.06,714.95c-3.37-3.2-6.61-6.56-10.15-9.56c-15.35-13.04-27.74-28.64-39.31-44.97
			c-1.63-2.3-3.67-4.3-5.52-6.44c-4.89-9.42-9.76-18.85-14.67-28.26c-7.4-14.17-13.38-28.94-18.25-44.15
			c-1.15-3.6-3.06-7.76,1.72-10.59c5.98,13.44,11.27,27.2,18.23,40.19c10.58,19.73,23.02,38.18,37.72,55.1
			c17.9,20.6,37.95,38.8,60.33,54.44c0.79,0.55,1.33,1.46,1.99,2.2c0.08,2.93,2.83,3.55,4.51,5c5.97,5.17,6.2,8.28,0.8,14.32
			c-2.76,1.02-4.76-0.8-6.88-1.93c-10.6-5.63-19.27-14.01-29.21-20.6C716.58,718.51,716.17,716.9,717.06,714.95z"/>
		<path class="st21" d="M833,772.97c9.58,4.27,19.95,5.14,30.1,6.78c18.24,2.94,36.64,4.27,55.09,5.37
			c10.66,0.64,21.29,0.9,31.93,0.77c26.65-0.32,52.56-5.18,78.14-12.47c34.19-9.75,64.88-26.67,94.83-45.21
			c5.64-3.49,11.81-6.18,16.49-11.13c1.68-1.78,4.09-2.13,6.49-2.08c-25.97,27.83-56.28,49.59-91.06,65.1
			c-0.73-0.55,0.28-3.49-2.44-1.45c-1.76,1.32-4.25,1.75-6.64,1.32c-5.21-0.95-10.24,0.18-15.3,1.25
			c-20.65,4.4-41.27,9.26-62.35,10.82c-16.24,1.2-32.59,0.88-48.86,0.11c-14.42-0.68-28.83-1.89-43.18-3.62
			c-8.03-0.97-15.7-3.68-23.78-4.5c-3.19-0.32-6.22,1.51-9.32,0.11c-4.55-1.65-9.27-2.64-13.94-3.83
			c-3.43-2.01-7.07-3.55-10.74-5.08c-2.14-0.89-4.35-2.27-2.53-5.31C822.06,768.51,827.83,769.05,833,772.97z"/>
		<path class="st22" d="M717.06,714.95c11.85,9.31,23.3,19.19,36.96,25.92c1.67-1.16,3.1-0.37,4.57,0.5
			c6.52,3.88,13.12,7.62,19.61,11.54c2,1.21,4.63,2.4,3.49,5.7c-1.21,1.74-3.15,1.53-4.91,1.81c-5.49,0.89-7.42,2.82-8.22,8.24
			c-1.09,7.42-1.79,7.93-9.29,6.66c-2.43-0.41-4.83-1.2-7.3-0.27c-14.8-7.45-29-15.84-41.93-26.27c-0.74-8.04-5.48-15.15-5.1-23.54
			C705.39,715.79,707.74,713.51,717.06,714.95z"/>
		<path class="st23" d="M773.19,653.95c4.47,7.09,3.61,17.4-2.06,23c-3.89,3.84-8.45,4.97-13.73,2.97
			c-7.62-2.88-12.94-8.68-18.21-14.41c-12.72-13.84-24.47-28.46-33.97-44.76c-16.63-28.54-29.04-58.65-33.81-91.56
			c-0.59-4.1-0.78-8.26-0.96-12.41c-0.09-2.21,0.65-4.26,2.42-5.79c5.69,27.74,13.66,54.71,27.11,79.82
			c9.18,17.13,19.77,33.26,32.37,48.13c6.67,7.88,14.24,14.82,21.4,22.18c6.56,6.75,15.23,4.58,18.4-4.42
			C772.47,655.78,772.84,654.87,773.19,653.95z"/>
		<path class="st24" d="M881.85,534.01c-2.52-7.43-1.76-15.12-1.82-22.74c-0.08-9.72-4.11-12.5-13.25-9.17
			c-39.28,14.32-66.74,40.8-82.13,79.73c-2.08,5.26-4.25,10.48-6.44,15.69c-2.16,5.12-3.44,10.39-3.21,16
			c0.1,2.3,0.28,4.73-1.81,6.46c-1.48-32.59,8.4-61.49,27.77-87.56c12.58-16.93,28.64-29.55,47.03-39.25
			c8.97-4.73,18.54-8.39,28.47-10.87c3.63-0.91,5.66-0.06,5.61,4.29C881.87,502.41,881.9,518.21,881.85,534.01z"/>
		<path class="st25" d="M843.02,780.96c15.47,2.09,30.82,4.88,46.4,6.33c41.06,3.82,81.93,4.98,122.44-4.78
			c7.76-1.87,15.62-3.3,23.44-4.89c1.62-0.33,3.34-0.82,4.93-0.59c6.3,0.92,12.19-0.15,17.91-2.79c1.08-0.5,2.46-1.11,4.14,0.19
			c-1.86,2.67-5.75,2.8-7.27,5.66c-17.52,10.09-36.58,16.28-55.88,21.81c-7.57,2.16-15.09,4.64-23.05,5.09
			c-4.3-0.87-8.58-1.69-12.16-4.58c-1.57-1.26-3.6-1.66-5.61-1.84c-12.38-1.06-24.81-1.36-37.21-2.1
			c-12.25-0.73-24.41-2.37-36.62-3.45c-3.14-0.28-6.14-1.24-9.27-0.17c-8.66-3.95-17.96-5.94-26.97-8.81
			C845.9,785.28,842.11,785.34,843.02,780.96z"/>
		<path class="st26" d="M1281.99,355c-9.4-13.38-16.69-28.04-25.45-41.8c-1.34-2.1-2.67-4.23-4.23-6.17
			c-1.24-1.54-2.72-3.12-5.05-2.51c-2.13,0.56-2.58,2.54-2.94,4.29c-1.63,7.82-3.14,15.67-4.68,23.51
			c-7.03,35.78-14.07,71.57-21.06,107.36c-0.83,4.24-1.71,8.48-1.62,12.86c0.05,2.41,0.83,4.19,3,5.29
			c-3.05,1.25-6.07,2.54-9.14,3.73c-1.59,0.62-3.35,0.88-4.76-0.25c-1.54-1.24-0.86-2.86-0.52-4.56
			c7.21-35.63,14.08-71.32,21.57-106.89c3.8-18.03,7.47-36.07,11.1-54.13c0.12-0.62,0.61-1.16,0.93-1.74
			c3.11-5.98,7.14-6.83,12.18-2.37c5.21,4.61,8.61,10.65,11.49,16.77c6.04,12.79,13.45,24.84,19.46,37.63c0.78,1.65,1.7,3.26,2.24,5
			C1285.17,353.24,1284.97,355.05,1281.99,355z"/>
		<path class="st27" d="M1010.08,833.93c4.84-6.78-0.95-11.63-3.13-17.13c13.93-5.64,28.5-9.49,42.36-15.4
			c17.27-7.36,33.9-15.83,49.6-26.07c9.13-5.95,17.99-12.31,26.98-18.49c2.38,1.19,4.07-0.66,6.02-1.36
			c1.04-0.37,2.22-1.46,3.16-0.28c0.92,1.15-0.29,2.08-0.92,3.02c-5.23,7.71-12.81,12.91-19.97,18.5
			c-11.89,9.28-24.24,17.94-36.8,26.3c-1.23,0.82-2.29,1.89-3.42,2.84c-19,11.7-38.95,21.26-60.63,26.93
			C1012.23,833.1,1011.17,833.55,1010.08,833.93z"/>
		<path class="st28" d="M1210.8,620c-3.15,0.36-4.25,3.02-5.62,5.23c-6.85,11.04-13.93,21.95-21.91,32.18
			c-20.72,26.56-44.28,50.1-73.55,67.37c-0.72,0.42-1.42,0.88-2.16,1.25c-0.75,0.37-1.7,0.78-2.29,0.03
			c-0.85-1.07,0.1-1.85,0.87-2.44c3.17-2.43,6.46-4.7,9.55-7.23c2.55-2.09,5.34-4.07,6.27-7.55c7.76-7.22,15.57-14.37,23.27-21.66
			c28.28-26.78,50.24-58.1,66.33-93.49c11.22-24.68,19.04-50.42,22.46-77.4c0.1-0.81,0.32-1.62,0.53-2.41
			c0.32-1.23,0.68-2.45,1.5-3.67c1.36,2.54,1.08,5.31,0.8,7.91c-2.21,20.56-4.94,41.06-10.94,60.92
			C1221.69,592.98,1217.54,606.97,1210.8,620z"/>
		<path class="st29" d="M1281.99,355c0.87-1.47,0.52-2.89-0.21-4.26c-9.42-17.72-17.69-36.06-28.46-53.05
			c-1.13-1.79-2.68-3.4-4.31-4.77c-3.57-2.99-6.8-1.28-9.88,1.09c0.03-6.15,2.41-11.9,3.02-17.96c0.13-1.25,1.24-1.86,2.56-1.94
			c1.75-0.11,2.6,0.83,3.44,2.28c4.15,7.12,8.49,14.13,12.65,21.25c11.45,19.65,22.84,39.34,34.26,59.01
			c10.26,17.68,20.56,35.33,30.78,53.04c5.6,9.71,11.18,19.43,16.53,29.28c3.24,5.97,2.43,7.24-4.36,6.97
			c-5.39-0.21-10.84-0.3-16.05-2.1c0.79-0.24,1.57-0.59,2.38-0.69c8.27-1.06,8.44-1.14,4.54-8.22
			c-14.25-25.91-29.91-51.01-44.95-76.46C1283.25,357.34,1282.63,356.17,1281.99,355z"/>
		<path class="st30" d="M875.02,791.94c13.04,1.11,26.08,2.27,39.14,3.31c8.26,0.66,16.52,1.18,24.79,1.67
			c7.28,0.43,14.57,0.73,21.85,1.08c1.72,0.08,3.3,0.6,4.51,1.84c2.43,2.51,5.36,3.86,8.82,4.1c2.03,0.14,3.26,0.76,1.97,3.04
			c-8.64,1.64-17.24,3.59-25.94,4.85c-18.43,2.66-37.02,2.3-55.57,2.07c-15.34-0.19-30.49-2.45-45.57-5.13
			c-1.26-2.21-3.77-0.71-5.39-1.81c-0.76-0.51-2.06-0.55-1.89-1.93c0.13-1.1,0.83-1.8,1.86-2.08c2.27-0.62,4.6-0.34,6.91-0.34
			c6.11,0.02,12.27,0.33,18.3-0.91c6.32-1.29,6.81-2.21,5.71-8.39C874.44,792.84,874.75,792.36,875.02,791.94z"/>
		<path class="st18" d="M667,275.94c12.15-14.86,27.1-26.72,42.21-38.25c15.95-12.17,33.17-22.5,51.23-31.27
			c15.79-7.67,31.97-14.48,48.83-19.54c1.92-0.58,3.69-1.25,6.05-0.03c-3.95,3.32-8.69,4.33-13,6.07
			c-26.33,10.59-50.22,25.31-72.42,42.83c-13.42,10.59-26.25,21.85-37.22,35.08c-1.35,1.63-3.2,2.85-4.81,4.26
			c-4.24,2.4-6.82,6.58-10.36,9.73c-2.5,2.22-4.71,4.26-8.31,2.92c-8.65-2.04-9-3.27-2.97-10.54
			C666.54,276.82,666.76,276.37,667,275.94z"/>
		<path class="st31" d="M667,275.94c-0.1,0.32-0.15,0.66-0.3,0.95c-3.35,6.73-3.35,6.73,3.35,9.2c1.5,1.96,0.23,3.39-0.9,4.87
			c-4.73,6.23-10.5,11.56-15.14,17.89c-7.68,10.47-15.08,21.12-21.9,32.18c-1.25,2.02-1.65,4.35-2.72,6.42
			c-1.45,1.89-2.61,4.02-4.63,5.42c-0.24,0.05-0.48,0.1-0.72,0.15c-10.77,16.51-18.42,34.5-24.8,53.04
			c-5.34,15.52-10.94,30.96-12.74,47.49c-0.59,5.37-2.4,10.68-5.28,15.44c-0.05-16.99,3.54-33.46,7.3-49.9
			c6.02-26.31,15.85-51.19,28.54-74.95c10.71-20.05,23.44-38.74,38.28-56.01C659.03,283.85,662.7,279.61,667,275.94z"/>
		<path class="st32" d="M628.02,347c-1.25-2.94,0.6-5.09,1.95-7.32c11.6-19.18,24.93-37.07,40.09-53.59
			c5.26-0.51,8.21-4.7,11.96-7.59c1.83-1.41,3.26-3.37,5.86-3.41c-10.07,12.87-20.16,25.72-28.73,39.68
			c-13.64,22.23-24.34,45.79-32.12,70.67c-0.19,0.6-0.6,1.12-0.91,1.68c-1.48,2.42-1.73,5.18-2.24,7.88
			c-1.78,8.34-3.64,16.66-5.3,25.02c-1.06,5.32-1.81,10.7-2.7,16.05c-0.89,2.57-1.58,5.16-1,7.91c0,1.36,0,2.72,0,4.09
			c-2.07,2.76-3.25,2.19-4.06-0.95c-1.85-7.17-0.1-14.21,0.58-21.29c0.94-9.63,3.09-19.01,6.2-28.18
			c3.45-10.17,5.27-20.61,4.41-31.39c-0.37-4.61,1.34-8.83,2.03-13.24c0,0-0.02,0.03-0.02,0.03
			C625.17,350.91,628.81,350.42,628.02,347z"/>
		<path class="st33" d="M751.98,775.05c1.73-3.01,4.3-2.98,7.33-2.39c6.09,1.19,6.25,0.97,6.75-4.89c0.57-6.72,3.78-9.71,10.54-9.83
			c1.49-0.03,2.98-0.02,4.47-0.02c1.63-1.45,3.32-0.9,5.07-0.24c8.93,3.38,17.8,6.92,26.86,9.94c1.68,0.56,3.02,1.33,3,3.36
			c4.15,3.38,9.8,3.72,14.04,6.92c-0.27,2.66-2.73,2.58-4.4,3.35c-4.03,1.85-6.91,4.22-6.79,9.26c0.08,3.51-3.56,5.99-7.87,5.49
			c-1.76-0.2-3.61-0.39-5.28-1.01c1.62,1,5.51-0.58,4.31,3.76C789.49,793.72,770.41,785.18,751.98,775.05z"/>
		<path class="st34" d="M810,798.77c-2.44-2.9-6.51-2.21-9.93-4.55c3.43-1.15,6.43,0.01,9.35-0.29c3.86-0.4,7-0.74,6.87-6.18
			c-0.12-5.21,5.67-8.9,13.74-9.83c4.33,1.01,8.66,2.02,12.99,3.04c4.65,3.26,10.28,3.67,15.48,5.34
			c5.54,1.77,11.24,3.09,16.51,5.65c1.86,1.94,5.83,2.4,5.45,5.82c-0.41,3.76-4.38,4.24-7.13,5.3c-7.4,2.86-15.28,2.02-23,2.18
			c-2.1,0.05-4.22-0.7-6.66,0.25c1.42,1.96,4.45,1,5.34,3.27c-11.1-2.21-22.18-4.49-33-7.87C813.99,800.26,812.01,799.48,810,798.77
			z"/>
		<path class="st35" d="M815.99,771c-11.99-3.44-23.64-7.78-34.93-13.07c-5.8-4.35-12.38-7.43-18.5-11.24
			c-2.92-1.82-5.7-3.87-8.54-5.81c2.53-7.51,2.53-7.51-5.21-14.08c-0.98-0.83-2.4-1.51-2.12-3.03c0.24-1.29,1.53-0.84,2.45-0.86
			c10.47,5.57,20.49,11.92,31.11,17.29c17.16,8.67,34.85,15.84,53.1,21.76c0.6,0.19,1.13,0.59,1.7,0.89
			c-0.75,1.69-0.19,3.02,0.81,4.5c2.7,4.01,2.32,4.65-2.87,5.62C827.19,773.5,821.7,771.29,815.99,771z"/>
		<path class="st36" d="M1385.94,1033.54c0,1.59,0,3.19,0,4.78c0,7.81-0.72,8.48-8.61,8.52c-6.49,0.03-12.98,0.06-19.47,0.1
			c0.18,0.36,0.39,0.64,0.61,0.88c9.71-0.15,19.41-0.37,29.12-0.66c0.36-1,0.36-2.58,0.36-5.11c0-2.85,0-5.7,0-8.55
			C1387.27,1033.52,1386.61,1033.53,1385.94,1033.54z"/>
		<path class="st36" d="M1385.91,878.89c0,1.29,0,2.58,0,3.86c0.67-0.04,1.35-0.08,2.02-0.13v-3.23
			C1387.27,879.22,1386.6,879.05,1385.91,878.89z"/>
		<path class="st36" d="M1359.97,843.46c0,1.38,0.01,2.77,0.01,4.15c0.21,0.09,0.41,0.17,0.62,0.26c0.46-0.12,0.91-0.24,1.37-0.35
			c0.02-1.22,0.11-2.3,0.29-3.25c-0.52-0.26-1.04-0.53-1.57-0.79C1360.45,843.47,1360.21,843.46,1359.97,843.46z"/>
		<path class="st36" d="M1381.24,833.67c2.23,0.06,4.47,0.13,6.7,0.2v-2.27C1385.72,832.31,1383.48,833,1381.24,833.67z"/>
		<path class="st36" d="M1360.04,879.27c0,1.7,0.01,3.4,0.01,5.11c0.63-0.04,1.26-0.07,1.89-0.11c0-1.79,0-3.58,0-5.37
			C1361.31,879.01,1360.68,879.14,1360.04,879.27z"/>
		<path class="st36" d="M1385.99,851.54c0.65-0.05,1.3-0.1,1.96-0.14c0-2.41,0-4.82,0-7.23c-0.64-0.02-1.27-0.04-1.91-0.06
			C1386.01,846.58,1386,849.06,1385.99,851.54z"/>
		<path class="st37" d="M525.06,840.53c0.36-0.15,0.75-0.28,1.2-0.35c0.95-0.16,1.91-0.31,2.86-0.47c0.39-0.39,0.85-0.76,1.37-1.1
			c4.34-2.87,10.52-3.41,16.15-1.71c2.09-0.33,4.18-0.65,6.27-0.97c0.01-1.72,0.02-3.44,0.04-5.17c-9.31,0.81-18.61,1.71-27.9,2.69
			C525.06,835.81,525.06,838.17,525.06,840.53z"/>
		<path class="st37" d="M552.18,820.81c-0.68-0.68-1.76-0.97-3.27-0.94c-5.66,0.12-11.32,0.03-16.97,0.03
			c-5.49,0-6.6,0.02-6.82,3.51C534.13,822.46,543.15,821.6,552.18,820.81z"/>
		<path class="st37" d="M526.04,995.03c0-2.44,0-4.89,0-7.33c-0.32-0.02-0.65-0.04-0.97-0.05c0,2.6,0,5.2,0,7.8
			C525.39,995.3,525.71,995.16,526.04,995.03z"/>
		<path class="st38" d="M1036.16,705.98c0.58,0.31,1.17,0.62,1.75,0.93c1.19,5.27,1.86,10.52-0.8,15.6
			c-4.97,9.48-16.91,10.02-22.71,0.84c-3.33-5.27-3.67-10.93-0.33-16.5C1020.62,717.48,1031.33,716,1036.16,705.98z"/>
		<path class="st39" d="M813.02,813.09c-1.24,0.2-2.47,0.39-3.71,0.59c0.53,0.78,1.07,1.57,1.6,2.35
			c-9.64-3.11-19.26-6.26-27.22-12.97C793.97,805.06,803.5,809.06,813.02,813.09z"/>
		<path class="st40" d="M1007.99,207.1c1.09-0.8,2.7,0.63,3.47-0.66c0.19-0.33-0.97-1.46-1.52-2.22c8.53,1.98,16.72,4.97,24.79,8.31
			c1.09,0.45,3.09,0.85,2.51,2.49c-0.65,1.84-2.31,0.46-3.4,0.13C1025.2,212.52,1016.6,209.8,1007.99,207.1z"/>
		<path class="st5" d="M614.88,443.97c-1.11-2.82-1.39-5.53,1-7.91C616.64,438.83,615.16,441.33,614.88,443.97z"/>
		<path class="st5" d="M623.88,394.99c-0.2-2.89-0.28-5.75,2.24-7.87C625.57,389.8,625.31,392.56,623.88,394.99z"/>
		<path class="st41" d="M400.3,905.19c-8.39,0.25-16.78,0.53-25.16,0.84c0,2.42,0,4.85,0.01,7.27c6.68,0.26,13.37,0.52,20.05,0.75
			c17.96,0.63,35.92,1.17,53.89,1.68c0.03-0.75,0.01-1.5,0-2.24c-14.97-0.03-29.94-0.09-44.92-0.19
			C399.79,913.27,397.97,908.22,400.3,905.19z"/>
		<path class="st41" d="M375.13,896.04c14.85-0.55,29.69-1.03,44.55-1.4c6.15-2.59,12.43-4.68,18.82-6.27
			c-21.19,1.71-42.33,3.9-63.37,6.71C375.13,895.41,375.13,895.73,375.13,896.04z"/>
		<path class="st41" d="M375.11,885.2c23.9-3.13,47.91-5.5,71.92-7.3c0.93-0.07,1.87-0.13,2.8-0.19c-0.07-0.77-0.15-1.54-0.26-2.3
			c-24.84,1.06-49.66,2.3-74.48,3.7C375.1,881.13,375.11,883.17,375.11,885.2z"/>
		<path class="st41" d="M446.84,865.63c-0.75-1.68-1.64-3.3-2.7-4.85c-15.39-2.25-30.75-4.83-46.06-7.8
			c-2.94-0.57-4.04-3.65-3.39-6.19c-5.02,0.05-10.03,0.11-15.05,0.04c-3.46-0.05-4.65,1.12-4.63,4.61
			c0.03,5.89,0.03,11.78,0.05,17.68C398.99,867.79,422.92,866.63,446.84,865.63z"/>
		<path class="st42" d="M410.42,948.16c-1.97,0.32-3.94,0.67-5.9,1.04c1.26,0.54,2.52,1.08,3.78,1.61c1.49-0.12,2.98-0.25,4.46-0.37
			C411.97,949.7,411.19,948.94,410.42,948.16z"/>
		<path class="st42" d="M431.23,945.65c-2.6,0.21-5.19,0.45-7.78,0.74c1.4,1.04,2.84,2,4.32,2.88c2.71-0.21,5.42-0.41,8.14-0.61
			c1.16-0.75,2.28-1.59,3.34-2.51C436.58,945.98,433.91,945.82,431.23,945.65z"/>
		<path class="st42" d="M451.41,915.8c-0.08-0.76-0.19-1.53-0.32-2.31c-1.15,0-2.31,0-3.46,0c-0.2,0.74-0.42,1.47-0.67,2.19
			C448.44,915.71,449.92,915.75,451.41,915.8z"/>
		<path class="st5" d="M628.02,347c2.63,1.42,3.07,2.91,0.07,4.38c-1.31,0.64-2.71,1.11-4.07,1.66
			C624.76,350.64,626.08,348.61,628.02,347z"/>
	</g>
</g>
</svg>
